<?xml version="1.0" standalone="no"?>
<!DOCTYPE svg PUBLIC "-//W3C//DTD SVG 1.1//EN" "http://www.w3.org/Graphics/SVG/1.1/DTD/svg11.dtd" >
<svg xmlns="http://www.w3.org/2000/svg" xmlns:xlink="http://www.w3.org/1999/xlink" version="1.1">
<metadata>
Created by FontForge 20170910 at Fri Mar 13 14:23:28 2015
 By Jimmy Wärting
Copyright \(c\) 2015 by Fontfabric LLC. All rights reserved.
</metadata>
<defs>
<font id="MullerHeavy" horiz-adv-x="670" >
  <font-face 
    font-family="Muller Heavy"
    font-weight="900"
    font-stretch="normal"
    units-per-em="1000"
    panose-1="0 0 0 0 0 0 0 0 0 0"
    ascent="780"
    descent="-220"
    x-height="480"
    cap-height="700"
    bbox="-168 -340 1416 991"
    underline-thickness="50"
    underline-position="-125"
    stemh="178"
    stemv="250"
    unicode-range="U+0020-25CA"
  />
<missing-glyph horiz-adv-x="164" 
 />
    <glyph glyph-name="f_f" unicode="ff" horiz-adv-x="780" 
d="M779 531c-15 9 -33 13 -49 13c-26 0 -48 -13 -48 -42v-22h87v-190h-87v-290h-242v290h-118v-290h-242v290h-60v190h60v29c0 135 107 202 234 202c54 0 113 -11 168 -39c44 51 116 65 182 65c44 0 86 -7 115 -16v-190zM322 480h118v21v17c-21 10 -44 15 -67 15
c-29 0 -51 -15 -51 -39v-14z" />
    <glyph glyph-name="f_f_i" unicode="ffi" horiz-adv-x="1059" 
d="M322 0h-242v290h-60v190h60v29c0 135 107 202 234 202c59 0 123 -13 183 -46c50 49 128 71 216 71c65 0 136 -13 205 -36v-183c-61 18 -113 26 -153 26c-53 0 -83 -18 -83 -52v-11h344v-480h-242v290h-102v-290h-242v290h-118v-290zM322 494v-14h118v23v15
c-21 10 -44 15 -67 15c-29 0 -51 -15 -51 -39z" />
    <glyph glyph-name="f_f_l" unicode="ffl" horiz-adv-x="1075" 
d="M685 736c47 0 97 -8 149 -23l208 17v-730h-242v532c-19 6 -38 10 -55 9c-36 -1 -63 -15 -63 -52v-9h67v-190h-67v-290h-242v290h-118v-290h-242v290h-60v190h60v29c0 135 107 202 234 202c58 0 121 -13 181 -45c44 46 112 70 190 70zM440 480v25v13c-21 10 -44 15 -67 15
c-29 0 -51 -15 -51 -39v-14h118z" />
    <glyph glyph-name=".notdef" horiz-adv-x="164" 
 />
    <glyph glyph-name="Aacute" unicode="&#xc1;" horiz-adv-x="776" 
d="M263 0h-269l251 700h286l251 -700h-269l-23 80h-204zM367 368l-31 -108h103l-30 108c-9 33 -17 70 -21 105c-4 -35 -12 -72 -21 -105zM466 745h-201l105 176h227z" />
    <glyph glyph-name="Abreve" unicode="&#x102;" horiz-adv-x="776" 
d="M263 0h-269l251 700h286l251 -700h-269l-23 80h-204zM367 368l-31 -108h103l-30 108c-9 33 -17 70 -21 105c-4 -35 -12 -72 -21 -105zM582 798c-55 -36 -124 -55 -193 -55s-138 19 -193 55v156c54 -33 123 -49 193 -49s139 16 193 49v-156z" />
    <glyph glyph-name="Acircumflex" unicode="&#xc2;" horiz-adv-x="776" 
d="M263 0h-269l251 700h286l251 -700h-269l-23 80h-204zM367 368l-31 -108h103l-30 108c-9 33 -17 70 -21 105c-4 -35 -12 -72 -21 -105zM282 925h212l134 -180h-191l-49 59l-49 -59h-191z" />
    <glyph glyph-name="Adieresis" unicode="&#xc4;" horiz-adv-x="776" 
d="M263 0h-269l251 700h286l251 -700h-269l-23 80h-204zM367 368l-31 -108h103l-30 108c-9 33 -17 70 -21 105c-4 -35 -12 -72 -21 -105zM612 836c0 -67 -45 -105 -105 -105s-105 38 -105 105s45 105 105 105s105 -38 105 -105zM374 836c0 -67 -45 -105 -105 -105
s-105 38 -105 105s45 105 105 105s105 -38 105 -105z" />
    <glyph glyph-name="Agrave" unicode="&#xc0;" horiz-adv-x="776" 
d="M263 0h-269l251 700h286l251 -700h-269l-23 80h-204zM367 368l-31 -108h103l-30 108c-9 33 -17 70 -21 105c-4 -35 -12 -72 -21 -105zM511 745h-201l-131 176h227z" />
    <glyph glyph-name="Amacron" unicode="&#x100;" horiz-adv-x="776" 
d="M263 0h-269l251 700h286l251 -700h-269l-23 80h-204zM367 368l-31 -108h103l-30 108c-9 33 -17 70 -21 105c-4 -35 -12 -72 -21 -105zM199 905h380v-157h-380v157z" />
    <glyph glyph-name="Aogonek" unicode="&#x104;" horiz-adv-x="776" 
d="M782 0c-31 -23 -50 -52 -50 -70c0 -12 7 -20 22 -20c6 1 12 2 18 5v-127c-30 -16 -70 -26 -109 -25c-74 2 -146 32 -146 108c0 46 29 96 85 129h-89l-23 80h-204l-23 -80h-269l251 700h286zM367 368l-31 -108h103l-30 108c-9 33 -17 70 -21 105c-4 -35 -12 -72 -21 -105z
" />
    <glyph glyph-name="Aring" unicode="&#xc5;" horiz-adv-x="776" 
d="M263 0h-269l251 700h286l251 -700h-269l-23 80h-204zM367 368l-31 -108h103l-30 108c-9 33 -17 70 -21 105c-4 -35 -12 -72 -21 -105zM541 857c0 -90 -68 -136 -151 -136c-80 0 -149 46 -149 136c0 86 69 134 149 134c83 0 151 -48 151 -134zM358 856
c0 -18 10 -33 33 -33c24 0 33 15 33 33s-9 33 -33 33c-23 0 -33 -15 -33 -33z" />
    <glyph glyph-name="Atilde" unicode="&#xc3;" horiz-adv-x="776" 
d="M263 0h-269l251 700h286l251 -700h-269l-23 80h-204zM367 368l-31 -108h103l-30 108c-9 33 -17 70 -21 105c-4 -35 -12 -72 -21 -105zM599 929c27 -106 -28 -197 -125 -197c-66 0 -107 41 -133 41c-19 0 -22 -20 -19 -35h-147c-27 106 28 197 125 197
c66 0 107 -41 133 -41c19 0 22 20 19 35h147z" />
    <glyph glyph-name="AE" unicode="&#xc6;" horiz-adv-x="1033" 
d="M745 262v-60h260v-202h-516v80h-192l-44 -80h-267l417 700h596v-200h-254v-60h214v-178h-214zM395 260h94v171z" />
    <glyph glyph-name="B" unicode="B" horiz-adv-x="711" 
d="M42 700h377c161 0 250 -54 250 -177c0 -68 -21 -119 -97 -150c88 -27 125 -87 125 -170c0 -159 -128 -203 -286 -203h-369v700zM431 235c0 23 -12 45 -46 45h-77v-90h77c34 0 46 22 46 45zM418 470c0 20 -12 42 -44 42h-66v-84h66c32 0 44 22 44 42z" />
    <glyph glyph-name="C" unicode="C" horiz-adv-x="648" 
d="M20 345c-1 267 193 372 387 372c72 0 146 -14 208 -41v-230c-36 20 -99 41 -161 41c-84 0 -160 -37 -160 -142c0 -90 74 -128 154 -128c72 0 139 15 172 41v-234c-63 -28 -131 -41 -205 -41c-204 0 -395 104 -395 362z" />
    <glyph glyph-name="Cacute" unicode="&#x106;" horiz-adv-x="648" 
d="M20 345c-1 267 193 372 387 372c72 0 146 -14 208 -41v-230c-36 20 -99 41 -161 41c-84 0 -160 -37 -160 -142c0 -90 74 -128 154 -128c72 0 139 15 172 41v-234c-63 -28 -131 -41 -205 -41c-204 0 -395 104 -395 362zM482 745h-201l105 176h227z" />
    <glyph glyph-name="Ccaron" unicode="&#x10c;" horiz-adv-x="648" 
d="M20 345c-1 267 193 372 387 372c72 0 146 -14 208 -41v-230c-36 20 -99 41 -161 41c-84 0 -160 -37 -160 -142c0 -90 74 -128 154 -128c72 0 139 15 172 41v-234c-63 -28 -131 -41 -205 -41c-204 0 -395 104 -395 362zM639 925l-134 -180h-212l-134 180h191l49 -59l49 59
h191z" />
    <glyph glyph-name="Ccedilla" unicode="&#xc7;" horiz-adv-x="648" 
d="M620 258v-234c-41 -18 -85 -30 -130 -36l-11 -31c53 -7 96 -31 96 -88c0 -76 -74 -107 -164 -107c-52 0 -92 6 -128 19v112c26 -8 56 -13 81 -13c32 0 57 7 57 24c0 25 -59 26 -90 22l20 60c-178 21 -331 128 -331 359c-1 267 193 372 387 372c72 0 146 -14 208 -41v-230
c-36 20 -99 41 -161 41c-84 0 -160 -37 -160 -142c0 -90 74 -128 154 -128c72 0 139 15 172 41z" />
    <glyph glyph-name="Cdotaccent" unicode="&#x10a;" horiz-adv-x="648" 
d="M20 345c-1 267 193 372 387 372c72 0 146 -14 208 -41v-230c-36 20 -99 41 -161 41c-84 0 -160 -37 -160 -142c0 -90 74 -128 154 -128c72 0 139 15 172 41v-234c-63 -28 -131 -41 -205 -41c-204 0 -395 104 -395 362zM297 840c0 73 51 105 109 105
c59 0 109 -32 109 -105c0 -74 -50 -105 -109 -105c-58 0 -109 31 -109 105z" />
    <glyph glyph-name="D" unicode="D" horiz-adv-x="743" 
d="M42 700h319c252 0 362 -144 362 -350s-110 -350 -362 -350h-319v700zM449 350c0 101 -40 130 -98 130h-43v-260h43c58 0 98 29 98 130z" />
    <glyph glyph-name="Eth" unicode="&#xd0;" horiz-adv-x="754" 
d="M53 700h319c252 0 362 -144 362 -350s-110 -350 -362 -350h-319v278h-50v140h50v282zM319 220h43c58 0 98 29 98 130s-40 130 -98 130h-43v-62h82v-140h-82v-58z" />
    <glyph glyph-name="Dcaron" unicode="&#x10e;" horiz-adv-x="743" 
d="M42 700h319c252 0 362 -144 362 -350s-110 -350 -362 -350h-319v700zM449 350c0 101 -40 130 -98 130h-43v-260h43c58 0 98 29 98 130zM596 925l-134 -180h-212l-134 180h191l49 -59l49 59h191z" />
    <glyph glyph-name="Dcroat" unicode="&#x110;" horiz-adv-x="754" 
d="M53 700h319c252 0 362 -144 362 -350s-110 -350 -362 -350h-319v278h-50v140h50v282zM319 220h43c58 0 98 29 98 130s-40 130 -98 130h-43v-62h82v-140h-82v-58z" />
    <glyph glyph-name="E" unicode="E" horiz-adv-x="626" 
d="M42 700h550v-200h-284v-60h244v-178h-244v-60h290v-202h-556v700z" />
    <glyph glyph-name="Eacute" unicode="&#xc9;" horiz-adv-x="626" 
d="M42 700h550v-200h-284v-60h244v-178h-244v-60h290v-202h-556v700zM391 745h-201l105 176h227z" />
    <glyph glyph-name="Ecaron" unicode="&#x11a;" horiz-adv-x="626" 
d="M42 700h550v-200h-284v-60h244v-178h-244v-60h290v-202h-556v700zM548 925l-134 -180h-212l-134 180h191l49 -59l49 59h191z" />
    <glyph glyph-name="Ecircumflex" unicode="&#xca;" horiz-adv-x="626" 
d="M42 700h550v-200h-284v-60h244v-178h-244v-60h290v-202h-556v700zM207 925h212l134 -180h-191l-49 59l-49 -59h-191z" />
    <glyph glyph-name="Edieresis" unicode="&#xcb;" horiz-adv-x="626" 
d="M42 700h550v-200h-284v-60h244v-178h-244v-60h290v-202h-556v700zM537 836c0 -67 -45 -105 -105 -105s-105 38 -105 105s45 105 105 105s105 -38 105 -105zM299 836c0 -67 -45 -105 -105 -105s-105 38 -105 105s45 105 105 105s105 -38 105 -105z" />
    <glyph glyph-name="Edotaccent" unicode="&#x116;" horiz-adv-x="626" 
d="M42 700h550v-200h-284v-60h244v-178h-244v-60h290v-202h-556v700zM206 840c0 73 51 105 109 105c59 0 109 -32 109 -105c0 -74 -50 -105 -109 -105c-58 0 -109 31 -109 105z" />
    <glyph glyph-name="Egrave" unicode="&#xc8;" horiz-adv-x="626" 
d="M42 700h550v-200h-284v-60h244v-178h-244v-60h290v-202h-556v700zM436 745h-201l-131 176h227z" />
    <glyph glyph-name="Emacron" unicode="&#x112;" horiz-adv-x="626" 
d="M42 700h550v-200h-284v-60h244v-178h-244v-60h290v-202h-556v700zM124 905h380v-157h-380v157z" />
    <glyph glyph-name="Eogonek" unicode="&#x118;" horiz-adv-x="626" 
d="M598 202v-202c-31 -24 -50 -53 -50 -71c0 -12 7 -20 22 -20c6 0 12 1 18 3v-135c-29 -9 -66 -14 -101 -14c-92 0 -133 49 -132 105c-1 48 40 100 83 132h-396v700h550v-200h-284v-60h244v-178h-244v-60h290z" />
    <glyph glyph-name="F" unicode="F" horiz-adv-x="598" 
d="M42 700h530v-230h-264v-60h235v-220h-235v-190h-266v700z" />
    <glyph glyph-name="G" unicode="G" horiz-adv-x="689" 
d="M18 350c0 253 191 367 387 367c89 0 171 -16 233 -41v-230c-45 26 -118 41 -177 41c-93 0 -169 -37 -169 -137s75 -124 104 -124h11v169h248v-365c-78 -30 -161 -47 -242 -47c-205 0 -395 121 -395 367z" />
    <glyph glyph-name="Gbreve" unicode="&#x11e;" horiz-adv-x="689" 
d="M18 350c0 253 191 367 387 367c89 0 171 -16 233 -41v-230c-45 26 -118 41 -177 41c-93 0 -169 -37 -169 -137s75 -124 104 -124h11v169h248v-365c-78 -30 -161 -47 -242 -47c-205 0 -395 121 -395 367zM578 798c-55 -36 -124 -55 -193 -55s-138 19 -193 55v156
c54 -33 123 -49 193 -49s139 16 193 49v-156z" />
    <glyph glyph-name="Gcommaaccent" unicode="&#x122;" horiz-adv-x="689" 
d="M18 350c0 253 191 367 387 367c89 0 171 -16 233 -41v-230c-45 26 -118 41 -177 41c-93 0 -169 -37 -169 -137s75 -124 104 -124h11v169h248v-365c-78 -30 -161 -47 -242 -47c-205 0 -395 121 -395 367zM437 -340h-183l43 280h220z" />
    <glyph glyph-name="Gdotaccent" unicode="&#x120;" horiz-adv-x="689" 
d="M18 350c0 253 191 367 387 367c89 0 171 -16 233 -41v-230c-45 26 -118 41 -177 41c-93 0 -169 -37 -169 -137s75 -124 104 -124h11v169h248v-365c-78 -30 -161 -47 -242 -47c-205 0 -395 121 -395 367zM277 840c0 73 51 105 109 105c59 0 109 -32 109 -105
c0 -74 -50 -105 -109 -105c-58 0 -109 31 -109 105z" />
    <glyph glyph-name="H" unicode="H" horiz-adv-x="752" 
d="M444 700h266v-700h-266v235h-136v-235h-266v700h266v-235h136v235z" />
    <glyph glyph-name="Hbar" unicode="&#x126;" horiz-adv-x="802" 
d="M333 0h-266v534h-66v102h66v64h266v-64h136v64h266v-64h66v-102h-66v-534h-266v235h-136v-235zM333 534v-69h136v69h-136z" />
    <glyph glyph-name="I" unicode="I" horiz-adv-x="350" 
d="M42 700h266v-700h-266v700z" />
    <glyph glyph-name="IJ" unicode="&#x132;" horiz-adv-x="870" 
d="M42 700h266v-700h-266v700zM418 700h416v-437c0 -216 -150 -273 -286 -273c-68 0 -138 9 -182 28v230c32 -11 76 -18 110 -18c45 0 92 12 92 64v176h-150v230z" />
    <glyph glyph-name="Iacute" unicode="&#xcd;" horiz-adv-x="350" 
d="M42 700h266v-700h-266v700zM252 745h-201l105 176h227z" />
    <glyph glyph-name="Icircumflex" unicode="&#xce;" horiz-adv-x="350" 
d="M42 700h266v-700h-266v700zM68 925h212l134 -180h-191l-49 59l-49 -59h-191z" />
    <glyph glyph-name="Idieresis" unicode="&#xcf;" horiz-adv-x="350" 
d="M42 700h266v-700h-266v700zM398 836c0 -67 -45 -105 -105 -105s-105 38 -105 105s45 105 105 105s105 -38 105 -105zM160 836c0 -67 -45 -105 -105 -105s-105 38 -105 105s45 105 105 105s105 -38 105 -105z" />
    <glyph glyph-name="Idotaccent" unicode="&#x130;" horiz-adv-x="350" 
d="M42 700h266v-700h-266v700zM67 840c0 73 51 105 109 105c59 0 109 -32 109 -105c0 -74 -50 -105 -109 -105c-58 0 -109 31 -109 105z" />
    <glyph glyph-name="Igrave" unicode="&#xcc;" horiz-adv-x="350" 
d="M42 700h266v-700h-266v700zM297 745h-201l-131 176h227z" />
    <glyph glyph-name="Imacron" unicode="&#x12a;" horiz-adv-x="350" 
d="M42 700h266v-700h-266v700zM-15 905h380v-157h-380v157z" />
    <glyph glyph-name="Iogonek" unicode="&#x12e;" horiz-adv-x="350" 
d="M308 700v-700c-31 -24 -50 -53 -50 -71c0 -12 7 -20 22 -20c6 0 12 1 18 3v-135c-29 -9 -66 -14 -101 -14c-92 0 -133 49 -132 105c-1 48 40 100 83 132h-106v700h266z" />
    <glyph glyph-name="J" unicode="J" horiz-adv-x="520" 
d="M68 700h416v-437c0 -216 -150 -273 -286 -273c-68 0 -138 9 -182 28v230c32 -11 76 -18 110 -18c45 0 92 12 92 64v176h-150v230z" />
    <glyph glyph-name="K" unicode="K" horiz-adv-x="744" 
d="M308 0h-266v700h266v-235h36l124 235h292l-207 -351l207 -349h-292l-132 235h-28v-235z" />
    <glyph glyph-name="Kcommaaccent" unicode="&#x136;" horiz-adv-x="744" 
d="M308 0h-266v700h266v-235h36l124 235h292l-207 -351l207 -349h-292l-132 235h-28v-235zM417 -330h-183l43 280h220z" />
    <glyph glyph-name="L" unicode="L" horiz-adv-x="603" 
d="M42 700h266v-470h284v-230h-550v700z" />
    <glyph glyph-name="Lacute" unicode="&#x139;" horiz-adv-x="603" 
d="M42 700h266v-470h284v-230h-550v700zM257 745h-201l105 176h227z" />
    <glyph glyph-name="Lcaron" unicode="&#x13d;" horiz-adv-x="609" 
d="M394 700h188l-42 -249h-162zM42 700h266v-470h284v-230h-550v700z" />
    <glyph glyph-name="Lcommaaccent" unicode="&#x13b;" horiz-adv-x="603" 
d="M42 700h266v-470h284v-230h-550v700zM359 -330h-183l43 280h220z" />
    <glyph glyph-name="Ldot" unicode="&#x13f;" horiz-adv-x="620" 
d="M583 423c0 -75 -53 -110 -114 -110c-60 0 -113 35 -113 110s53 110 113 110c61 0 114 -35 114 -110zM42 700h266v-470h284v-230h-550v700z" />
    <glyph glyph-name="Lslash" unicode="&#x141;" horiz-adv-x="663" 
d="M652 0h-550v207l-80 -27v214l80 27v279h266v-188l111 38v-214l-111 -38v-68h284v-230z" />
    <glyph glyph-name="M" unicode="M" horiz-adv-x="904" 
d="M634 700h228v-700h-256v279l-87 -137h-134l-87 139v-281h-256v700h228l182 -289z" />
    <glyph glyph-name="N" unicode="N" horiz-adv-x="762" 
d="M308 0h-266v700h211l208 -272c-7 49 -7 85 -7 122v150h266v-700h-211l-208 272c7 -49 7 -85 7 -122v-150z" />
    <glyph glyph-name="Nacute" unicode="&#x143;" horiz-adv-x="762" 
d="M308 0h-266v700h211l208 -272c-7 49 -7 85 -7 122v150h266v-700h-211l-208 272c7 -49 7 -85 7 -122v-150zM449 745h-201l105 176h227z" />
    <glyph glyph-name="Ncaron" unicode="&#x147;" horiz-adv-x="762" 
d="M308 0h-266v700h211l208 -272c-7 49 -7 85 -7 122v150h266v-700h-211l-208 272c7 -49 7 -85 7 -122v-150zM606 925l-134 -180h-212l-134 180h191l49 -59l49 59h191z" />
    <glyph glyph-name="Ncommaaccent" unicode="&#x145;" horiz-adv-x="762" 
d="M308 0h-266v700h211l208 -272c-7 49 -7 85 -7 122v150h266v-700h-211l-208 272c7 -49 7 -85 7 -122v-150zM444 -330h-183l43 280h220z" />
    <glyph glyph-name="Eng" unicode="&#x14a;" horiz-adv-x="762" 
d="M720 0c0 -146 -81 -232 -222 -232c-24 0 -52 4 -93 11v191c8 -3 18 -5 27 -5c21 0 42 11 42 38v44l-173 225c7 -49 7 -85 7 -122v-150h-266v700h211l208 -272c-7 49 -7 85 -7 122v150h266v-700z" />
    <glyph glyph-name="Ntilde" unicode="&#xd1;" horiz-adv-x="762" 
d="M308 0h-266v700h211l208 -272c-7 49 -7 85 -7 122v150h266v-700h-211l-208 272c7 -49 7 -85 7 -122v-150zM582 929c27 -106 -28 -197 -125 -197c-66 0 -107 41 -133 41c-19 0 -22 -20 -19 -35h-147c-27 106 28 197 125 197c66 0 107 -41 133 -41c19 0 22 20 19 35h147z
" />
    <glyph glyph-name="O" unicode="O" horiz-adv-x="801" 
d="M18 350c0 206 128 367 382 367s383 -161 383 -367s-129 -367 -383 -367s-382 161 -382 367zM509 350c0 84 -43 127 -109 127c-65 0 -108 -43 -108 -127s43 -127 108 -127c66 0 109 43 109 127z" />
    <glyph glyph-name="Oacute" unicode="&#xd3;" horiz-adv-x="801" 
d="M18 350c0 206 128 367 382 367s383 -161 383 -367s-129 -367 -383 -367s-382 161 -382 367zM509 350c0 84 -43 127 -109 127c-65 0 -108 -43 -108 -127s43 -127 108 -127c66 0 109 43 109 127zM477 745h-201l105 176h227z" />
    <glyph glyph-name="Ocircumflex" unicode="&#xd4;" horiz-adv-x="801" 
d="M18 350c0 206 128 367 382 367s383 -161 383 -367s-129 -367 -383 -367s-382 161 -382 367zM509 350c0 84 -43 127 -109 127c-65 0 -108 -43 -108 -127s43 -127 108 -127c66 0 109 43 109 127zM293 925h212l134 -180h-191l-49 59l-49 -59h-191z" />
    <glyph glyph-name="Odieresis" unicode="&#xd6;" horiz-adv-x="801" 
d="M18 350c0 206 128 367 382 367s383 -161 383 -367s-129 -367 -383 -367s-382 161 -382 367zM509 350c0 84 -43 127 -109 127c-65 0 -108 -43 -108 -127s43 -127 108 -127c66 0 109 43 109 127zM623 836c0 -67 -45 -105 -105 -105s-105 38 -105 105s45 105 105 105
s105 -38 105 -105zM385 836c0 -67 -45 -105 -105 -105s-105 38 -105 105s45 105 105 105s105 -38 105 -105z" />
    <glyph glyph-name="Ograve" unicode="&#xd2;" horiz-adv-x="801" 
d="M18 350c0 206 128 367 382 367s383 -161 383 -367s-129 -367 -383 -367s-382 161 -382 367zM509 350c0 84 -43 127 -109 127c-65 0 -108 -43 -108 -127s43 -127 108 -127c66 0 109 43 109 127zM522 745h-201l-131 176h227z" />
    <glyph glyph-name="Ohungarumlaut" unicode="&#x150;" horiz-adv-x="801" 
d="M18 350c0 206 128 367 382 367s383 -161 383 -367s-129 -367 -383 -367s-382 161 -382 367zM509 350c0 84 -43 127 -109 127c-65 0 -108 -43 -108 -127s43 -127 108 -127c66 0 109 43 109 127zM590 740h-185l94 177h200zM355 740h-185l79 177h200z" />
    <glyph glyph-name="Omacron" unicode="&#x14c;" horiz-adv-x="801" 
d="M18 350c0 206 128 367 382 367s383 -161 383 -367s-129 -367 -383 -367s-382 161 -382 367zM509 350c0 84 -43 127 -109 127c-65 0 -108 -43 -108 -127s43 -127 108 -127c66 0 109 43 109 127zM210 905h380v-157h-380v157z" />
    <glyph glyph-name="Oslash" unicode="&#xd8;" horiz-adv-x="801" 
d="M746 748l-83 -116c80 -66 120 -167 120 -282c0 -206 -129 -367 -383 -367c-68 0 -127 12 -177 33l-46 -64h-110l78 109c-85 67 -127 170 -127 289c0 206 128 367 382 367c73 0 135 -13 187 -37l49 68h110zM400 477c-65 0 -108 -43 -108 -127c0 -26 4 -48 12 -67l134 188
c-11 4 -24 6 -38 6zM373 226c8 -2 17 -3 27 -3c66 0 109 43 109 127c0 21 -3 40 -8 56z" />
    <glyph glyph-name="Otilde" unicode="&#xd5;" horiz-adv-x="801" 
d="M18 350c0 206 128 367 382 367s383 -161 383 -367s-129 -367 -383 -367s-382 161 -382 367zM509 350c0 84 -43 127 -109 127c-65 0 -108 -43 -108 -127s43 -127 108 -127c66 0 109 43 109 127zM610 929c27 -106 -28 -197 -125 -197c-66 0 -107 41 -133 41
c-19 0 -22 -20 -19 -35h-147c-27 106 28 197 125 197c66 0 107 -41 133 -41c19 0 22 20 19 35h147z" />
    <glyph glyph-name="OE" unicode="&#x152;" horiz-adv-x="1005" 
d="M491 0c-38 -11 -70 -17 -121 -17c-214 0 -352 161 -352 367s138 367 352 367c51 0 82 -6 121 -17h480v-200h-234v-60h194v-178h-194v-60h240v-202h-486zM291 350c0 -103 74 -127 118 -127c29 0 51 4 72 12v230c-21 8 -43 12 -72 12c-44 0 -118 -24 -118 -127z" />
    <glyph glyph-name="P" unicode="P" horiz-adv-x="703" 
d="M42 700h328c182 0 321 -67 321 -273s-139 -273 -321 -273h-62v-154h-266v700zM431 427c0 38 -22 59 -71 59h-52v-118h52c49 0 71 21 71 59z" />
    <glyph glyph-name="Thorn" unicode="&#xde;" horiz-adv-x="704" 
d="M308 623h62c182 0 321 -67 321 -273s-139 -273 -321 -273h-62v-77h-266v700h266v-77zM308 291h52c49 0 71 21 71 59s-22 59 -71 59h-52v-118z" />
    <glyph glyph-name="Q" unicode="Q" horiz-adv-x="801" 
d="M783 78l-139 -122l-62 61c-51 -22 -112 -34 -182 -34c-254 0 -382 161 -382 367s128 367 382 367s383 -161 383 -367c0 -80 -20 -154 -58 -213zM282 350c0 -94 53 -137 118 -137h8l-56 56l112 111l54 -54c1 8 1 16 1 24c0 94 -53 137 -119 137c-65 0 -118 -43 -118 -137z
" />
    <glyph glyph-name="R" unicode="R" horiz-adv-x="740" 
d="M308 0h-266v700h348c155 0 307 -60 307 -255c0 -105 -44 -171 -109 -209l169 -236h-289l-125 190h-35v-190zM308 490v-108h67c39 0 56 26 56 54s-17 54 -56 54h-67z" />
    <glyph glyph-name="Racute" unicode="&#x154;" horiz-adv-x="740" 
d="M308 0h-266v700h348c155 0 307 -60 307 -255c0 -105 -44 -171 -109 -209l169 -236h-289l-125 190h-35v-190zM308 490v-108h67c39 0 56 26 56 54s-17 54 -56 54h-67zM434 745h-201l105 176h227z" />
    <glyph glyph-name="Rcaron" unicode="&#x158;" horiz-adv-x="740" 
d="M308 0h-266v700h348c155 0 307 -60 307 -255c0 -105 -44 -171 -109 -209l169 -236h-289l-125 190h-35v-190zM308 490v-108h67c39 0 56 26 56 54s-17 54 -56 54h-67zM591 925l-134 -180h-212l-134 180h191l49 -59l49 59h191z" />
    <glyph glyph-name="Rcommaaccent" unicode="&#x156;" horiz-adv-x="740" 
d="M308 0h-266v700h348c155 0 307 -60 307 -255c0 -105 -44 -171 -109 -209l169 -236h-289l-125 190h-35v-190zM308 490v-108h67c39 0 56 26 56 54s-17 54 -56 54h-67zM415 -330h-183l43 280h220z" />
    <glyph glyph-name="S" unicode="S" horiz-adv-x="643" 
d="M28 491c0 152 126 226 283 226c95 0 199 -22 274 -60v-224c-73 42 -165 70 -240 69c-31 0 -42 -7 -42 -20c0 -59 321 -23 321 -262c0 -188 -137 -237 -305 -237c-109 0 -205 23 -284 67v237c90 -57 184 -85 254 -85c53 0 61 10 61 24c0 50 -322 25 -322 265z" />
    <glyph glyph-name="Sacute" unicode="&#x15a;" horiz-adv-x="643" 
d="M28 491c0 152 126 226 283 226c95 0 199 -22 274 -60v-224c-73 42 -165 70 -240 69c-31 0 -42 -7 -42 -20c0 -59 321 -23 321 -262c0 -188 -137 -237 -305 -237c-109 0 -205 23 -284 67v237c90 -57 184 -85 254 -85c53 0 61 10 61 24c0 50 -322 25 -322 265zM385 745
h-201l105 176h227z" />
    <glyph glyph-name="Scaron" unicode="&#x160;" horiz-adv-x="643" 
d="M28 491c0 152 126 226 283 226c95 0 199 -22 274 -60v-224c-73 42 -165 70 -240 69c-31 0 -42 -7 -42 -20c0 -59 321 -23 321 -262c0 -188 -137 -237 -305 -237c-109 0 -205 23 -284 67v237c90 -57 184 -85 254 -85c53 0 61 10 61 24c0 50 -322 25 -322 265zM542 925
l-134 -180h-212l-134 180h191l49 -59l49 59h191z" />
    <glyph glyph-name="Scedilla" unicode="&#x15e;" horiz-adv-x="643" 
d="M303 482c0 -59 321 -23 321 -262c0 -156 -94 -216 -222 -232l-11 -31c53 -7 96 -31 96 -88c0 -76 -74 -107 -164 -107c-52 0 -92 6 -128 19v112c26 -8 56 -13 81 -13c32 0 57 7 57 24c0 25 -59 26 -90 22l20 59c-86 7 -163 29 -228 65v237c90 -57 184 -85 254 -85
c53 0 61 10 61 24c0 50 -322 25 -322 265c0 152 126 226 283 226c95 0 199 -22 274 -60v-224c-73 42 -165 70 -240 69c-31 0 -42 -7 -42 -20z" />
    <glyph glyph-name="Scommaaccent" unicode="&#x218;" horiz-adv-x="643" 
d="M28 491c0 152 126 226 283 226c95 0 199 -22 274 -60v-224c-73 42 -165 70 -240 69c-31 0 -42 -7 -42 -20c0 -59 321 -23 321 -262c0 -188 -137 -237 -305 -237c-109 0 -205 23 -284 67v237c90 -57 184 -85 254 -85c53 0 61 10 61 24c0 50 -322 25 -322 265zM360 -330
h-183l43 280h220z" />
    <glyph glyph-name="T" unicode="T" horiz-adv-x="648" 
d="M11 700h626v-230h-180v-470h-266v470h-180v230z" />
    <glyph glyph-name="Tbar" unicode="&#x166;" horiz-adv-x="658" 
d="M462 0h-266v217h-107l1 150h106v103h-180v230h626v-230h-180v-103h107v-150h-107v-217z" />
    <glyph glyph-name="Tcaron" unicode="&#x164;" horiz-adv-x="648" 
d="M11 700h626v-230h-180v-470h-266v470h-180v230zM565 925l-134 -180h-212l-134 180h191l49 -59l49 59h191z" />
    <glyph glyph-name="Tcommaaccent" unicode="&#x162;" horiz-adv-x="648" 
d="M11 700h626v-230h-180v-470h-266v470h-180v230zM360 -330h-183l43 280h220z" />
    <glyph glyph-name="uni021A" unicode="&#x21a;" horiz-adv-x="648" 
d="M11 700h626v-230h-180v-470h-266v470h-180v230zM360 -330h-183l43 280h220z" />
    <glyph glyph-name="U" unicode="U" horiz-adv-x="736" 
d="M435 700h266v-424c0 -220 -158 -293 -333 -293c-174 0 -333 73 -333 293v424h266v-412c0 -42 21 -65 67 -65s67 23 67 65v412z" />
    <glyph glyph-name="Uacute" unicode="&#xda;" horiz-adv-x="736" 
d="M435 700h266v-424c0 -220 -158 -293 -333 -293c-174 0 -333 73 -333 293v424h266v-412c0 -42 21 -65 67 -65s67 23 67 65v412zM447 745h-201l105 176h227z" />
    <glyph glyph-name="Ucircumflex" unicode="&#xdb;" horiz-adv-x="736" 
d="M435 700h266v-424c0 -220 -158 -293 -333 -293c-174 0 -333 73 -333 293v424h266v-412c0 -42 21 -65 67 -65s67 23 67 65v412zM263 925h212l134 -180h-191l-49 59l-49 -59h-191z" />
    <glyph glyph-name="Udieresis" unicode="&#xdc;" horiz-adv-x="736" 
d="M435 700h266v-424c0 -220 -158 -293 -333 -293c-174 0 -333 73 -333 293v424h266v-412c0 -42 21 -65 67 -65s67 23 67 65v412zM593 836c0 -67 -45 -105 -105 -105s-105 38 -105 105s45 105 105 105s105 -38 105 -105zM355 836c0 -67 -45 -105 -105 -105s-105 38 -105 105
s45 105 105 105s105 -38 105 -105z" />
    <glyph glyph-name="Ugrave" unicode="&#xd9;" horiz-adv-x="736" 
d="M435 700h266v-424c0 -220 -158 -293 -333 -293c-174 0 -333 73 -333 293v424h266v-412c0 -42 21 -65 67 -65s67 23 67 65v412zM492 745h-201l-131 176h227z" />
    <glyph glyph-name="Uhungarumlaut" unicode="&#x170;" horiz-adv-x="736" 
d="M435 700h266v-424c0 -220 -158 -293 -333 -293c-174 0 -333 73 -333 293v424h266v-412c0 -42 21 -65 67 -65s67 23 67 65v412zM560 740h-185l94 177h200zM325 740h-185l79 177h200z" />
    <glyph glyph-name="Umacron" unicode="&#x16a;" horiz-adv-x="736" 
d="M435 700h266v-424c0 -220 -158 -293 -333 -293c-174 0 -333 73 -333 293v424h266v-412c0 -42 21 -65 67 -65s67 23 67 65v412zM180 905h380v-157h-380v157z" />
    <glyph glyph-name="Uogonek" unicode="&#x172;" horiz-adv-x="736" 
d="M574 -213c-29 -16 -66 -24 -101 -24c-95 0 -142 48 -142 109c0 35 16 74 47 111h-10c-174 0 -333 73 -333 293v424h266v-412c0 -42 21 -65 67 -65s67 23 67 65v412h266v-424c0 -108 -38 -181 -98 -226c-62 -46 -81 -87 -81 -109c0 -16 11 -25 27 -25c8 0 17 2 25 6v-135z
" />
    <glyph glyph-name="Uring" unicode="&#x16e;" horiz-adv-x="736" 
d="M435 700h266v-424c0 -220 -158 -293 -333 -293c-174 0 -333 73 -333 293v424h266v-412c0 -42 21 -65 67 -65s67 23 67 65v412zM522 857c0 -90 -68 -136 -151 -136c-80 0 -149 46 -149 136c0 86 69 134 149 134c83 0 151 -48 151 -134zM339 856c0 -18 10 -33 33 -33
c24 0 33 15 33 33s-9 33 -33 33c-23 0 -33 -15 -33 -33z" />
    <glyph glyph-name="V" unicode="V" horiz-adv-x="763" 
d="M518 0h-272l-252 700h280l108 -389l107 389h280z" />
    <glyph glyph-name="W" unicode="W" horiz-adv-x="1134" 
d="M847 700h287l-209 -700h-285l-73 291l-72 -291h-286l-209 700h286l85 -367l90 367h212l89 -367z" />
    <glyph glyph-name="Wacute" unicode="&#x1e82;" horiz-adv-x="1134" 
d="M847 700h287l-209 -700h-285l-73 291l-72 -291h-286l-209 700h286l85 -367l90 367h212l89 -367zM642 745h-201l105 176h227z" />
    <glyph glyph-name="Wcircumflex" unicode="&#x174;" horiz-adv-x="1134" 
d="M847 700h287l-209 -700h-285l-73 291l-72 -291h-286l-209 700h286l85 -367l90 367h212l89 -367zM458 925h212l134 -180h-191l-49 59l-49 -59h-191z" />
    <glyph glyph-name="Wdieresis" unicode="&#x1e84;" horiz-adv-x="1134" 
d="M847 700h287l-209 -700h-285l-73 291l-72 -291h-286l-209 700h286l85 -367l90 367h212l89 -367zM788 836c0 -67 -45 -105 -105 -105s-105 38 -105 105s45 105 105 105s105 -38 105 -105zM550 836c0 -67 -45 -105 -105 -105s-105 38 -105 105s45 105 105 105
s105 -38 105 -105z" />
    <glyph glyph-name="Wgrave" unicode="&#x1e80;" horiz-adv-x="1134" 
d="M847 700h287l-209 -700h-285l-73 291l-72 -291h-286l-209 700h286l85 -367l90 367h212l89 -367zM687 745h-201l-131 176h227z" />
    <glyph glyph-name="X" unicode="X" horiz-adv-x="762" 
d="M285 0h-310l241 358l-231 342h310l86 -162l85 162h310l-230 -342l240 -358h-310l-95 167z" />
    <glyph glyph-name="Y" unicode="Y" horiz-adv-x="774" 
d="M519 0h-264v239l-261 461h300l93 -246l94 246h300l-262 -461v-239z" />
    <glyph glyph-name="Yacute" unicode="&#xdd;" horiz-adv-x="774" 
d="M519 0h-264v239l-261 461h300l93 -246l94 246h300l-262 -461v-239zM460 745h-201l105 176h227z" />
    <glyph glyph-name="Ycircumflex" unicode="&#x176;" horiz-adv-x="774" 
d="M519 0h-264v239l-261 461h300l93 -246l94 246h300l-262 -461v-239zM276 925h212l134 -180h-191l-49 59l-49 -59h-191z" />
    <glyph glyph-name="Ydieresis" unicode="&#x178;" horiz-adv-x="774" 
d="M519 0h-264v239l-261 461h300l93 -246l94 246h300l-262 -461v-239zM606 836c0 -67 -45 -105 -105 -105s-105 38 -105 105s45 105 105 105s105 -38 105 -105zM368 836c0 -67 -45 -105 -105 -105s-105 38 -105 105s45 105 105 105s105 -38 105 -105z" />
    <glyph glyph-name="Ygrave" unicode="&#x1ef2;" horiz-adv-x="774" 
d="M519 0h-264v239l-261 461h300l93 -246l94 246h300l-262 -461v-239zM505 745h-201l-131 176h227z" />
    <glyph glyph-name="Z" unicode="Z" horiz-adv-x="661" 
d="M635 0h-609v164l226 306h-211v230h580v-164l-226 -306h240v-230z" />
    <glyph glyph-name="Zacute" unicode="&#x179;" horiz-adv-x="661" 
d="M635 0h-609v164l226 306h-211v230h580v-164l-226 -306h240v-230zM411 745h-201l105 176h227z" />
    <glyph glyph-name="Zcaron" unicode="&#x17d;" horiz-adv-x="661" 
d="M635 0h-609v164l226 306h-211v230h580v-164l-226 -306h240v-230zM568 925l-134 -180h-212l-134 180h191l49 -59l49 59h191z" />
    <glyph glyph-name="Zdotaccent" unicode="&#x17b;" horiz-adv-x="661" 
d="M635 0h-609v164l226 306h-211v230h580v-164l-226 -306h240v-230zM226 840c0 73 51 105 109 105c59 0 109 -32 109 -105c0 -74 -50 -105 -109 -105c-58 0 -109 31 -109 105z" />
    <glyph glyph-name="a" unicode="a" horiz-adv-x="580" 
d="M538 163c0 -16 9 -23 24 -23c7 0 14 1 20 2v-137c-28 -13 -85 -21 -122 -21c-52 0 -99 14 -124 49c-41 -33 -91 -50 -155 -50c-89 0 -167 45 -167 143c0 122 109 155 214 155c19 0 63 -3 88 -9v8c0 34 -28 47 -92 47c-58 0 -115 -11 -176 -32v170c51 15 135 32 204 32
c175 0 286 -43 286 -240v-94zM288 181c-21 0 -47 -8 -47 -36c0 -23 19 -31 38 -31c13 0 26 4 37 11v53c-8 2 -18 3 -28 3z" />
    <glyph glyph-name="aacute" unicode="&#xe1;" horiz-adv-x="580" 
d="M538 163c0 -16 9 -23 24 -23c7 0 14 1 20 2v-137c-28 -13 -85 -21 -122 -21c-52 0 -99 14 -124 49c-41 -33 -91 -50 -155 -50c-89 0 -167 45 -167 143c0 122 109 155 214 155c19 0 63 -3 88 -9v8c0 34 -28 47 -92 47c-58 0 -115 -11 -176 -32v170c51 15 135 32 204 32
c175 0 286 -43 286 -240v-94zM288 181c-21 0 -47 -8 -47 -36c0 -23 19 -31 38 -31c13 0 26 4 37 11v53c-8 2 -18 3 -28 3zM357 535h-201l105 176h227z" />
    <glyph glyph-name="abreve" unicode="&#x103;" horiz-adv-x="580" 
d="M538 163c0 -16 9 -23 24 -23c7 0 14 1 20 2v-137c-28 -13 -85 -21 -122 -21c-52 0 -99 14 -124 49c-41 -33 -91 -50 -155 -50c-89 0 -167 45 -167 143c0 122 109 155 214 155c19 0 63 -3 88 -9v8c0 34 -28 47 -92 47c-58 0 -115 -11 -176 -32v170c51 15 135 32 204 32
c175 0 286 -43 286 -240v-94zM288 181c-21 0 -47 -8 -47 -36c0 -23 19 -31 38 -31c13 0 26 4 37 11v53c-8 2 -18 3 -28 3zM473 588c-55 -36 -124 -55 -193 -55s-138 19 -193 55v156c54 -33 123 -49 193 -49s139 16 193 49v-156z" />
    <glyph glyph-name="acircumflex" unicode="&#xe2;" horiz-adv-x="580" 
d="M538 163c0 -16 9 -23 24 -23c7 0 14 1 20 2v-137c-28 -13 -85 -21 -122 -21c-52 0 -99 14 -124 49c-41 -33 -91 -50 -155 -50c-89 0 -167 45 -167 143c0 122 109 155 214 155c19 0 63 -3 88 -9v8c0 34 -28 47 -92 47c-58 0 -115 -11 -176 -32v170c51 15 135 32 204 32
c175 0 286 -43 286 -240v-94zM288 181c-21 0 -47 -8 -47 -36c0 -23 19 -31 38 -31c13 0 26 4 37 11v53c-8 2 -18 3 -28 3zM173 715h212l134 -180h-191l-49 59l-49 -59h-191z" />
    <glyph glyph-name="adieresis" unicode="&#xe4;" horiz-adv-x="580" 
d="M538 163c0 -16 9 -23 24 -23c7 0 14 1 20 2v-137c-28 -13 -85 -21 -122 -21c-52 0 -99 14 -124 49c-41 -33 -91 -50 -155 -50c-89 0 -167 45 -167 143c0 122 109 155 214 155c19 0 63 -3 88 -9v8c0 34 -28 47 -92 47c-58 0 -115 -11 -176 -32v170c51 15 135 32 204 32
c175 0 286 -43 286 -240v-94zM288 181c-21 0 -47 -8 -47 -36c0 -23 19 -31 38 -31c13 0 26 4 37 11v53c-8 2 -18 3 -28 3zM503 626c0 -67 -45 -105 -105 -105s-105 38 -105 105s45 105 105 105s105 -38 105 -105zM265 626c0 -67 -45 -105 -105 -105s-105 38 -105 105
s45 105 105 105s105 -38 105 -105z" />
    <glyph glyph-name="agrave" unicode="&#xe0;" horiz-adv-x="580" 
d="M538 163c0 -16 9 -23 24 -23c7 0 14 1 20 2v-137c-28 -13 -85 -21 -122 -21c-52 0 -99 14 -124 49c-41 -33 -91 -50 -155 -50c-89 0 -167 45 -167 143c0 122 109 155 214 155c19 0 63 -3 88 -9v8c0 34 -28 47 -92 47c-58 0 -115 -11 -176 -32v170c51 15 135 32 204 32
c175 0 286 -43 286 -240v-94zM288 181c-21 0 -47 -8 -47 -36c0 -23 19 -31 38 -31c13 0 26 4 37 11v53c-8 2 -18 3 -28 3zM402 535h-201l-131 176h227z" />
    <glyph glyph-name="amacron" unicode="&#x101;" horiz-adv-x="580" 
d="M538 163c0 -16 9 -23 24 -23c7 0 14 1 20 2v-137c-28 -13 -85 -21 -122 -21c-52 0 -99 14 -124 49c-41 -33 -91 -50 -155 -50c-89 0 -167 45 -167 143c0 122 109 155 214 155c19 0 63 -3 88 -9v8c0 34 -28 47 -92 47c-58 0 -115 -11 -176 -32v170c51 15 135 32 204 32
c175 0 286 -43 286 -240v-94zM288 181c-21 0 -47 -8 -47 -36c0 -23 19 -31 38 -31c13 0 26 4 37 11v53c-8 2 -18 3 -28 3zM90 695h380v-157h-380v157z" />
    <glyph glyph-name="aogonek" unicode="&#x105;" horiz-adv-x="581" 
d="M582 142v-137c-31 -24 -50 -53 -50 -71c0 -12 7 -20 22 -20c6 0 12 1 18 3v-135c-29 -9 -66 -14 -101 -14c-92 0 -133 49 -132 105c-1 41 29 85 65 117c-28 8 -52 21 -68 43c-41 -33 -91 -50 -155 -50c-89 0 -167 45 -167 143c0 122 109 155 214 155c19 0 63 -3 88 -9v8
c0 34 -28 47 -92 47c-58 0 -115 -11 -176 -32v170c51 15 135 32 204 32c175 0 286 -43 286 -240v-94c0 -16 9 -23 24 -23c7 0 14 1 20 2zM279 114c13 0 26 4 37 11v53c-8 2 -18 3 -28 3c-21 0 -47 -8 -47 -36c0 -23 19 -31 38 -31z" />
    <glyph glyph-name="aring" unicode="&#xe5;" horiz-adv-x="580" 
d="M538 163c0 -16 9 -23 24 -23c7 0 14 1 20 2v-137c-28 -13 -85 -21 -122 -21c-52 0 -99 14 -124 49c-41 -33 -91 -50 -155 -50c-89 0 -167 45 -167 143c0 122 109 155 214 155c19 0 63 -3 88 -9v8c0 34 -28 47 -92 47c-58 0 -115 -11 -176 -32v170c51 15 135 32 204 32
c175 0 286 -43 286 -240v-94zM288 181c-21 0 -47 -8 -47 -36c0 -23 19 -31 38 -31c13 0 26 4 37 11v53c-8 2 -18 3 -28 3zM432 647c0 -90 -68 -136 -151 -136c-80 0 -149 46 -149 136c0 86 69 134 149 134c83 0 151 -48 151 -134zM249 646c0 -18 10 -33 33 -33
c24 0 33 15 33 33s-9 33 -33 33c-23 0 -33 -15 -33 -33z" />
    <glyph glyph-name="atilde" unicode="&#xe3;" horiz-adv-x="580" 
d="M538 163c0 -16 9 -23 24 -23c7 0 14 1 20 2v-137c-28 -13 -85 -21 -122 -21c-52 0 -99 14 -124 49c-41 -33 -91 -50 -155 -50c-89 0 -167 45 -167 143c0 122 109 155 214 155c19 0 63 -3 88 -9v8c0 34 -28 47 -92 47c-58 0 -115 -11 -176 -32v170c51 15 135 32 204 32
c175 0 286 -43 286 -240v-94zM288 181c-21 0 -47 -8 -47 -36c0 -23 19 -31 38 -31c13 0 26 4 37 11v53c-8 2 -18 3 -28 3zM490 719c27 -106 -28 -197 -125 -197c-66 0 -107 41 -133 41c-19 0 -22 -20 -19 -35h-147c-27 106 28 197 125 197c66 0 107 -41 133 -41
c19 0 22 20 19 35h147z" />
    <glyph glyph-name="ae" unicode="&#xe6;" horiz-adv-x="824" 
d="M404 47c-57 -44 -113 -64 -214 -64c-89 0 -177 45 -177 143c0 122 109 155 214 155c29 0 73 -3 98 -9v8c0 34 -38 47 -92 47c-58 0 -120 -11 -181 -32v170c51 15 135 32 204 32c74 0 133 -15 165 -51c45 34 100 51 157 51c194 0 252 -170 224 -303h-281
c15 -32 68 -49 123 -49s102 5 137 14v-154c-50 -14 -100 -22 -170 -22c-75 0 -152 17 -207 64zM250 146c0 -23 19 -32 38 -32c17 0 37 5 56 18c-5 14 -9 28 -13 44c-10 4 -22 5 -34 5c-21 0 -47 -7 -47 -35zM572 348c-38 0 -55 -29 -55 -58h101c4 31 -11 58 -46 58z" />
    <glyph glyph-name="b" unicode="b" horiz-adv-x="627" 
d="M33 700h242v-242c29 24 71 39 122 39c148 0 212 -119 212 -257s-64 -257 -212 -257c-61 0 -114 30 -151 70v-53h-213v700zM359 240c0 33 -14 65 -49 65c-16 0 -30 -8 -35 -14v-102c6 -6 20 -14 35 -14c35 0 49 32 49 65z" />
    <glyph glyph-name="c" unicode="c" horiz-adv-x="487" 
d="M16 224c0 198 144 275 291 275c50 0 101 -10 148 -25v-195c-28 12 -66 22 -101 22c-47 0 -88 -16 -88 -61s39 -59 84 -59c42 0 83 9 110 19v-193c-51 -15 -107 -24 -168 -24c-142 0 -276 67 -276 241z" />
    <glyph glyph-name="cacute" unicode="&#x107;" horiz-adv-x="487" 
d="M16 224c0 198 144 275 291 275c50 0 101 -10 148 -25v-195c-28 12 -66 22 -101 22c-47 0 -88 -16 -88 -61s39 -59 84 -59c42 0 83 9 110 19v-193c-51 -15 -107 -24 -168 -24c-142 0 -276 67 -276 241zM344 525h-201l105 176h227z" />
    <glyph glyph-name="ccaron" unicode="&#x10d;" horiz-adv-x="487" 
d="M16 224c0 198 144 275 291 275c50 0 101 -10 148 -25v-195c-28 12 -66 22 -101 22c-47 0 -88 -16 -88 -61s39 -59 84 -59c42 0 83 9 110 19v-193c-51 -15 -107 -24 -168 -24c-142 0 -276 67 -276 241zM501 705l-134 -180h-212l-134 180h191l49 -59l49 59h191z" />
    <glyph glyph-name="ccedilla" unicode="&#xe7;" horiz-adv-x="487" 
d="M460 200v-193c-29 -8 -59 -15 -90 -19l-11 -31c53 -7 96 -31 96 -88c0 -76 -74 -107 -164 -107c-52 0 -92 6 -128 19v112c26 -8 56 -13 81 -13c32 0 57 7 57 24c0 25 -59 26 -90 22l21 61c-118 17 -216 88 -216 237c0 198 144 275 291 275c50 0 101 -10 148 -25v-195
c-28 12 -66 22 -101 22c-47 0 -88 -16 -88 -61s39 -59 84 -59c42 0 83 9 110 19z" />
    <glyph glyph-name="cdotaccent" unicode="&#x10b;" horiz-adv-x="487" 
d="M16 224c0 198 144 275 291 275c50 0 101 -10 148 -25v-195c-28 12 -66 22 -101 22c-47 0 -88 -16 -88 -61s39 -59 84 -59c42 0 83 9 110 19v-193c-51 -15 -107 -24 -168 -24c-142 0 -276 67 -276 241zM159 620c0 73 51 105 109 105c59 0 109 -32 109 -105
c0 -74 -50 -105 -109 -105c-58 0 -109 31 -109 105z" />
    <glyph glyph-name="d" unicode="d" horiz-adv-x="627" 
d="M352 700h242v-700h-213v53c-37 -40 -90 -70 -151 -70c-148 0 -212 119 -212 257s64 257 212 257c51 0 93 -15 122 -39v242zM352 291c-5 6 -19 14 -35 14c-35 0 -49 -32 -49 -65s14 -65 49 -65c15 0 29 8 35 14v102z" />
    <glyph glyph-name="eth" unicode="&#xf0;" horiz-adv-x="570" 
d="M550 297c0 -235 -126 -314 -268 -314c-147 0 -268 68 -268 232c0 143 102 206 199 206c48 0 96 -14 129 -52c0 14 -3 30 -10 46c-12 29 -37 58 -74 81l-61 -61l-63 64l33 33c-27 7 -58 10 -92 10v195c94 0 177 -18 245 -52l63 63l63 -64l-48 -48
c98 -78 152 -197 152 -339zM237 209c0 -34 19 -50 45 -50s45 16 45 50s-19 50 -45 50s-45 -16 -45 -50z" />
    <glyph glyph-name="dcaron" unicode="&#x10f;" horiz-adv-x="653" 
d="M638 700h188l-42 -219h-162zM352 700h242v-700h-213v53c-37 -40 -90 -70 -151 -70c-148 0 -212 119 -212 257s64 257 212 257c51 0 93 -15 122 -39v242zM352 291c-5 6 -19 14 -35 14c-35 0 -49 -32 -49 -65s14 -65 49 -65c15 0 29 8 35 14v102z" />
    <glyph glyph-name="dcroat" unicode="&#x111;" horiz-adv-x="627" 
d="M594 638h68v-105h-68v-533h-213v53c-37 -40 -90 -70 -151 -70c-148 0 -212 119 -212 257s64 257 212 257c51 0 93 -15 122 -39v75h-120v105h120v62h242v-62zM317 175c15 0 29 8 35 14v102c-5 6 -19 14 -35 14c-35 0 -49 -32 -49 -65s14 -65 49 -65z" />
    <glyph glyph-name="e" unicode="e" horiz-adv-x="546" 
d="M16 245c0 188 154 252 263 252c224 0 272 -170 244 -303h-281c15 -32 68 -49 123 -49c50 0 97 5 139 16v-154c-48 -16 -98 -24 -172 -24c-151 0 -316 62 -316 262zM339 288c4 31 -11 58 -46 58c-38 0 -55 -29 -55 -58h101z" />
    <glyph glyph-name="eacute" unicode="&#xe9;" horiz-adv-x="546" 
d="M16 245c0 188 154 252 263 252c224 0 272 -170 244 -303h-281c15 -32 68 -49 123 -49c50 0 97 5 139 16v-154c-48 -16 -98 -24 -172 -24c-151 0 -316 62 -316 262zM339 288c4 31 -11 58 -46 58c-38 0 -55 -29 -55 -58h101zM353 525h-201l105 176h227z" />
    <glyph glyph-name="ecaron" unicode="&#x11b;" horiz-adv-x="546" 
d="M16 245c0 188 154 252 263 252c224 0 272 -170 244 -303h-281c15 -32 68 -49 123 -49c50 0 97 5 139 16v-154c-48 -16 -98 -24 -172 -24c-151 0 -316 62 -316 262zM339 288c4 31 -11 58 -46 58c-38 0 -55 -29 -55 -58h101zM510 705l-134 -180h-212l-134 180h191l49 -59
l49 59h191z" />
    <glyph glyph-name="ecircumflex" unicode="&#xea;" horiz-adv-x="546" 
d="M16 245c0 188 154 252 263 252c224 0 272 -170 244 -303h-281c15 -32 68 -49 123 -49c50 0 97 5 139 16v-154c-48 -16 -98 -24 -172 -24c-151 0 -316 62 -316 262zM339 288c4 31 -11 58 -46 58c-38 0 -55 -29 -55 -58h101zM169 705h212l134 -180h-191l-49 59l-49 -59
h-191z" />
    <glyph glyph-name="edieresis" unicode="&#xeb;" horiz-adv-x="546" 
d="M16 245c0 188 154 252 263 252c224 0 272 -170 244 -303h-281c15 -32 68 -49 123 -49c50 0 97 5 139 16v-154c-48 -16 -98 -24 -172 -24c-151 0 -316 62 -316 262zM339 288c4 31 -11 58 -46 58c-38 0 -55 -29 -55 -58h101zM499 616c0 -67 -45 -105 -105 -105
s-105 38 -105 105s45 105 105 105s105 -38 105 -105zM261 616c0 -67 -45 -105 -105 -105s-105 38 -105 105s45 105 105 105s105 -38 105 -105z" />
    <glyph glyph-name="edotaccent" unicode="&#x117;" horiz-adv-x="546" 
d="M16 245c0 188 154 252 263 252c224 0 272 -170 244 -303h-281c15 -32 68 -49 123 -49c50 0 97 5 139 16v-154c-48 -16 -98 -24 -172 -24c-151 0 -316 62 -316 262zM339 288c4 31 -11 58 -46 58c-38 0 -55 -29 -55 -58h101zM168 620c0 73 51 105 109 105
c59 0 109 -32 109 -105c0 -74 -50 -105 -109 -105c-58 0 -109 31 -109 105z" />
    <glyph glyph-name="egrave" unicode="&#xe8;" horiz-adv-x="546" 
d="M16 245c0 188 154 252 263 252c224 0 272 -170 244 -303h-281c15 -32 68 -49 123 -49c50 0 97 5 139 16v-154c-48 -16 -98 -24 -172 -24c-151 0 -316 62 -316 262zM339 288c4 31 -11 58 -46 58c-38 0 -55 -29 -55 -58h101zM398 525h-201l-131 176h227z" />
    <glyph glyph-name="emacron" unicode="&#x113;" horiz-adv-x="546" 
d="M16 245c0 188 154 252 263 252c224 0 272 -170 244 -303h-281c15 -32 68 -49 123 -49c50 0 97 5 139 16v-154c-48 -16 -98 -24 -172 -24c-151 0 -316 62 -316 262zM339 288c4 31 -11 58 -46 58c-38 0 -55 -29 -55 -58h101zM86 685h380v-157h-380v157z" />
    <glyph glyph-name="eogonek" unicode="&#x119;" horiz-adv-x="547" 
d="M480 -223c-29 -9 -66 -14 -101 -14c-92 0 -133 49 -132 105c-1 40 28 84 69 115c-19 1 -38 2 -57 5c-127 19 -243 89 -243 257c0 188 154 252 263 252c224 0 272 -170 244 -303h-281c15 -32 68 -49 123 -49c50 0 97 5 139 16v-154c-41 -25 -66 -52 -66 -76
c0 -13 7 -22 24 -22c6 0 12 1 18 3v-135zM293 346c-38 0 -55 -29 -55 -58h101c4 31 -11 58 -46 58z" />
    <glyph glyph-name="f" unicode="f" horiz-adv-x="420" 
d="M322 0h-242v290h-60v190h60v39c0 153 119 198 214 198c54 0 96 -9 125 -19v-177c-15 9 -33 13 -49 13c-26 0 -48 -11 -48 -40v-14h87v-190h-87v-290z" />
    <glyph glyph-name="g" unicode="g" horiz-adv-x="627" 
d="M18 250c0 138 64 247 212 247c61 0 114 -30 151 -70v53h213v-441c0 -202 -145 -276 -300 -276c-97 0 -153 10 -227 38v196c53 -26 107 -38 176 -38c61 0 109 16 109 64v19c-29 -24 -71 -39 -122 -39c-148 0 -212 109 -212 247zM352 296c-6 6 -20 14 -35 14
c-35 0 -49 -32 -49 -65s14 -65 49 -65c16 0 30 8 35 14v102z" />
    <glyph glyph-name="gbreve" unicode="&#x11f;" horiz-adv-x="627" 
d="M18 250c0 138 64 247 212 247c61 0 114 -30 151 -70v53h213v-441c0 -202 -145 -276 -300 -276c-97 0 -153 10 -227 38v196c53 -26 107 -38 176 -38c61 0 109 16 109 64v19c-29 -24 -71 -39 -122 -39c-148 0 -212 109 -212 247zM352 296c-6 6 -20 14 -35 14
c-35 0 -49 -32 -49 -65s14 -65 49 -65c16 0 30 8 35 14v102zM512 578c-55 -36 -124 -55 -193 -55s-138 19 -193 55v156c54 -33 123 -49 193 -49s139 16 193 49v-156z" />
    <glyph glyph-name="gcommaaccent" unicode="&#x123;" horiz-adv-x="627" 
d="M412 529h-198l52 219h172zM18 250c0 138 64 247 212 247c61 0 114 -30 151 -70v53h213v-441c0 -202 -145 -276 -300 -276c-97 0 -153 10 -227 38v196c53 -26 107 -38 176 -38c61 0 109 16 109 64v19c-29 -24 -71 -39 -122 -39c-148 0 -212 109 -212 247zM352 296
c-6 6 -20 14 -35 14c-35 0 -49 -32 -49 -65s14 -65 49 -65c16 0 30 8 35 14v102z" />
    <glyph glyph-name="gdotaccent" unicode="&#x121;" horiz-adv-x="627" 
d="M18 250c0 138 64 247 212 247c61 0 114 -30 151 -70v53h213v-441c0 -202 -145 -276 -300 -276c-97 0 -153 10 -227 38v196c53 -26 107 -38 176 -38c61 0 109 16 109 64v19c-29 -24 -71 -39 -122 -39c-148 0 -212 109 -212 247zM352 296c-6 6 -20 14 -35 14
c-35 0 -49 -32 -49 -65s14 -65 49 -65c16 0 30 8 35 14v102zM211 620c0 73 51 105 109 105c59 0 109 -32 109 -105c0 -74 -50 -105 -109 -105c-58 0 -109 31 -109 105z" />
    <glyph glyph-name="h" unicode="h" horiz-adv-x="597" 
d="M33 700h242v-238c35 24 72 35 113 35c132 0 180 -97 180 -177v-320h-242v273c0 17 -11 23 -25 23c-12 0 -21 -5 -26 -9v-287h-242v700z" />
    <glyph glyph-name="hbar" unicode="&#x127;" horiz-adv-x="597" 
d="M275 462c35 24 72 35 113 35c132 0 180 -97 180 -177v-320h-242v273c0 17 -11 23 -25 23c-12 0 -21 -5 -26 -9v-287h-242v533h-66v105h66v62h242v-62h122v-105h-122v-71z" />
    <glyph glyph-name="i" unicode="i" horiz-adv-x="308" 
d="M275 0h-242v480h242v-480zM274 629c0 -78 -56 -115 -120 -115s-120 37 -120 115s56 115 120 115s120 -37 120 -115z" />
    <glyph glyph-name="dotlessi" unicode="&#x131;" horiz-adv-x="309" 
d="M33 480h243v-480h-243v480z" />
    <glyph glyph-name="iacute" unicode="&#xed;" horiz-adv-x="309" 
d="M33 480h243v-480h-243v480zM231 525h-201l105 176h227z" />
    <glyph glyph-name="icircumflex" unicode="&#xee;" horiz-adv-x="309" 
d="M47 705h212l114 -180h-181l-39 69l-39 -69h-181zM33 480h243v-480h-243v480z" />
    <glyph glyph-name="idieresis" unicode="&#xef;" horiz-adv-x="309" 
d="M355 616c0 -64 -43 -100 -100 -100s-100 36 -100 100s43 100 100 100s100 -36 100 -100zM137 616c0 -64 -43 -100 -100 -100s-100 36 -100 100s43 100 100 100s100 -36 100 -100zM33 480h243v-480h-243v480z" />
    <glyph glyph-name="i.loclTRK" horiz-adv-x="309" 
d="M33 480h243v-480h-243v480zM46 620c0 73 51 105 109 105c59 0 109 -32 109 -105c0 -74 -50 -105 -109 -105c-58 0 -109 31 -109 105z" />
    <glyph glyph-name="igrave" unicode="&#xec;" horiz-adv-x="309" 
d="M276 0h-243v480h243v-480zM266 525h-201l-81 176h227z" />
    <glyph glyph-name="ij" unicode="&#x133;" horiz-adv-x="616" 
d="M275 0h-242v480h242v-480zM274 629c0 -78 -56 -115 -120 -115s-120 37 -120 115s56 115 120 115s120 -37 120 -115zM583 -46c0 -139 -102 -191 -216 -191c-39 0 -76 5 -107 15v194c9 -2 21 -3 35 -3c29 0 46 12 46 47v464h242v-526zM582 629c0 -78 -56 -115 -120 -115
s-120 37 -120 115s56 115 120 115s120 -37 120 -115z" />
    <glyph glyph-name="imacron" unicode="&#x12b;" horiz-adv-x="309" 
d="M-6 695h320v-150h-320v150zM33 480h243v-480h-243v480z" />
    <glyph glyph-name="iogonek" unicode="&#x12f;" horiz-adv-x="309" 
d="M274 629c0 -78 -56 -115 -120 -115s-120 37 -120 115s56 115 120 115s120 -37 120 -115zM276 480v-480c-31 -24 -50 -53 -50 -71c0 -12 7 -20 22 -20c7 0 12 1 18 3v-125c-31 -17 -68 -24 -101 -24c-92 1 -132 49 -132 105c0 48 40 100 93 132h-93v480h243z" />
    <glyph glyph-name="j" unicode="j" horiz-adv-x="308" 
d="M275 -46c0 -139 -102 -191 -216 -191c-39 0 -76 5 -107 15v194c9 -2 21 -3 35 -3c29 0 46 12 46 47v464h242v-526zM274 629c0 -78 -56 -115 -120 -115s-120 37 -120 115s56 115 120 115s120 -37 120 -115z" />
    <glyph glyph-name="k" unicode="k" horiz-adv-x="624" 
d="M632 0h-260l-71 147h-26v-147h-242v700h242v-363h26l70 143h260l-142 -238z" />
    <glyph glyph-name="kcommaaccent" unicode="&#x137;" horiz-adv-x="624" 
d="M632 0h-260l-71 147h-26v-147h-242v700h242v-363h26l70 143h260l-142 -238zM361 -330h-183l43 280h220z" />
    <glyph glyph-name="l" unicode="l" horiz-adv-x="308" 
d="M33 730h242v-730h-242v730z" />
    <glyph glyph-name="lacute" unicode="&#x13a;" horiz-adv-x="308" 
d="M33 730h242v-730h-242v730zM242 780h-201l105 176h227z" />
    <glyph glyph-name="lcaron" unicode="&#x13e;" horiz-adv-x="334" 
d="M319 730h188l-42 -249h-162zM33 730h242v-730h-242v730z" />
    <glyph glyph-name="lcommaaccent" unicode="&#x13c;" horiz-adv-x="308" 
d="M33 730h242v-730h-242v730zM175 -330h-183l43 280h220z" />
    <glyph glyph-name="ldot" unicode="&#x140;" horiz-adv-x="563" 
d="M33 730h242v-730h-242v730zM563 350c0 -84 -60 -124 -129 -124c-68 0 -128 40 -128 124s60 124 128 124c69 0 129 -40 129 -124z" />
    <glyph glyph-name="lslash" unicode="&#x142;" horiz-adv-x="414" 
d="M86 730h242v-275l68 25v-178l-68 -24v-278h-242v183l-68 -25v178l68 24v370z" />
    <glyph glyph-name="m" unicode="m" horiz-adv-x="864" 
d="M271 0h-238v480h213v-41c29 32 90 58 145 58c66 0 108 -22 133 -62c37 38 96 62 149 62c113 0 162 -74 162 -200v-297h-238v278c0 13 -9 18 -20 18s-18 -4 -24 -7v-17v-272h-238v278c0 13 -9 18 -20 18s-18 -4 -24 -7v-289z" />
    <glyph glyph-name="n" unicode="n" horiz-adv-x="597" 
d="M245 438c43 40 90 59 143 59c132 0 180 -97 180 -177v-320h-242v273c0 17 -11 23 -25 23c-12 0 -21 -5 -26 -9v-287h-242v480h212v-42z" />
    <glyph glyph-name="nacute" unicode="&#x144;" horiz-adv-x="597" 
d="M245 438c43 40 90 59 143 59c132 0 180 -97 180 -177v-320h-242v273c0 17 -11 23 -25 23c-12 0 -21 -5 -26 -9v-287h-242v480h212v-42zM365 525h-201l105 176h227z" />
    <glyph glyph-name="ncaron" unicode="&#x148;" horiz-adv-x="597" 
d="M245 438c43 40 90 59 143 59c132 0 180 -97 180 -177v-320h-242v273c0 17 -11 23 -25 23c-12 0 -21 -5 -26 -9v-287h-242v480h212v-42zM522 705l-134 -180h-212l-134 180h191l49 -59l49 59h191z" />
    <glyph glyph-name="ncommaaccent" unicode="&#x146;" horiz-adv-x="597" 
d="M245 438c43 40 90 59 143 59c132 0 180 -97 180 -177v-320h-242v273c0 17 -11 23 -25 23c-12 0 -21 -5 -26 -9v-287h-242v480h212v-42zM338 -330h-183l43 280h220z" />
    <glyph glyph-name="eng" unicode="&#x14b;" horiz-adv-x="597" 
d="M568 -39c0 -156 -112 -198 -203 -198c-36 0 -70 6 -90 16v179c6 -1 13 -2 19 -2c17 0 32 10 32 43v274c0 17 -11 23 -25 23c-12 0 -21 -5 -26 -9v-287h-242v480h212v-42c43 40 90 59 143 59c132 0 180 -97 180 -177v-359z" />
    <glyph glyph-name="ntilde" unicode="&#xf1;" horiz-adv-x="597" 
d="M245 438c43 40 90 59 143 59c132 0 180 -97 180 -177v-320h-242v273c0 17 -11 23 -25 23c-12 0 -21 -5 -26 -9v-287h-242v480h212v-42zM498 709c27 -106 -28 -197 -125 -197c-66 0 -107 41 -133 41c-19 0 -22 -20 -19 -35h-147c-27 106 28 197 125 197
c66 0 107 -41 133 -41c19 0 22 20 19 35h147z" />
    <glyph glyph-name="o" unicode="o" horiz-adv-x="595" 
d="M16 240c0 175 126 257 281 257s282 -82 282 -257s-127 -257 -282 -257s-281 82 -281 257zM349 240c0 38 -12 64 -52 64c-39 0 -51 -26 -51 -64s12 -64 51 -64c40 0 52 26 52 64z" />
    <glyph glyph-name="oacute" unicode="&#xf3;" horiz-adv-x="595" 
d="M16 240c0 175 126 257 281 257s282 -82 282 -257s-127 -257 -282 -257s-281 82 -281 257zM349 240c0 38 -12 64 -52 64c-39 0 -51 -26 -51 -64s12 -64 51 -64c40 0 52 26 52 64zM374 525h-201l105 176h227z" />
    <glyph glyph-name="ocircumflex" unicode="&#xf4;" horiz-adv-x="595" 
d="M16 240c0 175 126 257 281 257s282 -82 282 -257s-127 -257 -282 -257s-281 82 -281 257zM349 240c0 38 -12 64 -52 64c-39 0 -51 -26 -51 -64s12 -64 51 -64c40 0 52 26 52 64zM190 705h212l134 -180h-191l-49 59l-49 -59h-191z" />
    <glyph glyph-name="odieresis" unicode="&#xf6;" horiz-adv-x="595" 
d="M16 240c0 175 126 257 281 257s282 -82 282 -257s-127 -257 -282 -257s-281 82 -281 257zM349 240c0 38 -12 64 -52 64c-39 0 -51 -26 -51 -64s12 -64 51 -64c40 0 52 26 52 64zM520 616c0 -67 -45 -105 -105 -105s-105 38 -105 105s45 105 105 105s105 -38 105 -105z
M282 616c0 -67 -45 -105 -105 -105s-105 38 -105 105s45 105 105 105s105 -38 105 -105z" />
    <glyph glyph-name="ograve" unicode="&#xf2;" horiz-adv-x="595" 
d="M16 240c0 175 126 257 281 257s282 -82 282 -257s-127 -257 -282 -257s-281 82 -281 257zM349 240c0 38 -12 64 -52 64c-39 0 -51 -26 -51 -64s12 -64 51 -64c40 0 52 26 52 64zM419 525h-201l-131 176h227z" />
    <glyph glyph-name="ohungarumlaut" unicode="&#x151;" horiz-adv-x="595" 
d="M16 240c0 175 126 257 281 257s282 -82 282 -257s-127 -257 -282 -257s-281 82 -281 257zM349 240c0 38 -12 64 -52 64c-39 0 -51 -26 -51 -64s12 -64 51 -64c40 0 52 26 52 64zM487 520h-185l94 177h200zM252 520h-185l79 177h200z" />
    <glyph glyph-name="omacron" unicode="&#x14d;" horiz-adv-x="595" 
d="M16 240c0 175 126 257 281 257s282 -82 282 -257s-127 -257 -282 -257s-281 82 -281 257zM349 240c0 38 -12 64 -52 64c-39 0 -51 -26 -51 -64s12 -64 51 -64c40 0 52 26 52 64zM107 685h380v-157h-380v157z" />
    <glyph glyph-name="oslash" unicode="&#xf8;" horiz-adv-x="595" 
d="M516 543l-55 -85c71 -40 118 -112 118 -218c0 -175 -127 -257 -282 -257c-46 0 -90 7 -128 22l-45 -70h-43l55 85c-73 40 -120 113 -120 220c0 175 126 257 281 257c47 0 92 -8 131 -23l45 69h43zM297 304c-39 0 -51 -26 -51 -64c0 -15 2 -28 7 -39l64 100
c-6 2 -12 3 -20 3zM281 178c4 -1 10 -2 16 -2c40 0 52 26 52 64c0 14 -2 26 -5 36z" />
    <glyph glyph-name="otilde" unicode="&#xf5;" horiz-adv-x="595" 
d="M16 240c0 175 126 257 281 257s282 -82 282 -257s-127 -257 -282 -257s-281 82 -281 257zM349 240c0 38 -12 64 -52 64c-39 0 -51 -26 -51 -64s12 -64 51 -64c40 0 52 26 52 64zM507 709c27 -106 -28 -197 -125 -197c-66 0 -107 41 -133 41c-19 0 -22 -20 -19 -35h-147
c-27 106 28 197 125 197c66 0 107 -41 133 -41c19 0 22 20 19 35h147z" />
    <glyph glyph-name="oe" unicode="&#x153;" horiz-adv-x="888" 
d="M466 57c-40 -51 -108 -74 -178 -74c-155 0 -271 82 -271 257s116 257 271 257c66 0 129 -23 173 -70c48 48 113 70 180 70c204 0 252 -170 224 -303h-281c15 -32 68 -49 123 -49c61 0 108 7 138 16v-154c-45 -14 -95 -24 -161 -24c-82 0 -164 19 -218 74zM247 240
c0 -38 12 -64 51 -64c40 0 52 26 52 64s-12 64 -52 64c-39 0 -51 -26 -51 -64zM635 346c-38 0 -55 -29 -55 -58h101c4 31 -11 58 -46 58z" />
    <glyph glyph-name="p" unicode="p" horiz-adv-x="627" 
d="M246 427c37 40 90 70 151 70c148 0 212 -119 212 -257s-64 -257 -212 -257c-51 0 -93 15 -122 39v-242h-242v700h213v-53zM359 240c0 33 -14 65 -49 65c-15 0 -29 -8 -35 -14v-102c5 -6 19 -14 35 -14c35 0 49 32 49 65z" />
    <glyph glyph-name="thorn" unicode="&#xfe;" horiz-adv-x="627" 
d="M33 700h242v-242c29 24 71 39 122 39c148 0 212 -119 212 -257s-64 -257 -212 -257c-51 0 -93 15 -122 39v-242h-242v920zM359 240c0 33 -14 65 -49 65c-16 0 -30 -8 -35 -14v-102c5 -6 19 -14 35 -14c35 0 49 32 49 65z" />
    <glyph glyph-name="q" unicode="q" horiz-adv-x="627" 
d="M18 240c0 138 64 257 212 257c61 0 114 -30 151 -70v53h213v-700h-242v242c-29 -24 -71 -39 -122 -39c-148 0 -212 119 -212 257zM352 291c-6 6 -20 14 -35 14c-35 0 -49 -32 -49 -65s14 -65 49 -65c16 0 30 8 35 14v102z" />
    <glyph glyph-name="r" unicode="r" horiz-adv-x="430" 
d="M246 431c29 36 70 71 172 59v-223c-45 18 -112 16 -143 -5v-262h-242v480h213v-49z" />
    <glyph glyph-name="racute" unicode="&#x155;" horiz-adv-x="430" 
d="M246 431c29 36 70 71 172 59v-223c-45 18 -112 16 -143 -5v-262h-242v480h213v-49zM295 525h-201l105 176h227z" />
    <glyph glyph-name="rcaron" unicode="&#x159;" horiz-adv-x="430" 
d="M246 431c29 36 70 71 172 59v-223c-45 18 -112 16 -143 -5v-262h-242v480h213v-49zM452 705l-134 -180h-212l-134 180h191l49 -59l49 59h191z" />
    <glyph glyph-name="rcommaaccent" unicode="&#x157;" horiz-adv-x="430" 
d="M246 431c29 36 70 71 172 59v-223c-45 18 -112 16 -143 -5v-262h-242v480h213v-49zM173 -330h-183l43 280h220z" />
    <glyph glyph-name="s" unicode="s" horiz-adv-x="495" 
d="M23 342c0 119 109 155 223 155c85 0 141 -16 195 -41v-158c-40 21 -96 38 -139 38c-16 0 -25 -4 -25 -12c0 -40 204 -19 204 -180c0 -128 -119 -161 -244 -161c-90 0 -152 12 -208 41v181c56 -42 127 -55 165 -55c29 0 35 5 35 13c0 37 -206 23 -206 179z" />
    <glyph glyph-name="sacute" unicode="&#x15b;" horiz-adv-x="495" 
d="M23 342c0 119 109 155 223 155c85 0 141 -16 195 -41v-158c-40 21 -96 38 -139 38c-16 0 -25 -4 -25 -12c0 -40 204 -19 204 -180c0 -128 -119 -161 -244 -161c-90 0 -152 12 -208 41v181c56 -42 127 -55 165 -55c29 0 35 5 35 13c0 37 -206 23 -206 179zM317 525h-201
l105 176h227z" />
    <glyph glyph-name="scaron" unicode="&#x161;" horiz-adv-x="495" 
d="M23 342c0 119 109 155 223 155c85 0 141 -16 195 -41v-158c-40 21 -96 38 -139 38c-16 0 -25 -4 -25 -12c0 -40 204 -19 204 -180c0 -128 -119 -161 -244 -161c-90 0 -152 12 -208 41v181c56 -42 127 -55 165 -55c29 0 35 5 35 13c0 37 -206 23 -206 179zM474 705
l-134 -180h-212l-134 180h191l49 -59l49 59h191z" />
    <glyph glyph-name="scedilla" unicode="&#x15f;" horiz-adv-x="495" 
d="M277 324c0 -40 204 -19 204 -180c0 -96 -67 -138 -152 -154l-12 -33c53 -7 96 -31 96 -88c0 -76 -74 -107 -164 -107c-52 0 -92 6 -128 19v112c26 -8 56 -13 81 -13c32 0 57 7 57 24c0 25 -59 26 -90 22l20 58c-65 4 -115 16 -160 40v181c56 -42 127 -55 165 -55
c29 0 35 5 35 13c0 37 -206 23 -206 179c0 119 109 155 223 155c85 0 141 -16 195 -41v-158c-40 21 -96 38 -139 38c-16 0 -25 -4 -25 -12z" />
    <glyph glyph-name="scommaaccent" unicode="&#x219;" horiz-adv-x="495" 
d="M23 342c0 119 109 155 223 155c85 0 141 -16 195 -41v-158c-40 21 -96 38 -139 38c-16 0 -25 -4 -25 -12c0 -40 204 -19 204 -180c0 -128 -119 -161 -244 -161c-90 0 -152 12 -208 41v181c56 -42 127 -55 165 -55c29 0 35 5 35 13c0 37 -206 23 -206 179zM286 -330h-183
l43 280h220z" />
    <glyph glyph-name="germandbls" unicode="&#xdf;" horiz-adv-x="640" 
d="M631 136c0 -108 -72 -153 -169 -153c-42 0 -89 10 -137 24v188c10 -4 25 -8 38 -8c20 0 38 8 38 30c0 39 -89 90 -89 153c0 53 35 67 35 115c0 13 -10 33 -33 33c-25 0 -39 -15 -39 -40v-478h-242v467c0 145 96 249 276 250c185 1 255 -103 255 -178
c0 -72 -60 -101 -60 -153c0 -59 127 -127 127 -250z" />
    <glyph glyph-name="t" unicode="t" horiz-adv-x="440" 
d="M80 604l243 56v-180h89v-190h-89v-75c0 -30 26 -35 52 -35c15 0 31 2 42 5v-185c-50 -12 -96 -18 -140 -18c-93 0 -197 33 -197 198v110h-60v190h60v124z" />
    <glyph glyph-name="tbar" unicode="&#x167;" horiz-adv-x="440" 
d="M323 209c0 -24 26 -29 52 -29c15 0 31 2 42 5v-185c-50 -12 -96 -18 -140 -18c-93 0 -197 33 -197 198v32h-35v60h35v28h-60v180h60v124l243 56v-180h89v-180h-89v-28h72v-60h-72v-3z" />
    <glyph glyph-name="tcaron" unicode="&#x165;" horiz-adv-x="440" 
d="M383 776h188l-42 -249h-162zM80 604l243 56v-180h89v-190h-89v-75c0 -30 26 -35 52 -35c15 0 31 2 42 5v-185c-50 -12 -96 -18 -140 -18c-93 0 -197 33 -197 198v110h-60v190h60v124z" />
    <glyph glyph-name="tcommaaccent" unicode="&#x163;" horiz-adv-x="440" 
d="M80 604l243 56v-180h89v-190h-89v-75c0 -30 26 -35 52 -35c15 0 31 2 42 5v-185c-50 -12 -96 -18 -140 -18c-93 0 -197 33 -197 198v110h-60v190h60v124zM295 -330h-183l43 280h220z" />
    <glyph glyph-name="uni021B" unicode="&#x21b;" horiz-adv-x="440" 
d="M80 604l243 56v-180h89v-190h-89v-75c0 -30 26 -35 52 -35c15 0 31 2 42 5v-185c-50 -12 -96 -18 -140 -18c-93 0 -197 33 -197 198v110h-60v190h60v124zM295 -330h-183l43 280h220z" />
    <glyph glyph-name="u" unicode="u" horiz-adv-x="597" 
d="M322 480h242v-480h-212v42c-43 -40 -90 -59 -143 -59c-132 0 -180 97 -180 177v320h242v-273c0 -17 11 -23 25 -23c12 0 21 5 26 9v287z" />
    <glyph glyph-name="uacute" unicode="&#xfa;" horiz-adv-x="597" 
d="M322 480h242v-480h-212v42c-43 -40 -90 -59 -143 -59c-132 0 -180 97 -180 177v320h242v-273c0 -17 11 -23 25 -23c12 0 21 5 26 9v287zM374 525h-201l105 176h227z" />
    <glyph glyph-name="ucircumflex" unicode="&#xfb;" horiz-adv-x="597" 
d="M322 480h242v-480h-212v42c-43 -40 -90 -59 -143 -59c-132 0 -180 97 -180 177v320h242v-273c0 -17 11 -23 25 -23c12 0 21 5 26 9v287zM190 705h212l134 -180h-191l-49 59l-49 -59h-191z" />
    <glyph glyph-name="udieresis" unicode="&#xfc;" horiz-adv-x="597" 
d="M322 480h242v-480h-212v42c-43 -40 -90 -59 -143 -59c-132 0 -180 97 -180 177v320h242v-273c0 -17 11 -23 25 -23c12 0 21 5 26 9v287zM520 616c0 -67 -45 -105 -105 -105s-105 38 -105 105s45 105 105 105s105 -38 105 -105zM282 616c0 -67 -45 -105 -105 -105
s-105 38 -105 105s45 105 105 105s105 -38 105 -105z" />
    <glyph glyph-name="ugrave" unicode="&#xf9;" horiz-adv-x="597" 
d="M322 480h242v-480h-212v42c-43 -40 -90 -59 -143 -59c-132 0 -180 97 -180 177v320h242v-273c0 -17 11 -23 25 -23c12 0 21 5 26 9v287zM419 525h-201l-131 176h227z" />
    <glyph glyph-name="uhungarumlaut" unicode="&#x171;" horiz-adv-x="597" 
d="M322 480h242v-480h-212v42c-43 -40 -90 -59 -143 -59c-132 0 -180 97 -180 177v320h242v-273c0 -17 11 -23 25 -23c12 0 21 5 26 9v287zM487 520h-185l94 177h200zM252 520h-185l79 177h200z" />
    <glyph glyph-name="umacron" unicode="&#x16b;" horiz-adv-x="597" 
d="M322 480h242v-480h-212v42c-43 -40 -90 -59 -143 -59c-132 0 -180 97 -180 177v320h242v-273c0 -17 11 -23 25 -23c12 0 21 5 26 9v287zM107 685h380v-157h-380v157z" />
    <glyph glyph-name="uogonek" unicode="&#x173;" horiz-adv-x="597" 
d="M564 480v-480c-31 -24 -50 -53 -50 -71c0 -12 7 -20 22 -20c6 0 12 1 18 3v-135c-29 -9 -66 -14 -101 -14c-92 0 -133 49 -132 105c-1 48 40 100 83 132h-52v42c-43 -40 -90 -59 -143 -59c-132 0 -180 97 -180 177v320h242v-273c0 -17 11 -23 25 -23c12 0 21 5 26 9v287
h242z" />
    <glyph glyph-name="uring" unicode="&#x16f;" horiz-adv-x="597" 
d="M322 480h242v-480h-212v42c-43 -40 -90 -59 -143 -59c-132 0 -180 97 -180 177v320h242v-273c0 -17 11 -23 25 -23c12 0 21 5 26 9v287zM449 637c0 -90 -68 -136 -151 -136c-80 0 -149 46 -149 136c0 86 69 134 149 134c83 0 151 -48 151 -134zM266 636
c0 -18 10 -33 33 -33c24 0 33 15 33 33s-9 33 -33 33c-23 0 -33 -15 -33 -33z" />
    <glyph glyph-name="v" unicode="v" horiz-adv-x="619" 
d="M368 480h252l-182 -480h-257l-182 480h253l58 -261z" />
    <glyph glyph-name="w" unicode="w" horiz-adv-x="854" 
d="M609 480h241l-147 -480h-225l-51 203l-51 -203h-225l-147 480h241l45 -246l58 246h158l58 -246z" />
    <glyph glyph-name="wacute" unicode="&#x1e83;" horiz-adv-x="854" 
d="M609 480h241l-147 -480h-225l-51 203l-51 -203h-225l-147 480h241l45 -246l58 246h158l58 -246zM504 525h-201l105 176h227z" />
    <glyph glyph-name="wcircumflex" unicode="&#x175;" horiz-adv-x="854" 
d="M609 480h241l-147 -480h-225l-51 203l-51 -203h-225l-147 480h241l45 -246l58 246h158l58 -246zM320 705h212l134 -180h-191l-49 59l-49 -59h-191z" />
    <glyph glyph-name="wdieresis" unicode="&#x1e85;" horiz-adv-x="854" 
d="M609 480h241l-147 -480h-225l-51 203l-51 -203h-225l-147 480h241l45 -246l58 246h158l58 -246zM650 616c0 -67 -45 -105 -105 -105s-105 38 -105 105s45 105 105 105s105 -38 105 -105zM412 616c0 -67 -45 -105 -105 -105s-105 38 -105 105s45 105 105 105
s105 -38 105 -105z" />
    <glyph glyph-name="wgrave" unicode="&#x1e81;" horiz-adv-x="854" 
d="M609 480h241l-147 -480h-225l-51 203l-51 -203h-225l-147 480h241l45 -246l58 246h158l58 -246zM549 525h-201l-131 176h227z" />
    <glyph glyph-name="x" unicode="x" horiz-adv-x="586" 
d="M348 480h244l-149 -241l154 -239h-253l-51 99l-51 -99h-253l154 239l-149 241h244l55 -107z" />
    <glyph glyph-name="y" unicode="y" horiz-adv-x="626" 
d="M327 238l54 242h244l-169 -492c-59 -172 -174 -224 -283 -224c-45 0 -81 7 -119 19v194c24 -7 46 -12 75 -12c33 0 61 11 81 39l-216 476h248z" />
    <glyph glyph-name="yacute" unicode="&#xfd;" horiz-adv-x="626" 
d="M327 238l54 242h244l-169 -492c-59 -172 -174 -224 -283 -224c-45 0 -81 7 -119 19v194c24 -7 46 -12 75 -12c33 0 61 11 81 39l-216 476h248zM384 525h-201l105 176h227z" />
    <glyph glyph-name="ycircumflex" unicode="&#x177;" horiz-adv-x="626" 
d="M327 238l54 242h244l-169 -492c-59 -172 -174 -224 -283 -224c-45 0 -81 7 -119 19v194c24 -7 46 -12 75 -12c33 0 61 11 81 39l-216 476h248zM200 705h212l134 -180h-191l-49 59l-49 -59h-191z" />
    <glyph glyph-name="ydieresis" unicode="&#xff;" horiz-adv-x="626" 
d="M327 238l54 242h244l-169 -492c-59 -172 -174 -224 -283 -224c-45 0 -81 7 -119 19v194c24 -7 46 -12 75 -12c33 0 61 11 81 39l-216 476h248zM530 616c0 -67 -45 -105 -105 -105s-105 38 -105 105s45 105 105 105s105 -38 105 -105zM292 616c0 -67 -45 -105 -105 -105
s-105 38 -105 105s45 105 105 105s105 -38 105 -105z" />
    <glyph glyph-name="ygrave" unicode="&#x1ef3;" horiz-adv-x="626" 
d="M327 238l54 242h244l-169 -492c-59 -172 -174 -224 -283 -224c-45 0 -81 7 -119 19v194c24 -7 46 -12 75 -12c33 0 61 11 81 39l-216 476h248zM429 525h-201l-131 176h227z" />
    <glyph glyph-name="z" unicode="z" horiz-adv-x="512" 
d="M39 480h434v-143l-142 -147h156v-190h-464v143l142 147h-126v190z" />
    <glyph glyph-name="zacute" unicode="&#x17a;" horiz-adv-x="512" 
d="M39 480h434v-143l-142 -147h156v-190h-464v143l142 147h-126v190zM345 525h-201l105 176h227z" />
    <glyph glyph-name="zcaron" unicode="&#x17e;" horiz-adv-x="512" 
d="M39 480h434v-143l-142 -147h156v-190h-464v143l142 147h-126v190zM502 705l-134 -180h-212l-134 180h191l49 -59l49 59h191z" />
    <glyph glyph-name="zdotaccent" unicode="&#x17c;" horiz-adv-x="512" 
d="M39 480h434v-143l-142 -147h156v-190h-464v143l142 147h-126v190zM160 620c0 73 51 105 109 105c59 0 109 -32 109 -105c0 -74 -50 -105 -109 -105c-58 0 -109 31 -109 105z" />
    <glyph glyph-name="a.ss01" horiz-adv-x="627" 
d="M381 53c-37 -40 -90 -70 -151 -70c-148 0 -212 119 -212 257s64 257 212 257c61 0 114 -30 151 -70v53h213v-480h-213v53zM268 240c0 -33 14 -65 49 -65c15 0 29 8 35 14v102c-6 6 -20 14 -35 14c-35 0 -49 -32 -49 -65z" />
    <glyph glyph-name="aacute.ss01" horiz-adv-x="627" 
d="M381 53c-37 -40 -90 -70 -151 -70c-148 0 -212 119 -212 257s64 257 212 257c61 0 114 -30 151 -70v53h213v-480h-213v53zM268 240c0 -33 14 -65 49 -65c15 0 29 8 35 14v102c-6 6 -20 14 -35 14c-35 0 -49 -32 -49 -65zM396 525h-201l105 176h227z" />
    <glyph glyph-name="abreve.ss01" horiz-adv-x="627" 
d="M381 53c-37 -40 -90 -70 -151 -70c-148 0 -212 119 -212 257s64 257 212 257c61 0 114 -30 151 -70v53h213v-480h-213v53zM268 240c0 -33 14 -65 49 -65c15 0 29 8 35 14v102c-6 6 -20 14 -35 14c-35 0 -49 -32 -49 -65zM512 578c-55 -36 -124 -55 -193 -55
s-138 19 -193 55v156c54 -33 123 -49 193 -49s139 16 193 49v-156z" />
    <glyph glyph-name="acircumflex.ss01" horiz-adv-x="627" 
d="M381 53c-37 -40 -90 -70 -151 -70c-148 0 -212 119 -212 257s64 257 212 257c61 0 114 -30 151 -70v53h213v-480h-213v53zM268 240c0 -33 14 -65 49 -65c15 0 29 8 35 14v102c-6 6 -20 14 -35 14c-35 0 -49 -32 -49 -65zM212 705h212l134 -180h-191l-49 59l-49 -59h-191z
" />
    <glyph glyph-name="adieresis.ss01" horiz-adv-x="627" 
d="M381 53c-37 -40 -90 -70 -151 -70c-148 0 -212 119 -212 257s64 257 212 257c61 0 114 -30 151 -70v53h213v-480h-213v53zM268 240c0 -33 14 -65 49 -65c15 0 29 8 35 14v102c-6 6 -20 14 -35 14c-35 0 -49 -32 -49 -65zM542 616c0 -67 -45 -105 -105 -105
s-105 38 -105 105s45 105 105 105s105 -38 105 -105zM304 616c0 -67 -45 -105 -105 -105s-105 38 -105 105s45 105 105 105s105 -38 105 -105z" />
    <glyph glyph-name="agrave.ss01" horiz-adv-x="627" 
d="M381 53c-37 -40 -90 -70 -151 -70c-148 0 -212 119 -212 257s64 257 212 257c61 0 114 -30 151 -70v53h213v-480h-213v53zM268 240c0 -33 14 -65 49 -65c15 0 29 8 35 14v102c-6 6 -20 14 -35 14c-35 0 -49 -32 -49 -65zM441 525h-201l-131 176h227z" />
    <glyph glyph-name="amacron.ss01" horiz-adv-x="627" 
d="M381 53c-37 -40 -90 -70 -151 -70c-148 0 -212 119 -212 257s64 257 212 257c61 0 114 -30 151 -70v53h213v-480h-213v53zM268 240c0 -33 14 -65 49 -65c15 0 29 8 35 14v102c-6 6 -20 14 -35 14c-35 0 -49 -32 -49 -65zM129 685h380v-157h-380v157z" />
    <glyph glyph-name="aogonek.ss01" horiz-adv-x="627" 
d="M594 480v-480c-31 -24 -50 -53 -50 -71c0 -12 7 -20 22 -20c6 0 12 1 18 3v-135c-29 -9 -66 -14 -101 -14c-92 0 -133 49 -132 105c-1 48 40 100 83 132h-53v53c-37 -40 -90 -70 -151 -70c-148 0 -212 119 -212 257s64 257 212 257c61 0 114 -30 151 -70v53h213zM317 175
c15 0 29 8 35 14v102c-6 6 -20 14 -35 14c-35 0 -49 -32 -49 -65s14 -65 49 -65z" />
    <glyph glyph-name="aring.ss01" horiz-adv-x="627" 
d="M381 53c-37 -40 -90 -70 -151 -70c-148 0 -212 119 -212 257s64 257 212 257c61 0 114 -30 151 -70v53h213v-480h-213v53zM268 240c0 -33 14 -65 49 -65c15 0 29 8 35 14v102c-6 6 -20 14 -35 14c-35 0 -49 -32 -49 -65zM471 637c0 -90 -68 -136 -151 -136
c-80 0 -149 46 -149 136c0 86 69 134 149 134c83 0 151 -48 151 -134zM288 636c0 -18 10 -33 33 -33c24 0 33 15 33 33s-9 33 -33 33c-23 0 -33 -15 -33 -33z" />
    <glyph glyph-name="atilde.ss01" horiz-adv-x="627" 
d="M381 53c-37 -40 -90 -70 -151 -70c-148 0 -212 119 -212 257s64 257 212 257c61 0 114 -30 151 -70v53h213v-480h-213v53zM268 240c0 -33 14 -65 49 -65c15 0 29 8 35 14v102c-6 6 -20 14 -35 14c-35 0 -49 -32 -49 -65zM529 709c27 -106 -28 -197 -125 -197
c-66 0 -107 41 -133 41c-19 0 -22 -20 -19 -35h-147c-27 106 28 197 125 197c66 0 107 -41 133 -41c19 0 22 20 19 35h147z" />
    <glyph glyph-name="ae.ss01" horiz-adv-x="909" 
d="M381 53c-37 -40 -90 -70 -151 -70c-148 0 -212 119 -212 257s64 257 212 257c61 0 114 -30 151 -70v53h203v-45c36 42 88 62 136 62c171 0 191 -170 163 -303h-281c15 -32 68 -49 123 -49c45 0 92 5 122 14v-154c-28 -12 -66 -22 -106 -22c-55 0 -113 18 -157 71v-54
h-203v53zM268 240c0 -33 14 -65 49 -65c15 0 29 8 35 14v102c-6 6 -20 14 -35 14c-35 0 -49 -32 -49 -65zM653 346c-38 0 -55 -29 -55 -58h101c4 31 -11 58 -46 58z" />
    <glyph glyph-name="y.ss01" horiz-adv-x="597" 
d="M564 39c0 -197 -145 -276 -290 -276c-77 0 -153 7 -217 25v203c37 -20 101 -32 156 -32c61 0 109 16 109 64v15c-35 -24 -72 -35 -113 -35c-132 0 -180 97 -180 177v300h242v-273c0 -17 11 -23 25 -23c12 0 21 5 26 9v287h242v-441z" />
    <glyph glyph-name="yacute.ss01" horiz-adv-x="597" 
d="M564 39c0 -197 -145 -276 -290 -276c-77 0 -153 7 -217 25v203c37 -20 101 -32 156 -32c61 0 109 16 109 64v15c-35 -24 -72 -35 -113 -35c-132 0 -180 97 -180 177v300h242v-273c0 -17 11 -23 25 -23c12 0 21 5 26 9v287h242v-441zM374 525h-201l105 176h227z" />
    <glyph glyph-name="ycircumflex.ss01" horiz-adv-x="597" 
d="M564 39c0 -197 -145 -276 -290 -276c-77 0 -153 7 -217 25v203c37 -20 101 -32 156 -32c61 0 109 16 109 64v15c-35 -24 -72 -35 -113 -35c-132 0 -180 97 -180 177v300h242v-273c0 -17 11 -23 25 -23c12 0 21 5 26 9v287h242v-441zM190 705h212l134 -180h-191l-49 59
l-49 -59h-191z" />
    <glyph glyph-name="ydieresis.ss01" horiz-adv-x="597" 
d="M564 39c0 -197 -145 -276 -290 -276c-77 0 -153 7 -217 25v203c37 -20 101 -32 156 -32c61 0 109 16 109 64v15c-35 -24 -72 -35 -113 -35c-132 0 -180 97 -180 177v300h242v-273c0 -17 11 -23 25 -23c12 0 21 5 26 9v287h242v-441zM520 616c0 -67 -45 -105 -105 -105
s-105 38 -105 105s45 105 105 105s105 -38 105 -105zM282 616c0 -67 -45 -105 -105 -105s-105 38 -105 105s45 105 105 105s105 -38 105 -105z" />
    <glyph glyph-name="ygrave.ss01" horiz-adv-x="597" 
d="M564 39c0 -197 -145 -276 -290 -276c-77 0 -153 7 -217 25v203c37 -20 101 -32 156 -32c61 0 109 16 109 64v15c-35 -24 -72 -35 -113 -35c-132 0 -180 97 -180 177v300h242v-273c0 -17 11 -23 25 -23c12 0 21 5 26 9v287h242v-441zM419 525h-201l-131 176h227z" />
    <glyph glyph-name="f_b" horiz-adv-x="1034" 
d="M682 458c29 24 71 39 122 39c148 0 212 -119 212 -257s-64 -257 -212 -257c-61 0 -114 30 -151 70v-53h-213v522c-19 6 -38 10 -55 9c-36 -1 -63 -15 -63 -42v-9h67v-190h-67v-290h-242v290h-60v190h60v26c0 145 106 220 245 220c47 0 97 -8 149 -23l208 17v-262z
M682 189c6 -6 20 -14 35 -14c35 0 49 32 49 65s-14 65 -49 65c-16 0 -30 -8 -35 -14v-102z" />
    <glyph glyph-name="f_f_b" horiz-adv-x="1394" 
d="M1042 458c29 24 71 39 122 39c148 0 212 -119 212 -257s-64 -257 -212 -257c-61 0 -114 30 -151 70v-53h-213v532c-19 6 -38 10 -55 9c-36 -1 -63 -15 -63 -52v-9h67v-190h-67v-290h-242v290h-118v-290h-242v290h-60v190h60v29c0 135 107 202 234 202
c58 0 121 -13 181 -45c44 46 112 70 190 70c47 0 97 -8 149 -23l208 17v-272zM440 480v26v12c-21 10 -44 15 -67 15c-29 0 -51 -15 -51 -39v-14h118zM1042 189c6 -6 20 -14 35 -14c35 0 49 32 49 65s-14 65 -49 65c-16 0 -30 -8 -35 -14v-102z" />
    <glyph glyph-name="f_f_h" horiz-adv-x="1364" 
d="M1042 462c35 24 72 35 113 35c132 0 180 -97 180 -177v-320h-242v273c0 17 -11 23 -25 23c-12 0 -21 -5 -26 -9v-287h-242v532c-19 6 -38 10 -55 9c-36 -1 -63 -15 -63 -52v-9h67v-190h-67v-290h-242v290h-118v-290h-242v290h-60v190h60v29c0 135 107 202 234 202
c58 0 121 -13 181 -45c44 46 112 70 190 70c47 0 97 -8 149 -23l208 17v-268zM440 480v26v12c-21 10 -44 15 -67 15c-29 0 -51 -15 -51 -39v-14h118z" />
    <glyph glyph-name="f_f_j" horiz-adv-x="1059" 
d="M1026 -49c0 -139 -102 -191 -206 -191c-37 0 -74 7 -107 19v200c7 -2 16 -3 25 -3c23 0 46 10 46 47v267h-102v-290h-242v290h-118v-290h-242v290h-60v190h60v29c0 135 107 202 234 202c59 0 123 -13 183 -46c50 49 128 71 216 71c65 0 136 -13 205 -36v-183
c-61 18 -113 26 -153 26c-53 0 -83 -18 -83 -52v-11h344v-529zM322 494v-14h118v26v12c-21 10 -44 15 -67 15c-29 0 -51 -15 -51 -39z" />
    <glyph glyph-name="f_f_k" horiz-adv-x="1391" 
d="M1398 480l-142 -238l143 -242h-260l-71 147h-26v-147h-242v532c-19 6 -38 10 -55 9c-36 -1 -63 -15 -63 -52v-9h67v-190h-67v-290h-242v290h-118v-290h-242v290h-60v190h60v29c0 135 107 202 234 202c58 0 121 -13 181 -45c44 46 112 70 190 70c47 0 97 -8 149 -23
l208 17v-393h26l70 143h260zM440 480v26v12c-21 10 -44 15 -67 15c-29 0 -51 -15 -51 -39v-14h118z" />
    <glyph glyph-name="f_h" horiz-adv-x="1004" 
d="M682 462c35 24 72 35 113 35c132 0 180 -97 180 -177v-320h-242v273c0 17 -11 23 -25 23c-12 0 -21 -5 -26 -9v-287h-242v522c-19 6 -38 10 -55 9c-36 -1 -63 -15 -63 -42v-9h67v-190h-67v-290h-242v290h-60v190h60v26c0 145 106 220 245 220c47 0 97 -8 149 -23l208 17
v-258z" />
    <glyph glyph-name="f_i" horiz-adv-x="699" 
d="M322 480h344v-480h-242v290h-102v-290h-242v290h-60v190h60v36c0 154 121 220 273 220c65 0 136 -13 205 -36v-183c-61 18 -113 26 -153 26c-53 0 -83 -18 -83 -52v-11z" />
    <glyph glyph-name="f_j" horiz-adv-x="699" 
d="M322 480h344v-529c0 -139 -102 -191 -206 -191c-37 0 -74 7 -107 19v200c7 -2 16 -3 25 -3c23 0 46 10 46 47v267h-102v-290h-242v290h-60v190h60v36c0 154 121 220 273 220c65 0 136 -13 205 -36v-183c-61 18 -113 26 -153 26c-53 0 -83 -18 -83 -52v-11z" />
    <glyph glyph-name="f_k" horiz-adv-x="1031" 
d="M1038 480l-142 -238l143 -242h-260l-71 147h-26v-147h-242v522c-19 6 -38 10 -55 9c-36 -1 -63 -15 -63 -42v-9h67v-190h-67v-290h-242v290h-60v190h60v26c0 145 106 220 245 220c47 0 97 -8 149 -23l208 17v-383h26l70 143h260z" />
    <glyph glyph-name="f_l" horiz-adv-x="715" 
d="M325 736c47 0 97 -8 149 -23l208 17v-730h-242v532c-19 6 -38 10 -55 9c-36 -1 -63 -15 -63 -52v-9h67v-190h-67v-290h-242v290h-60v190h60v36c0 145 106 220 245 220z" />
    <glyph glyph-name="uni0410" unicode="&#x410;" horiz-adv-x="776" 
d="M263 0h-269l251 700h286l251 -700h-269l-23 80h-204zM367 368l-31 -108h103l-30 108c-9 33 -17 70 -21 105c-4 -35 -12 -72 -21 -105z" />
    <glyph glyph-name="uni0411" unicode="&#x411;" horiz-adv-x="684" 
d="M308 446h92c132 0 271 -37 271 -223s-139 -223 -271 -223h-358v700h570v-200h-304v-54zM308 174h42c37 0 61 11 61 49s-24 49 -61 49h-42v-98z" />
    <glyph glyph-name="uni0412" unicode="&#x412;" horiz-adv-x="708" 
d="M42 700h377c161 0 250 -54 250 -177c0 -68 -21 -119 -97 -150c88 -27 125 -87 125 -170c0 -159 -128 -203 -286 -203h-369v700zM431 235c0 23 -12 45 -46 45h-77v-90h77c34 0 46 22 46 45zM418 470c0 20 -12 42 -44 42h-66v-84h66c32 0 44 22 44 42z" />
    <glyph glyph-name="uni0413" unicode="&#x413;" horiz-adv-x="592" 
d="M308 0h-266v700h540v-230h-274v-470z" />
    <glyph glyph-name="uni0414" unicode="&#x414;" horiz-adv-x="863" 
d="M255 -129h-240v349h86c86 162 97 319 97 480h556v-480h92v-349h-240v129h-351v-129zM429 480c-9 -108 -21 -183 -58 -260h123v260h-65z" />
    <glyph glyph-name="uni0415" unicode="&#x415;" horiz-adv-x="626" 
d="M42 700h550v-200h-284v-60h244v-178h-244v-60h290v-202h-556v700z" />
    <glyph glyph-name="uni0401" unicode="&#x401;" horiz-adv-x="626" 
d="M537 836c0 -67 -45 -105 -105 -105s-105 38 -105 105s45 105 105 105s105 -38 105 -105zM299 836c0 -67 -45 -105 -105 -105s-105 38 -105 105s45 105 105 105s105 -38 105 -105zM42 700h550v-200h-284v-60h244v-178h-244v-60h290v-202h-556v700z" />
    <glyph glyph-name="uni0416" unicode="&#x416;" horiz-adv-x="1070" 
d="M282 0h-292l177 349l-177 351h292l98 -235h22v235h266v-235h22l98 235h292l-177 -351l177 -349h-292l-105 235h-15v-235h-266v235h-15z" />
    <glyph glyph-name="uni0417" unicode="&#x417;" horiz-adv-x="634" 
d="M616 193c0 -166 -156 -210 -310 -210c-63 0 -158 8 -278 47v228c78 -38 172 -54 239 -54c49 0 83 9 83 35c0 16 -12 26 -34 26h-168v174h143c26 0 32 11 32 23c0 23 -27 32 -65 32c-66 0 -167 -25 -218 -51v228c98 38 190 46 243 46c193 0 305 -65 305 -201
c0 -63 -31 -123 -106 -149c90 -33 134 -85 134 -174z" />
    <glyph glyph-name="uni0418" unicode="&#x418;" horiz-adv-x="762" 
d="M720 0h-266v150c0 37 0 73 7 122l-208 -272h-211v700h266v-150c0 -37 0 -73 -7 -122l208 272h211v-700z" />
    <glyph glyph-name="uni0419" unicode="&#x419;" horiz-adv-x="762" 
d="M454 0h266v700h-211l-208 -272c7 49 7 85 7 122v150h-266v-700h211l208 272c-7 -49 -7 -85 -7 -122v-150zM583 798c-55 -36 -124 -55 -193 -55s-138 19 -193 55v156c54 -33 123 -49 193 -49s139 16 193 49v-156z" />
    <glyph glyph-name="uni041A" unicode="&#x41a;" horiz-adv-x="744" 
d="M308 0h-266v700h266v-235h36l124 235h292l-207 -351l207 -349h-292l-132 235h-28v-235z" />
    <glyph glyph-name="uni041B" unicode="&#x41b;" horiz-adv-x="762" 
d="M156 700h564v-700h-266v470h-56c-15 -225 -61 -486 -282 -486c-46 0 -86 5 -120 16v230c35 -11 66 -6 87 13c75 68 63 297 73 457z" />
    <glyph glyph-name="uni041C" unicode="&#x41c;" horiz-adv-x="904" 
d="M634 700h228v-700h-256v279l-87 -137h-134l-87 139v-281h-256v700h228l182 -289z" />
    <glyph glyph-name="uni041D" unicode="&#x41d;" horiz-adv-x="752" 
d="M444 700h266v-700h-266v235h-136v-235h-266v700h266v-235h136v235z" />
    <glyph glyph-name="uni041E" unicode="&#x41e;" horiz-adv-x="801" 
d="M18 350c0 206 128 367 382 367s383 -161 383 -367s-129 -367 -383 -367s-382 161 -382 367zM509 350c0 84 -43 127 -109 127c-65 0 -108 -43 -108 -127s43 -127 108 -127c66 0 109 43 109 127z" />
    <glyph glyph-name="uni041F" unicode="&#x41f;" horiz-adv-x="761" 
d="M307 0h-265v700h677v-700h-266v470h-146v-470z" />
    <glyph glyph-name="uni0420" unicode="&#x420;" horiz-adv-x="705" 
d="M42 700h328c182 0 321 -67 321 -273s-139 -273 -321 -273h-62v-154h-266v700zM431 427c0 38 -22 59 -71 59h-52v-118h52c49 0 71 21 71 59z" />
    <glyph glyph-name="uni0421" unicode="&#x421;" horiz-adv-x="648" 
d="M20 345c-1 267 193 372 387 372c72 0 146 -14 208 -41v-230c-36 20 -99 41 -161 41c-84 0 -160 -37 -160 -142c0 -90 74 -128 154 -128c72 0 139 15 172 41v-234c-63 -28 -131 -41 -205 -41c-204 0 -395 104 -395 362z" />
    <glyph glyph-name="uni0422" unicode="&#x422;" horiz-adv-x="648" 
d="M11 700h626v-230h-180v-470h-266v470h-180v230z" />
    <glyph glyph-name="uni0423" unicode="&#x423;" horiz-adv-x="739" 
d="M492 161c-59 -126 -136 -177 -267 -177c-42 0 -88 8 -139 22v211c26 -9 56 -14 83 -14c32 0 61 9 73 34l10 21l-260 442h280l107 -241l85 241h279z" />
    <glyph glyph-name="uni0424" unicode="&#x424;" horiz-adv-x="902" 
d="M569 -52h-236v92c-208 18 -331 130 -331 310s123 292 331 310v92h236v-92c208 -18 331 -130 331 -310s-123 -292 -331 -310v-92zM262 350c0 -47 17 -93 76 -103v206c-59 -10 -76 -56 -76 -103zM564 453v-206c59 10 76 56 76 103s-17 93 -76 103z" />
    <glyph glyph-name="uni0425" unicode="&#x425;" horiz-adv-x="762" 
d="M285 0h-310l241 358l-231 342h310l86 -162l85 162h310l-230 -342l240 -358h-310l-95 167z" />
    <glyph glyph-name="uni0427" unicode="&#x427;" horiz-adv-x="713" 
d="M671 0h-266v209c-35 -12 -79 -19 -127 -19c-146 0 -253 77 -253 236v274h266v-233c0 -38 30 -49 61 -49c20 0 40 5 53 11v271h266v-700z" />
    <glyph glyph-name="uni0426" unicode="&#x426;" horiz-adv-x="816" 
d="M794 -129h-240v129h-512v700h266v-470h138v470h266v-470h82v-359z" />
    <glyph glyph-name="uni0428" unicode="&#x428;" horiz-adv-x="1030" 
d="M988 0h-946v700h266v-470h74v470h266v-470h74v470h266v-700z" />
    <glyph glyph-name="uni0429" unicode="&#x429;" horiz-adv-x="1092" 
d="M1070 -129h-240v129h-788v700h266v-470h74v470h266v-470h74v470h266v-470h82v-359z" />
    <glyph glyph-name="uni042F" unicode="&#x42f;" horiz-adv-x="738" 
d="M285 0h-299l172 243c-74 41 -117 108 -117 202c0 195 152 255 307 255h348v-700h-266v190h-17zM307 436c0 -28 19 -54 62 -54h61v108h-61c-43 0 -62 -26 -62 -54z" />
    <glyph glyph-name="uni042C" unicode="&#x42c;" horiz-adv-x="683" 
d="M370 0h-328v700h266v-184h62c152 0 301 -52 301 -258s-149 -258 -301 -258zM308 302v-88h52c29 0 51 16 51 44s-22 44 -51 44h-52z" />
    <glyph glyph-name="uni042A" unicode="&#x42a;" horiz-adv-x="800" 
d="M487 0h-328v470h-146v230h412v-184h62c152 0 301 -52 301 -258s-149 -258 -301 -258zM425 302v-88h52c29 0 51 16 51 44s-22 44 -51 44h-52z" />
    <glyph glyph-name="uni042B" unicode="&#x42b;" horiz-adv-x="1018" 
d="M370 0h-328v700h266v-184h62c152 0 301 -52 301 -258s-149 -258 -301 -258zM308 302v-88h52c29 0 51 16 51 44s-22 44 -51 44h-52zM976 0h-266v700h266v-700z" />
    <glyph glyph-name="uni042D" unicode="&#x42d;" horiz-adv-x="645" 
d="M31 676c62 27 136 41 208 41c194 0 388 -105 387 -372c0 -258 -191 -362 -395 -362c-69 0 -137 13 -200 41v214c35 -26 106 -41 177 -41c68 0 122 16 151 59h-230v190h228c-30 45 -85 61 -155 61c-66 0 -133 -21 -171 -41v210z" />
    <glyph glyph-name="uni042E" unicode="&#x42e;" horiz-adv-x="1124" 
d="M1106 350c0 -206 -129 -367 -383 -367c-196 0 -317 104 -357 252h-58v-235h-266v700h266v-235h58c40 148 161 252 357 252c254 0 383 -161 383 -367zM615 350c0 -84 43 -127 108 -127c66 0 109 43 109 127s-43 127 -109 127c-65 0 -108 -43 -108 -127z" />
    <glyph glyph-name="uni0414.loclBGR" horiz-adv-x="900" 
d="M264 -129h-240v349h87l196 480h286l196 -480h87v-349h-240v129h-372v-129zM450 428l-76 -208h152z" />
    <glyph glyph-name="uni041B.loclBGR" horiz-adv-x="763" 
d="M246 700h272l251 -700h-280l-107 389l-108 -389h-280z" />
    <glyph glyph-name="uni0424.loclBGR" horiz-adv-x="920" 
d="M578 -90h-236v98c-222 26 -341 170 -341 342s119 316 341 342v98h236v-98c222 -26 341 -170 341 -342s-119 -316 -341 -342v-98zM266 350c0 -53 16 -111 81 -124v248c-65 -13 -81 -70 -81 -124zM573 474v-248c65 13 81 71 81 124c0 54 -16 111 -81 124z" />
    <glyph glyph-name="uni0430" unicode="&#x430;" horiz-adv-x="591" 
d="M538 163c0 -16 9 -23 24 -23c7 0 14 1 20 2v-137c-28 -13 -85 -21 -122 -21c-52 0 -99 14 -124 49c-41 -33 -91 -50 -155 -50c-89 0 -167 45 -167 143c0 122 109 155 214 155c19 0 63 -3 88 -9v8c0 34 -28 47 -92 47c-58 0 -115 -11 -176 -32v170c51 15 135 32 204 32
c175 0 286 -43 286 -240v-94zM288 181c-21 0 -47 -8 -47 -36c0 -23 19 -31 38 -31c13 0 26 4 37 11v53c-8 2 -18 3 -28 3z" />
    <glyph glyph-name="uni0431" unicode="&#x431;" horiz-adv-x="580" 
d="M571 203c0 -154 -129 -220 -262 -220c-141 0 -288 59 -288 306c0 182 61 268 147 322c138 87 292 52 353 106v-212c-56 -47 -136 -32 -197 -54c-35 -11 -70 -45 -72 -87c32 29 75 49 134 49c95 0 185 -64 185 -210zM251 218c0 -29 13 -48 45 -48s45 19 45 48
s-13 48 -45 48s-45 -19 -45 -48z" />
    <glyph glyph-name="uni0432" unicode="&#x432;" horiz-adv-x="564" 
d="M362 0h-329v480h316c160 0 185 -83 185 -129c0 -53 -23 -90 -69 -111c61 -23 90 -61 90 -116c0 -48 -32 -124 -193 -124zM253 184v-54h42c25 0 34 13 34 27s-9 27 -34 27h-42zM253 348v-54h37c25 0 34 13 34 28c0 13 -9 26 -34 26h-37z" />
    <glyph glyph-name="uni0433" unicode="&#x433;" horiz-adv-x="438" 
d="M275 0h-242v480h392v-190h-150v-290z" />
    <glyph glyph-name="uni0434" unicode="&#x434;" horiz-adv-x="678" 
d="M229 -121h-215v286h63c53 97 64 205 63 315h456v-315h65v-286h-215v121h-217v-121zM334 313c-1 -47 -11 -93 -37 -148h84v148h-47z" />
    <glyph glyph-name="uni0435" unicode="&#x435;" horiz-adv-x="546" 
d="M16 245c0 188 154 252 263 252c224 0 272 -170 244 -303h-281c15 -32 68 -49 123 -49c50 0 97 5 139 16v-154c-48 -16 -98 -24 -172 -24c-151 0 -316 62 -316 262zM339 288c4 31 -11 58 -46 58c-38 0 -55 -29 -55 -58h101z" />
    <glyph glyph-name="uni0451" unicode="&#x451;" horiz-adv-x="546" 
d="M499 616c0 -67 -45 -105 -105 -105s-105 38 -105 105s45 105 105 105s105 -38 105 -105zM261 616c0 -67 -45 -105 -105 -105s-105 38 -105 105s45 105 105 105s105 -38 105 -105zM16 245c0 188 154 252 263 252c224 0 272 -170 244 -303h-281c15 -32 68 -49 123 -49
c50 0 97 5 139 16v-154c-48 -16 -98 -24 -172 -24c-151 0 -316 62 -316 262zM339 288c4 31 -11 58 -46 58c-38 0 -55 -29 -55 -58h101z" />
    <glyph glyph-name="uni0436" unicode="&#x436;" horiz-adv-x="900" 
d="M893 0h-250l-56 142h-22v-142h-230v142h-22l-56 -142h-250l104 235l-103 245h250l55 -148h22v148h230v-148h22l55 148h250l-103 -245z" />
    <glyph glyph-name="uni0437" unicode="&#x437;" horiz-adv-x="504" 
d="M487 133c0 -74 -49 -150 -262 -150c-97 0 -158 18 -203 36v154c43 -19 112 -34 167 -34c25 0 47 6 47 24c0 13 -11 19 -31 19h-107v120l93 1c18 0 35 2 35 17s-20 21 -50 21c-42 0 -107 -14 -142 -30v154c39 16 130 33 213 32c200 -2 230 -82 230 -140
c0 -55 -31 -97 -78 -111c62 -21 88 -64 88 -113z" />
    <glyph glyph-name="uni0438" unicode="&#x438;" horiz-adv-x="614" 
d="M210 0h-177v480h220v-169l151 169h177v-480h-220v169z" />
    <glyph glyph-name="uni0439" unicode="&#x439;" horiz-adv-x="614" 
d="M480 566c-45 -28 -114 -43 -173 -43s-128 15 -173 43v146c44 -25 113 -37 173 -37s129 12 173 37v-146zM210 0h-177v480h220v-169l151 169h177v-480h-220v169z" />
    <glyph glyph-name="uni043A" unicode="&#x43a;" horiz-adv-x="624" 
d="M275 0h-242v480h242v-143h26l70 143h260l-142 -238l143 -242h-260l-71 147h-26v-147z" />
    <glyph glyph-name="uni043B" unicode="&#x43b;" horiz-adv-x="631" 
d="M321 290c-25 -213 -75 -305 -213 -305c-36 0 -74 6 -105 15v197c21 -5 37 -5 51 0c61 21 55 134 63 283h481v-480h-242v290h-35z" />
    <glyph glyph-name="uni043C" unicode="&#x43c;" horiz-adv-x="682" 
d="M243 0h-210v480h184l124 -192l124 192h184v-480h-210v172l-62 -95h-72l-62 95v-172z" />
    <glyph glyph-name="uni043D" unicode="&#x43d;" horiz-adv-x="607" 
d="M275 0h-242v480h242v-150h57v150h242v-480h-242v150h-57v-150z" />
    <glyph glyph-name="uni043E" unicode="&#x43e;" horiz-adv-x="595" 
d="M16 240c0 175 126 257 281 257s282 -82 282 -257s-127 -257 -282 -257s-281 82 -281 257zM349 240c0 38 -12 64 -52 64c-39 0 -51 -26 -51 -64s12 -64 51 -64c40 0 52 26 52 64z" />
    <glyph glyph-name="uni043F" unicode="&#x43f;" horiz-adv-x="601" 
d="M275 0h-242v480h535v-480h-242v290h-51v-290z" />
    <glyph glyph-name="uni0440" unicode="&#x440;" horiz-adv-x="627" 
d="M246 427c37 40 90 70 151 70c148 0 212 -119 212 -257s-64 -257 -212 -257c-51 0 -93 15 -122 39v-242h-242v700h213v-53zM359 240c0 33 -14 65 -49 65c-15 0 -29 -8 -35 -14v-102c5 -6 19 -14 35 -14c35 0 49 32 49 65z" />
    <glyph glyph-name="uni0441" unicode="&#x441;" horiz-adv-x="487" 
d="M16 224c0 198 144 275 291 275c50 0 101 -10 148 -25v-195c-28 12 -66 22 -101 22c-47 0 -88 -16 -88 -61s39 -59 84 -59c42 0 83 9 110 19v-193c-51 -15 -107 -24 -168 -24c-142 0 -276 67 -276 241z" />
    <glyph glyph-name="uni0442" unicode="&#x442;" horiz-adv-x="492" 
d="M367 0h-242v290h-111v190h464v-190h-111v-290z" />
    <glyph glyph-name="uni0443" unicode="&#x443;" horiz-adv-x="626" 
d="M327 238l54 242h244l-169 -492c-59 -172 -174 -224 -283 -224c-45 0 -81 7 -119 19v194c24 -7 46 -12 75 -12c33 0 61 11 81 39l-216 476h248z" />
    <glyph glyph-name="uni0444" unicode="&#x444;" horiz-adv-x="828" 
d="M525 -220h-222v203c-169 9 -288 103 -288 257s119 248 288 257v203h222v-203c169 -9 288 -103 288 -257s-119 -248 -288 -257v-203zM245 240c0 -40 19 -64 63 -71v142c-44 -7 -63 -30 -63 -71zM520 311v-142c40 7 63 31 63 71c0 41 -23 64 -63 71z" />
    <glyph glyph-name="uni0445" unicode="&#x445;" horiz-adv-x="586" 
d="M348 480h244l-149 -241l154 -239h-253l-51 99l-51 -99h-253l154 239l-149 241h244l55 -107z" />
    <glyph glyph-name="uni0447" unicode="&#x447;" horiz-adv-x="589" 
d="M556 0h-242v122c-31 -10 -65 -14 -107 -14c-81 0 -186 47 -186 175v197h242v-161c0 -15 12 -21 26 -21c9 0 18 2 25 6v176h242v-480z" />
    <glyph glyph-name="uni0446" unicode="&#x446;" horiz-adv-x="652" 
d="M633 -121h-215v121h-385v480h242v-290h51v290h242v-290h65v-311z" />
    <glyph glyph-name="uni0448" unicode="&#x448;" horiz-adv-x="892" 
d="M859 0h-826v480h242v-290h50v290h242v-290h50v290h242v-480z" />
    <glyph glyph-name="uni0449" unicode="&#x449;" horiz-adv-x="943" 
d="M924 -121h-215v121h-676v480h242v-290h50v290h242v-290h50v290h242v-290h65v-311z" />
    <glyph glyph-name="uni044F" unicode="&#x44f;" horiz-adv-x="591" 
d="M248 0h-244l104 152c-61 34 -85 92 -85 147c0 84 57 181 218 181h317v-480h-220v122h-14zM253 290c0 -23 13 -39 43 -39h42v78h-42c-30 0 -43 -16 -43 -39z" />
    <glyph glyph-name="uni044C" unicode="&#x44c;" horiz-adv-x="590" 
d="M370 0h-337v480h242v-110h95c141 0 208 -80 208 -184s-67 -186 -208 -186zM275 232v-84h27c28 0 44 16 44 42s-16 42 -44 42h-27z" />
    <glyph glyph-name="uni044A" unicode="&#x44a;" horiz-adv-x="682" 
d="M366 370h95c141 0 208 -80 208 -184s-67 -186 -208 -186h-337v302h-111v178h353v-110zM366 148h27c28 0 44 16 44 42s-16 42 -44 42h-27v-84z" />
    <glyph glyph-name="uni044B" unicode="&#x44b;" horiz-adv-x="890" 
d="M370 0h-337v480h242v-110h95c141 0 208 -80 208 -184s-67 -186 -208 -186zM275 232v-84h27c28 0 44 16 44 42s-16 42 -44 42h-27zM857 0h-242v480h242v-480z" />
    <glyph glyph-name="uni044D" unicode="&#x44d;" horiz-adv-x="524" 
d="M508 228c0 -172 -150 -245 -282 -245c-91 0 -138 10 -201 42v160c37 -27 91 -40 137 -40c47 0 97 5 115 36h-174v118h174c-17 30 -64 36 -109 36c-42 0 -98 -13 -138 -40v161c63 30 117 41 191 41c159 0 287 -87 287 -269z" />
    <glyph glyph-name="uni044E" unicode="&#x44e;" horiz-adv-x="859" 
d="M843 240c0 -175 -127 -257 -282 -257c-113 0 -217 54 -253 167h-35v-150h-240v480h240v-150h35c36 113 140 167 253 167c155 0 282 -82 282 -257zM510 240c0 -29 12 -55 51 -55c40 0 52 26 52 55s-12 55 -52 55c-39 0 -51 -26 -51 -55z" />
    <glyph glyph-name="uni0432.loclBGR" horiz-adv-x="618" 
d="M563 528c0 -65 -34 -114 -84 -140c68 -22 124 -83 124 -171c0 -146 -110 -234 -281 -234c-181 0 -299 77 -299 333v46c-1 243 110 355 301 355c150 0 239 -89 239 -189zM353 494c0 20 -8 38 -34 38c-35 0 -60 -21 -65 -106l43 7c40 7 56 37 56 61zM255 266
c3 -70 19 -93 63 -93c32 0 55 21 55 56c0 39 -32 51 -68 45z" />
    <glyph glyph-name="uni0433.loclBGR" horiz-adv-x="498" 
d="M466 24c-56 -29 -118 -41 -208 -41c-125 0 -244 38 -244 156c0 181 209 137 209 181c0 11 -9 16 -30 16c-43 0 -99 -17 -139 -38v158c54 25 125 41 200 41c114 0 223 -36 223 -155c0 -166 -211 -136 -211 -177c0 -8 6 -15 35 -15c38 0 109 13 165 55v-181z" />
    <glyph glyph-name="uni0434.loclBGR" horiz-adv-x="627" 
d="M18 250c0 138 64 247 212 247c61 0 114 -30 151 -70v53h213v-441c0 -202 -145 -276 -300 -276c-97 0 -153 10 -227 38v196c53 -26 107 -38 176 -38c61 0 109 16 109 64v19c-29 -24 -71 -39 -122 -39c-148 0 -212 109 -212 247zM352 296c-6 6 -20 14 -35 14
c-35 0 -49 -32 -49 -65s14 -65 49 -65c16 0 30 8 35 14v102z" />
    <glyph glyph-name="uni0436.loclBGR" horiz-adv-x="898" 
d="M256 0h-250l105 237l-104 243h250l56 -148h21v368h230v-368h21l56 148h250l-104 -243l105 -237h-250l-56 142h-22v-142h-230v142h-22z" />
    <glyph glyph-name="uni0438.loclBGR" horiz-adv-x="597" 
d="M322 480h242v-480h-212v42c-43 -40 -90 -59 -143 -59c-132 0 -180 97 -180 177v320h242v-273c0 -17 11 -23 25 -23c12 0 21 5 26 9v287z" />
    <glyph glyph-name="uni0439.loclBGR" horiz-adv-x="597" 
d="M470 566c-45 -28 -114 -43 -173 -43s-128 15 -173 43v146c44 -25 113 -37 173 -37s129 12 173 37v-146zM322 480h242v-480h-212v42c-43 -40 -90 -59 -143 -59c-132 0 -180 97 -180 177v320h242v-273c0 -17 11 -23 25 -23c12 0 21 5 26 9v287z" />
    <glyph glyph-name="uni043A.loclBGR" horiz-adv-x="624" 
d="M632 0h-260l-71 147h-26v-147h-242v700h242v-363h26l70 143h260l-142 -238z" />
    <glyph glyph-name="uni043B.loclBGR" horiz-adv-x="619" 
d="M620 0h-252l-58 261l-58 -261h-253l182 480h257z" />
    <glyph glyph-name="uni043F.loclBGR" horiz-adv-x="597" 
d="M245 438c43 40 90 59 143 59c132 0 180 -97 180 -177v-320h-242v273c0 17 -11 23 -25 23c-12 0 -21 -5 -26 -9v-287h-242v480h212v-42z" />
    <glyph glyph-name="uni0442.loclBGR" horiz-adv-x="864" 
d="M271 0h-238v480h213v-41c29 32 90 58 145 58c66 0 108 -22 133 -62c37 38 96 62 149 62c113 0 162 -74 162 -200v-297h-238v278c0 13 -9 18 -20 18s-18 -4 -24 -7v-17v-272h-238v278c0 13 -9 18 -20 18s-18 -4 -24 -7v-289z" />
    <glyph glyph-name="uni0446.loclBGR" horiz-adv-x="643" 
d="M564 162c0 -12 9 -21 21 -21h44v-262h-205v116c-28 9 -51 27 -66 51c-33 -41 -89 -63 -149 -63c-132 0 -180 97 -180 177v320h242v-273c0 -17 11 -23 25 -23c12 0 21 5 26 9v287h242v-318z" />
    <glyph glyph-name="uni0448.loclBGR" horiz-adv-x="864" 
d="M593 480h238v-480h-213v41c-29 -32 -90 -58 -145 -58c-66 0 -108 22 -133 62c-37 -38 -96 -62 -149 -62c-113 0 -162 74 -162 200v297h238v-278c0 -13 9 -18 20 -18s18 4 24 7v17v272h238v-278c0 -13 9 -18 20 -18s18 4 24 7v289z" />
    <glyph glyph-name="uni0449.loclBGR" horiz-adv-x="914" 
d="M835 162c0 -12 9 -21 21 -21h44v-262h-205v116c-28 9 -51 27 -66 51c-36 -39 -94 -63 -152 -63c-62 0 -105 22 -132 62c-38 -38 -97 -62 -150 -62c-113 0 -166 74 -166 200v297h242v-278c0 -13 9 -18 20 -18c9 0 16 4 20 7v289h242v-278c0 -13 9 -18 20 -18
c9 0 16 4 20 7v289h242v-318z" />
    <glyph glyph-name="uni044E.loclBGR" horiz-adv-x="859" 
d="M843 240c0 -175 -127 -257 -282 -257c-113 0 -217 54 -253 167h-35v-150h-240v700h240v-370h35c36 113 140 167 253 167c155 0 282 -82 282 -257zM510 240c0 -29 12 -55 51 -55c40 0 52 26 52 55s-12 55 -52 55c-39 0 -51 -26 -51 -55z" />
    <glyph glyph-name="uni0430.ss01" horiz-adv-x="627" 
d="M381 53c-37 -40 -90 -70 -151 -70c-148 0 -212 119 -212 257s64 257 212 257c61 0 114 -30 151 -70v53h213v-480h-213v53zM268 240c0 -33 14 -65 49 -65c15 0 29 8 35 14v102c-6 6 -20 14 -35 14c-35 0 -49 -32 -49 -65z" />
    <glyph glyph-name="uni0437.ss01" horiz-adv-x="482" 
d="M439 308c0 -67 -32 -116 -80 -141c66 -23 120 -84 120 -170c0 -162 -137 -234 -296 -234c-65 0 -123 9 -180 36v169c48 -24 88 -31 139 -31c59 0 112 18 112 74c0 37 -24 64 -89 49l-52 -11v151l60 13c40 9 58 28 58 56c0 39 -35 53 -81 53c-47 0 -92 -10 -134 -35v168
c61 31 123 41 180 41c141 1 243 -57 243 -188z" />
    <glyph glyph-name="uni0443.ss01" horiz-adv-x="597" 
d="M564 39c0 -197 -145 -276 -290 -276c-77 0 -153 7 -217 25v203c37 -20 101 -32 156 -32c61 0 109 16 109 64v15c-35 -24 -72 -35 -113 -35c-132 0 -180 97 -180 177v300h242v-273c0 -17 11 -23 25 -23c12 0 21 5 26 9v287h242v-441z" />
    <glyph glyph-name="zero" unicode="0" horiz-adv-x="705" 
d="M26 340c0 188 92 357 327 357c234 0 326 -169 326 -357s-92 -357 -326 -357c-235 0 -327 169 -327 357zM414 340c0 95 -20 127 -61 127c-42 0 -62 -32 -62 -127s20 -127 62 -127c41 0 61 32 61 127z" />
    <glyph glyph-name="one" unicode="1" horiz-adv-x="524" 
d="M211 680h194v-465h103v-215h-473v215h113v220l-102 -38v220z" />
    <glyph glyph-name="two" unicode="2" horiz-adv-x="628" 
d="M51 626c74 43 172 71 264 71c145 0 277 -62 277 -228c0 -85 -37 -129 -85 -167c-35 -28 -77 -52 -114 -86h198v-215h-561v104c1 132 88 188 170 247c60 43 115 60 115 92c0 19 -15 29 -46 29c-67 0 -141 -30 -218 -87v240z" />
    <glyph glyph-name="three" unicode="3" horiz-adv-x="606" 
d="M554 497c0 -62 -35 -123 -109 -148c72 -15 137 -66 137 -159c0 -154 -141 -207 -292 -207c-101 0 -185 15 -256 41v220c63 -31 137 -49 223 -49c48 0 73 10 73 32c0 12 -11 23 -34 23h-125v184h104c20 0 29 8 29 20c0 21 -24 28 -61 28c-59 0 -148 -26 -197 -57v210
c62 39 154 62 242 62c136 0 266 -55 266 -200z" />
    <glyph glyph-name="four" unicode="4" horiz-adv-x="690" 
d="M324 680h262v-403h80v-200h-80v-77h-235v77h-332v210zM351 277v129l-100 -129h100z" />
    <glyph glyph-name="five" unicode="5" horiz-adv-x="608" 
d="M79 680h475v-214h-247l-3 -44c16 2 33 4 51 4c108 0 227 -49 227 -209c0 -182 -166 -234 -321 -234c-79 0 -167 17 -230 46v202c39 -24 115 -43 179 -43c59 0 107 16 107 51c0 41 -60 50 -125 49c-53 0 -109 -8 -137 -14z" />
    <glyph glyph-name="six" unicode="6" horiz-adv-x="680" 
d="M283 397c42 28 96 43 150 43c118 0 226 -65 226 -214c0 -174 -138 -243 -289 -243c-238 0 -344 138 -344 357c0 254 168 357 357 357c86 0 160 -16 217 -46v-194c-51 26 -107 42 -157 42c-90 0 -143 -23 -160 -102zM283 249c12 -56 40 -78 78 -78c30 0 53 19 53 47
c0 37 -25 52 -60 52c-24 0 -48 -7 -71 -21z" />
    <glyph glyph-name="seven" unicode="7" horiz-adv-x="598" 
d="M19 680h567v-164l-237 -516h-288l214 465h-256v215z" />
    <glyph glyph-name="eight" unicode="8" 
d="M49 487c0 101 83 210 288 210c200 0 286 -105 284 -196c-2 -73 -38 -106 -85 -133c63 -34 110 -84 110 -174c0 -112 -93 -211 -314 -211c-233 0 -308 99 -308 199c0 80 53 139 98 161c-38 31 -73 75 -73 144zM340 248c-15 4 -30 8 -43 12c-10 -11 -15 -26 -15 -41
c0 -24 16 -47 57 -47c38 0 49 17 49 34c0 25 -23 35 -48 42zM381 470c-1 22 -16 38 -48 38c-30 0 -44 -14 -44 -29c0 -21 24 -29 46 -36c14 -4 29 -9 38 -12c5 13 9 26 8 39z" />
    <glyph glyph-name="nine" unicode="9" horiz-adv-x="680" 
d="M21 454c0 174 138 243 289 243c238 0 344 -138 344 -357c0 -254 -168 -357 -357 -357c-86 0 -160 16 -217 46v194c51 -26 107 -42 157 -42c90 0 143 23 160 102c-42 -28 -96 -43 -150 -43c-118 0 -226 65 -226 214zM319 509c-30 0 -53 -19 -53 -47c0 -37 25 -52 60 -52
c24 0 48 7 71 21c-12 56 -40 78 -78 78z" />
    <glyph glyph-name="zero.osf" horiz-adv-x="679" 
d="M656 260c0 -148 -92 -277 -316 -277c-225 0 -317 129 -317 277s92 277 317 277c224 0 316 -129 316 -277zM288 260c0 -45 20 -67 52 -67c31 0 51 22 51 67s-20 67 -51 67c-32 0 -52 -22 -52 -67z" />
    <glyph glyph-name="one.osf" horiz-adv-x="525" 
d="M210 520h194v-315h103v-205h-473v205h113v90l-102 -38v200z" />
    <glyph glyph-name="two.osf" horiz-adv-x="571" 
d="M536 1h-511v84c0 81 57 117 141 156c66 31 94 42 94 65c0 14 -12 22 -36 22c-37 0 -103 -22 -168 -67v220c74 35 142 56 244 56c125 0 237 -59 237 -172c0 -44 -16 -78 -46 -105c-25 -22 -60 -39 -103 -54h148v-205z" />
    <glyph glyph-name="three.osf" horiz-adv-x="568" 
d="M520 337c0 -62 -35 -123 -109 -148c72 -15 137 -66 137 -159c0 -154 -141 -207 -292 -207c-81 0 -155 10 -226 36v214c63 -27 132 -38 203 -38c38 0 63 10 63 32c0 12 -11 23 -34 23h-105v184h84c20 0 29 8 29 20c0 21 -24 28 -61 28c-59 0 -118 -13 -167 -33v206
c62 29 144 42 212 42c136 0 266 -55 266 -200z" />
    <glyph glyph-name="four.osf" horiz-adv-x="651" 
d="M297 520h262v-403h70v-200h-70v-77h-225v77h-322v190zM334 117v130l-90 -130h90z" />
    <glyph glyph-name="five.osf" horiz-adv-x="569" 
d="M74 520h445v-214h-217l-3 -44c16 2 31 3 46 3c126 -2 202 -81 202 -208c0 -182 -166 -234 -321 -234c-79 0 -137 13 -200 38v202c39 -20 98 -35 159 -35c59 0 97 16 97 51c0 39 -50 49 -95 49c-63 0 -109 -7 -137 -14z" />
    <glyph glyph-name="six.osf" horiz-adv-x="653" 
d="M287 409c37 20 80 31 126 31c108 0 216 -65 216 -214c0 -174 -138 -243 -279 -243c-218 0 -324 128 -324 347c0 254 168 367 337 367c86 0 150 -16 217 -46v-194c-45 26 -97 42 -147 42c-70 0 -124 -21 -146 -90zM280 252c9 -58 30 -81 61 -81c25 0 43 19 43 47
c0 37 -20 52 -50 52c-16 0 -35 -6 -54 -18z" />
    <glyph glyph-name="seven.osf" horiz-adv-x="562" 
d="M17 520h537v-164l-227 -516h-288l205 465h-227v215z" />
    <glyph glyph-name="eight.osf" horiz-adv-x="640" 
d="M49 487c0 101 83 210 273 210c185 0 271 -105 269 -196c-2 -73 -38 -106 -85 -133c63 -34 110 -84 110 -174c0 -112 -93 -211 -299 -211c-218 0 -293 99 -293 199c0 80 53 139 98 161c-38 31 -73 75 -73 144zM323 249c-11 4 -22 7 -31 11c-10 -11 -15 -26 -15 -41
c0 -24 15 -47 45 -47c27 0 41 17 41 35c0 23 -19 34 -40 42zM356 472c0 22 -16 36 -37 36s-35 -12 -35 -30c0 -17 11 -26 27 -34c11 -5 24 -8 37 -13c5 13 8 28 8 41z" />
    <glyph glyph-name="nine.osf" horiz-adv-x="643" 
d="M18 294c0 174 138 243 279 243c218 0 324 -128 324 -347c0 -254 -168 -367 -337 -367c-86 0 -150 16 -217 46v194c45 -26 97 -42 147 -42c70 0 124 21 146 90c-37 -20 -80 -31 -126 -31c-108 0 -216 65 -216 214zM306 349c-25 0 -43 -19 -43 -47c0 -37 20 -52 50 -52
c16 0 35 6 54 18c-9 58 -30 81 -61 81z" />
    <glyph glyph-name="zero.sinf" horiz-adv-x="428" 
d="M410 104c0 -113 -56 -214 -196 -214c-141 0 -196 101 -196 214s55 214 196 214c140 0 196 -101 196 -214zM177 104c0 -57 12 -76 37 -76s37 19 37 76s-12 76 -37 76s-37 -19 -37 -76z" />
    <glyph glyph-name="one.sinf" horiz-adv-x="323" 
d="M131 308h117v-279h62v-129h-284v129h68v132l-62 -23v132z" />
    <glyph glyph-name="two.sinf" horiz-adv-x="385" 
d="M35 275c44 26 103 43 158 43c87 0 167 -37 167 -137c0 -51 -23 -77 -52 -100c-21 -17 -46 -31 -68 -52h119v-129h-337l1 62c0 80 50 117 101 151c37 25 69 34 69 53c0 11 -9 17 -27 17c-41 0 -85 -18 -131 -52v144z" />
    <glyph glyph-name="three.sinf" horiz-adv-x="371" 
d="M337 198c0 -37 -21 -74 -66 -89c44 -9 83 -39 83 -95c0 -92 -85 -124 -176 -124c-54 0 -110 12 -153 28v131c38 -18 100 -32 140 -32c22 0 37 6 37 19c0 7 -6 14 -20 14h-75l1 111l61 -1c12 0 18 5 18 12c0 13 -15 17 -37 17c-35 0 -88 -15 -118 -34v126
c37 23 93 37 145 37c82 0 160 -33 160 -120z" />
    <glyph glyph-name="four.sinf" horiz-adv-x="422" 
d="M198 308h157v-242h48v-120h-48v-46h-141v46h-199v126zM214 66v78l-60 -78h60z" />
    <glyph glyph-name="five.sinf" horiz-adv-x="373" 
d="M51 310h286v-129h-147l-3 -26c9 1 20 2 30 2c65 0 137 -29 137 -126c0 -110 -100 -141 -193 -141c-48 0 -101 10 -139 28v121c24 -14 69 -25 108 -25c36 0 65 8 65 29c0 25 -37 31 -76 31c-32 0 -65 -5 -82 -9z" />
    <glyph glyph-name="six.sinf" horiz-adv-x="415" 
d="M173 138c25 17 57 26 90 26c70 0 135 -39 135 -128c0 -105 -83 -146 -173 -146c-143 0 -206 83 -206 214c0 152 100 214 214 214c51 0 96 -10 130 -28v-116c-31 16 -64 25 -94 25c-54 0 -85 -13 -96 -61zM173 50c7 -34 24 -47 47 -47c18 0 31 11 31 28
c0 22 -15 31 -36 31c-14 0 -28 -4 -42 -12z" />
    <glyph glyph-name="seven.sinf" horiz-adv-x="358" 
d="M213 -100h-173l123 280h-149v130h336v-99z" />
    <glyph glyph-name="eight.sinf" horiz-adv-x="409" 
d="M33 196c0 61 49 126 172 126c120 0 172 -63 171 -117c-2 -44 -23 -64 -51 -80c37 -21 66 -51 66 -105c0 -67 -56 -126 -189 -126c-139 0 -184 59 -184 119c0 48 31 84 58 97c-22 18 -43 45 -43 86zM207 53c-9 2 -18 5 -26 7c-6 -7 -9 -16 -9 -25c0 -14 10 -28 35 -28
c22 0 29 10 29 21c0 15 -14 21 -29 25zM232 186c-1 13 -10 23 -29 23c-18 0 -26 -9 -26 -18c0 -12 14 -17 27 -21c9 -3 18 -6 23 -7c3 7 5 15 5 23z" />
    <glyph glyph-name="nine.sinf" horiz-adv-x="415" 
d="M17 172c0 105 83 146 173 146c143 0 206 -83 206 -214c0 -152 -100 -214 -214 -214c-51 0 -96 10 -130 28v116c31 -16 64 -25 94 -25c54 0 85 13 96 61c-25 -17 -57 -26 -90 -26c-70 0 -135 39 -135 128zM195 205c-18 0 -31 -11 -31 -28c0 -22 15 -31 36 -31
c14 0 28 4 42 12c-7 34 -24 47 -47 47z" />
    <glyph glyph-name="zero.sups" horiz-adv-x="428" 
d="M410 583c0 -113 -56 -214 -196 -214c-141 0 -196 101 -196 214s55 214 196 214c140 0 196 -101 196 -214zM177 583c0 -57 12 -76 37 -76s37 19 37 76s-12 76 -37 76s-37 -19 -37 -76z" />
    <glyph glyph-name="one.sups" horiz-adv-x="323" 
d="M131 780h117v-279h62v-129h-284v129h68v132l-62 -23v132z" />
    <glyph glyph-name="two.sups" horiz-adv-x="385" 
d="M35 754c44 26 103 43 158 43c87 0 167 -37 167 -137c0 -51 -23 -77 -52 -100c-21 -17 -46 -31 -68 -52h119v-129h-337l1 62c0 80 50 117 101 151c37 25 69 34 69 53c0 11 -9 17 -27 17c-41 0 -85 -18 -131 -52v144z" />
    <glyph glyph-name="three.sups" horiz-adv-x="371" 
d="M337 677c0 -37 -21 -74 -66 -89c44 -9 83 -39 83 -95c0 -92 -85 -124 -176 -124c-54 0 -110 12 -153 28v131c38 -18 100 -32 140 -32c22 0 37 6 37 19c0 7 -6 14 -20 14h-75l1 111l61 -1c12 0 18 5 18 12c0 13 -15 17 -37 17c-35 0 -88 -15 -118 -34v126
c37 23 93 37 145 37c82 0 160 -33 160 -120z" />
    <glyph glyph-name="four.sups" horiz-adv-x="422" 
d="M198 780h157v-242h48v-120h-48v-46h-141v46h-199v126zM214 538v78l-60 -78h60z" />
    <glyph glyph-name="five.sups" horiz-adv-x="373" 
d="M51 780h286v-129h-147l-3 -26c9 1 20 2 30 2c65 0 137 -29 137 -126c0 -110 -100 -141 -193 -141c-48 0 -101 10 -139 28v121c24 -14 69 -25 108 -25c36 0 65 8 65 29c0 25 -37 31 -76 31c-32 0 -65 -5 -82 -9z" />
    <glyph glyph-name="six.sups" horiz-adv-x="415" 
d="M173 617c25 17 57 26 90 26c70 0 135 -39 135 -128c0 -105 -83 -146 -173 -146c-143 0 -206 83 -206 214c0 152 100 214 214 214c51 0 96 -10 130 -28v-116c-31 16 -64 25 -94 25c-54 0 -85 -13 -96 -61zM173 529c7 -34 24 -47 47 -47c18 0 31 11 31 28
c0 22 -15 31 -36 31c-14 0 -28 -4 -42 -12z" />
    <glyph glyph-name="seven.sups" horiz-adv-x="359" 
d="M213 370h-173l123 280h-149v130h336v-99z" />
    <glyph glyph-name="eight.sups" horiz-adv-x="409" 
d="M33 675c0 61 49 126 172 126c120 0 172 -63 171 -117c-2 -44 -23 -64 -51 -80c37 -21 66 -51 66 -105c0 -67 -56 -126 -189 -126c-139 0 -184 59 -184 119c0 48 31 84 58 97c-22 18 -43 45 -43 86zM207 532c-9 2 -18 5 -26 7c-6 -7 -9 -16 -9 -25c0 -14 10 -28 35 -28
c22 0 29 10 29 21c0 15 -14 21 -29 25zM232 665c-1 13 -10 23 -29 23c-18 0 -26 -9 -26 -18c0 -12 14 -17 27 -21c9 -3 18 -6 23 -7c3 7 5 15 5 23z" />
    <glyph glyph-name="nine.sups" horiz-adv-x="415" 
d="M17 651c0 105 83 146 173 146c143 0 206 -83 206 -214c0 -152 -100 -214 -214 -214c-51 0 -96 10 -130 28v116c31 -16 64 -25 94 -25c54 0 85 13 96 61c-25 -17 -57 -26 -90 -26c-70 0 -135 39 -135 128zM195 684c-18 0 -31 -11 -31 -28c0 -22 15 -31 36 -31
c14 0 28 4 42 12c-7 34 -24 47 -47 47z" />
    <glyph glyph-name="zero.tf" 
d="M657 340c0 -188 -92 -357 -322 -357s-322 169 -322 357s92 357 322 357s322 -169 322 -357zM278 340c0 -95 20 -127 57 -127s57 32 57 127s-20 127 -57 127s-57 -32 -57 -127z" />
    <glyph glyph-name="one.tf" 
d="M286 680h194v-465h163v-215h-603v215h183v220l-147 -57v220z" />
    <glyph glyph-name="two.tf" 
d="M64 626c74 43 172 71 274 71c145 0 277 -62 277 -228c0 -85 -37 -129 -85 -167c-35 -28 -77 -52 -124 -86h217v-215h-580v104c1 132 98 188 180 247c60 43 115 60 115 92c0 19 -15 29 -46 29c-77 0 -151 -30 -228 -87v240z" />
    <glyph glyph-name="three.tf" 
d="M596 497c0 -62 -35 -123 -109 -148c72 -15 137 -66 137 -159c0 -154 -141 -207 -302 -207c-101 0 -195 20 -266 46v220c63 -31 167 -54 243 -54c48 0 73 10 73 32c0 12 -11 23 -34 23h-145v184h124c20 0 29 8 29 20c0 21 -24 28 -71 28c-69 0 -158 -26 -207 -57v210
c62 39 154 62 252 62c146 0 276 -55 276 -200z" />
    <glyph glyph-name="four.tf" 
d="M314 680h262v-403h80v-200h-80v-77h-235v77h-332v210zM346 277v129l-100 -129h100z" />
    <glyph glyph-name="five.tf" 
d="M105 680h485v-214h-257l-3 -44c26 2 43 4 61 4c108 0 227 -49 227 -209c0 -182 -166 -234 -321 -234c-89 0 -177 17 -240 46v202c39 -24 115 -43 189 -43c59 0 107 16 107 51c0 41 -60 49 -125 49c-63 0 -119 -8 -147 -14z" />
    <glyph glyph-name="six.tf" 
d="M278 397c42 28 96 43 150 43c118 0 226 -65 226 -214c0 -174 -138 -243 -289 -243c-238 0 -344 138 -344 357c0 254 168 357 357 357c86 0 160 -16 217 -46v-194c-51 26 -107 42 -157 42c-90 0 -143 -23 -160 -102zM278 249c12 -56 40 -78 78 -78c30 0 53 19 53 47
c0 37 -25 52 -60 52c-24 0 -48 -7 -71 -21z" />
    <glyph glyph-name="seven.tf" 
d="M44 680h587v-164l-237 -516h-288l214 465h-276v215z" />
    <glyph glyph-name="eight.tf" 
d="M49 487c0 101 83 210 288 210c200 0 286 -105 284 -196c-2 -73 -38 -106 -85 -133c63 -34 110 -84 110 -174c0 -112 -93 -211 -314 -211c-233 0 -308 99 -308 199c0 80 53 139 98 161c-38 31 -73 75 -73 144zM340 248c-15 4 -30 8 -43 12c-10 -11 -15 -26 -15 -41
c0 -24 16 -47 57 -47c38 0 49 17 49 34c0 25 -23 35 -48 42zM381 470c-1 22 -16 38 -48 38c-30 0 -44 -14 -44 -29c0 -21 24 -29 46 -36c14 -4 29 -9 38 -12c5 13 9 26 8 39z" />
    <glyph glyph-name="nine.tf" 
d="M16 454c0 174 138 243 289 243c238 0 344 -138 344 -357c0 -254 -168 -357 -357 -357c-86 0 -160 16 -217 46v194c51 -26 107 -42 157 -42c90 0 143 23 160 102c-42 -28 -96 -43 -150 -43c-118 0 -226 65 -226 214zM314 509c-30 0 -53 -19 -53 -47c0 -37 25 -52 60 -52
c24 0 48 7 71 21c-12 56 -40 78 -78 78z" />
    <glyph glyph-name="zero.tosf" 
d="M657 260c0 -148 -92 -277 -322 -277s-322 129 -322 277s92 277 322 277s322 -129 322 -277zM278 260c0 -45 20 -67 57 -67s57 22 57 67s-20 67 -57 67s-57 -22 -57 -67z" />
    <glyph glyph-name="one.tosf" 
d="M284 520h194v-315h163v-205h-603v205h183v100l-147 -57v190z" />
    <glyph glyph-name="two.tosf" 
d="M620 1h-579v84c0 81 58 123 120 150c70 30 175 44 175 73c0 14 -15 20 -46 20c-67 0 -143 -22 -218 -67v220c74 35 172 56 274 56c163 0 275 -59 275 -172c0 -44 -12 -74 -35 -98c-26 -26 -64 -44 -114 -61h148v-205z" />
    <glyph glyph-name="three.tosf" 
d="M596 337c0 -62 -35 -123 -109 -148c72 -15 137 -66 137 -159c0 -154 -141 -207 -302 -207c-101 0 -195 20 -266 46v220c63 -31 167 -54 243 -54c48 0 73 10 73 32c0 12 -11 23 -34 23h-145v184h124c20 0 29 8 29 20c0 21 -24 28 -71 28c-69 0 -158 -26 -207 -57v210
c62 39 154 62 252 62c146 0 276 -55 276 -200z" />
    <glyph glyph-name="four.tosf" 
d="M314 520h262v-403h80v-200h-80v-77h-235v77h-332v210zM346 117v129l-100 -129h100z" />
    <glyph glyph-name="five.tosf" 
d="M105 520h485v-214h-257l-3 -44c26 2 43 4 61 4c108 0 227 -49 227 -209c0 -182 -166 -234 -321 -234c-89 0 -177 17 -240 46v202c39 -24 115 -43 189 -43c59 0 107 16 107 51c0 41 -60 49 -125 49c-63 0 -119 -8 -147 -14z" />
    <glyph glyph-name="six.tosf" 
d="M278 397c42 28 96 43 150 43c118 0 226 -65 226 -214c0 -174 -138 -243 -289 -243c-238 0 -344 138 -344 357c0 254 168 357 357 357c86 0 160 -16 217 -46v-194c-51 26 -107 42 -157 42c-90 0 -143 -23 -160 -102zM278 249c12 -56 40 -78 78 -78c30 0 53 19 53 47
c0 37 -25 52 -60 52c-24 0 -48 -7 -71 -21z" />
    <glyph glyph-name="seven.tosf" 
d="M44 520h587v-164l-237 -516h-288l214 465h-276v215z" />
    <glyph glyph-name="eight.tosf" 
d="M49 487c0 101 83 210 288 210c200 0 286 -105 284 -196c-2 -73 -38 -106 -85 -133c63 -34 110 -84 110 -174c0 -112 -93 -211 -314 -211c-233 0 -308 99 -308 199c0 80 53 139 98 161c-38 31 -73 75 -73 144zM340 248c-15 4 -30 8 -43 12c-10 -11 -15 -26 -15 -41
c0 -24 16 -47 57 -47c38 0 49 17 49 34c0 25 -23 35 -48 42zM381 470c-1 22 -16 38 -48 38c-30 0 -44 -14 -44 -29c0 -21 24 -29 46 -36c14 -4 29 -9 38 -12c5 13 9 26 8 39z" />
    <glyph glyph-name="nine.tosf" 
d="M15 294c0 174 138 243 289 243c238 0 344 -138 344 -357c0 -254 -168 -357 -357 -357c-86 0 -160 16 -217 46v194c51 -26 107 -42 157 -42c90 0 143 23 160 102c-42 -28 -96 -43 -150 -43c-118 0 -226 65 -226 214zM313 349c-30 0 -53 -19 -53 -47c0 -37 25 -52 60 -52
c24 0 48 7 71 21c-12 56 -40 78 -78 78z" />
    <glyph glyph-name="fraction" unicode="&#x2044;" horiz-adv-x="200" 
d="M-100 -17h-68l465 734h68z" />
    <glyph glyph-name="onehalf" unicode="&#xbd;" horiz-adv-x="886" 
d="M254 -17h-68l465 734h68zM537 375c44 26 103 43 158 43c87 0 167 -37 167 -137c0 -51 -23 -77 -52 -100c-21 -17 -46 -31 -68 -52h119v-129h-337l1 62c0 80 50 117 101 151c37 25 69 34 69 53c0 11 -9 17 -27 17c-41 0 -85 -18 -131 -52v144zM133 680h117v-279h62v-129
h-284v129h68v132l-62 -23v132z" />
    <glyph glyph-name="onequarter" unicode="&#xbc;" horiz-adv-x="918" 
d="M690 408h157v-242h48v-120h-48v-46h-141v46h-199v126zM706 166v78l-60 -78h60zM257 -17h-68l465 734h68zM136 680h117v-279h62v-129h-284v129h68v132l-62 -23v132z" />
    <glyph glyph-name="threequarters" unicode="&#xbe;" horiz-adv-x="966" 
d="M305 -17h-68l465 734h68zM738 408h157v-242h48v-120h-48v-46h-141v46h-199v126zM754 166v78l-60 -78h60zM342 577c0 -37 -21 -74 -66 -89c44 -9 83 -39 83 -95c0 -92 -85 -124 -176 -124c-54 0 -110 12 -153 28v131c38 -18 100 -32 140 -32c22 0 37 6 37 19
c0 7 -6 14 -20 14h-75l1 111l61 -1c12 0 18 5 18 12c0 13 -15 17 -37 17c-35 0 -88 -15 -118 -34v126c37 23 93 37 145 37c82 0 160 -33 160 -120z" />
    <glyph glyph-name="oneeighth" unicode="&#x215b;" horiz-adv-x="922" 
d="M543 292c0 61 49 126 172 126c120 0 172 -63 171 -117c-2 -44 -23 -64 -51 -80c37 -21 66 -51 66 -105c0 -67 -56 -126 -189 -126c-139 0 -184 59 -184 119c0 48 31 84 58 97c-22 18 -43 45 -43 86zM717 149c-9 2 -18 5 -26 7c-6 -7 -9 -16 -9 -25c0 -14 10 -28 35 -28
c22 0 29 10 29 21c0 15 -14 21 -29 25zM742 282c-1 13 -10 23 -29 23c-18 0 -26 -9 -26 -18c0 -12 14 -17 27 -21c9 -3 18 -6 23 -7c3 7 5 15 5 23zM248 -17h-68l465 734h68zM137 680h117v-279h62v-129h-284v129h68v132l-62 -23v132z" />
    <glyph glyph-name="threeeighths" unicode="&#x215c;" horiz-adv-x="940" 
d="M561 292c0 61 49 126 172 126c120 0 172 -63 171 -117c-2 -44 -23 -64 -51 -80c37 -21 66 -51 66 -105c0 -67 -56 -126 -189 -126c-139 0 -184 59 -184 119c0 48 31 84 58 97c-22 18 -43 45 -43 86zM735 149c-9 2 -18 5 -26 7c-6 -7 -9 -16 -9 -25c0 -14 10 -28 35 -28
c22 0 29 10 29 21c0 15 -14 21 -29 25zM760 282c-1 13 -10 23 -29 23c-18 0 -26 -9 -26 -18c0 -12 14 -17 27 -21c9 -3 18 -6 23 -7c3 7 5 15 5 23zM266 -17h-68l465 734h68zM342 577c0 -37 -21 -74 -66 -89c44 -9 83 -39 83 -95c0 -92 -85 -124 -176 -124
c-54 0 -110 12 -153 28v131c38 -18 100 -32 140 -32c22 0 37 6 37 19c0 7 -6 14 -20 14h-75l1 111l61 -1c12 0 18 5 18 12c0 13 -15 17 -37 17c-35 0 -88 -15 -118 -34v126c37 23 93 37 145 37c82 0 160 -33 160 -120z" />
    <glyph glyph-name="fiveeighths" unicode="&#x215d;" horiz-adv-x="935" 
d="M556 292c0 61 49 126 172 126c120 0 172 -63 171 -117c-2 -44 -23 -64 -51 -80c37 -21 66 -51 66 -105c0 -67 -56 -126 -189 -126c-139 0 -184 59 -184 119c0 48 31 84 58 97c-22 18 -43 45 -43 86zM730 149c-9 2 -18 5 -26 7c-6 -7 -9 -16 -9 -25c0 -14 10 -28 35 -28
c22 0 29 10 29 21c0 15 -14 21 -29 25zM755 282c-1 13 -10 23 -29 23c-18 0 -26 -9 -26 -18c0 -12 14 -17 27 -21c9 -3 18 -6 23 -7c3 7 5 15 5 23zM261 -17h-68l465 734h68zM57 680h286v-129h-147l-3 -26c9 1 20 2 30 2c65 0 137 -29 137 -126c0 -110 -100 -141 -193 -141
c-48 0 -101 10 -139 28v121c24 -14 69 -25 108 -25c36 0 65 8 65 29c0 25 -37 31 -76 31c-32 0 -65 -5 -82 -9z" />
    <glyph glyph-name="seveneighths" unicode="&#x215e;" horiz-adv-x="881" 
d="M201 -17h-68l465 734h68zM501 292c0 61 49 126 172 126c120 0 172 -63 171 -117c-2 -44 -23 -64 -51 -80c37 -21 66 -51 66 -105c0 -67 -56 -126 -189 -126c-139 0 -184 59 -184 119c0 48 31 84 58 97c-22 18 -43 45 -43 86zM675 149c-9 2 -18 5 -26 7
c-6 -7 -9 -16 -9 -25c0 -14 10 -28 35 -28c22 0 29 10 29 21c0 15 -14 21 -29 25zM700 282c-1 13 -10 23 -29 23c-18 0 -26 -9 -26 -18c0 -12 14 -17 27 -21c9 -3 18 -6 23 -7c3 7 5 15 5 23zM225 270h-173l123 280h-149v130h336v-99z" />
    <glyph glyph-name="zero.dnom" horiz-adv-x="428" 
d="M410 204c0 -113 -56 -214 -196 -214c-141 0 -196 101 -196 214s55 214 196 214c140 0 196 -101 196 -214zM177 204c0 -57 12 -76 37 -76s37 19 37 76s-12 76 -37 76s-37 -19 -37 -76z" />
    <glyph glyph-name="one.dnom" horiz-adv-x="323" 
d="M131 408h117v-279h62v-129h-284v129h68v132l-62 -23v132z" />
    <glyph glyph-name="two.dnom" horiz-adv-x="385" 
d="M35 375c44 26 103 43 158 43c87 0 167 -37 167 -137c0 -51 -23 -77 -52 -100c-21 -17 -46 -31 -68 -52h119v-129h-337l1 62c0 80 50 117 101 151c37 25 69 34 69 53c0 11 -9 17 -27 17c-41 0 -85 -18 -131 -52v144z" />
    <glyph glyph-name="three.dnom" horiz-adv-x="371" 
d="M337 298c0 -37 -21 -74 -66 -89c44 -9 83 -39 83 -95c0 -92 -85 -124 -176 -124c-54 0 -110 12 -153 28v131c38 -18 100 -32 140 -32c22 0 37 6 37 19c0 7 -6 14 -20 14h-75l1 111l61 -1c12 0 18 5 18 12c0 13 -15 17 -37 17c-35 0 -88 -15 -118 -34v126
c37 23 93 37 145 37c82 0 160 -33 160 -120z" />
    <glyph glyph-name="four.dnom" horiz-adv-x="422" 
d="M198 408h157v-242h48v-120h-48v-46h-141v46h-199v126zM214 166v78l-60 -78h60z" />
    <glyph glyph-name="five.dnom" horiz-adv-x="373" 
d="M51 410h286v-129h-147l-3 -26c9 1 20 2 30 2c65 0 137 -29 137 -126c0 -110 -100 -141 -193 -141c-48 0 -101 10 -139 28v121c24 -14 69 -25 108 -25c36 0 65 8 65 29c0 25 -37 31 -76 31c-32 0 -65 -5 -82 -9z" />
    <glyph glyph-name="six.dnom" horiz-adv-x="415" 
d="M173 238c25 17 57 26 90 26c70 0 135 -39 135 -128c0 -105 -83 -146 -173 -146c-143 0 -206 83 -206 214c0 152 100 214 214 214c51 0 96 -10 130 -28v-116c-31 16 -64 25 -94 25c-54 0 -85 -13 -96 -61zM173 150c7 -34 24 -47 47 -47c18 0 31 11 31 28
c0 22 -15 31 -36 31c-14 0 -28 -4 -42 -12z" />
    <glyph glyph-name="seven.dnom" horiz-adv-x="358" 
d="M213 0h-173l123 280h-149v130h336v-99z" />
    <glyph glyph-name="eight.dnom" horiz-adv-x="409" 
d="M33 292c0 61 49 126 172 126c120 0 172 -63 171 -117c-2 -44 -23 -64 -51 -80c37 -21 66 -51 66 -105c0 -67 -56 -126 -189 -126c-139 0 -184 59 -184 119c0 48 31 84 58 97c-22 18 -43 45 -43 86zM207 149c-9 2 -18 5 -26 7c-6 -7 -9 -16 -9 -25c0 -14 10 -28 35 -28
c22 0 29 10 29 21c0 15 -14 21 -29 25zM232 282c-1 13 -10 23 -29 23c-18 0 -26 -9 -26 -18c0 -12 14 -17 27 -21c9 -3 18 -6 23 -7c3 7 5 15 5 23z" />
    <glyph glyph-name="nine.dnom" horiz-adv-x="415" 
d="M17 272c0 105 83 146 173 146c143 0 206 -83 206 -214c0 -152 -100 -214 -214 -214c-51 0 -96 10 -130 28v116c31 -16 64 -25 94 -25c54 0 85 13 96 61c-25 -17 -57 -26 -90 -26c-70 0 -135 39 -135 128zM195 305c-18 0 -31 -11 -31 -28c0 -22 15 -31 36 -31
c14 0 28 4 42 12c-7 34 -24 47 -47 47z" />
    <glyph glyph-name="zero.numr" horiz-adv-x="428" 
d="M410 483c0 -113 -56 -214 -196 -214c-141 0 -196 101 -196 214s55 214 196 214c140 0 196 -101 196 -214zM177 483c0 -57 12 -76 37 -76s37 19 37 76s-12 76 -37 76s-37 -19 -37 -76z" />
    <glyph glyph-name="one.numr" horiz-adv-x="323" 
d="M131 680h117v-279h62v-129h-284v129h68v132l-62 -23v132z" />
    <glyph glyph-name="two.numr" horiz-adv-x="385" 
d="M35 654c44 26 103 43 158 43c87 0 167 -37 167 -137c0 -51 -23 -77 -52 -100c-21 -17 -46 -31 -68 -52h119v-129h-337l1 62c0 80 50 117 101 151c37 25 69 34 69 53c0 11 -9 17 -27 17c-41 0 -85 -18 -131 -52v144z" />
    <glyph glyph-name="three.numr" horiz-adv-x="371" 
d="M337 577c0 -37 -21 -74 -66 -89c44 -9 83 -39 83 -95c0 -92 -85 -124 -176 -124c-54 0 -110 12 -153 28v131c38 -18 100 -32 140 -32c22 0 37 6 37 19c0 7 -6 14 -20 14h-75l1 111l61 -1c12 0 18 5 18 12c0 13 -15 17 -37 17c-35 0 -88 -15 -118 -34v126
c37 23 93 37 145 37c82 0 160 -33 160 -120z" />
    <glyph glyph-name="four.numr" horiz-adv-x="422" 
d="M198 680h157v-242h48v-120h-48v-46h-141v46h-199v126zM214 438v78l-60 -78h60z" />
    <glyph glyph-name="five.numr" horiz-adv-x="373" 
d="M51 680h286v-129h-147l-3 -26c9 1 20 2 30 2c65 0 137 -29 137 -126c0 -110 -100 -141 -193 -141c-48 0 -101 10 -139 28v121c24 -14 69 -25 108 -25c36 0 65 8 65 29c0 25 -37 31 -76 31c-32 0 -65 -5 -82 -9z" />
    <glyph glyph-name="six.numr" horiz-adv-x="415" 
d="M173 517c25 17 57 26 90 26c70 0 135 -39 135 -128c0 -105 -83 -146 -173 -146c-143 0 -206 83 -206 214c0 152 100 214 214 214c51 0 96 -10 130 -28v-116c-31 16 -64 25 -94 25c-54 0 -85 -13 -96 -61zM173 429c7 -34 24 -47 47 -47c18 0 31 11 31 28
c0 22 -15 31 -36 31c-14 0 -28 -4 -42 -12z" />
    <glyph glyph-name="seven.numr" horiz-adv-x="359" 
d="M213 270h-173l123 280h-149v130h336v-99z" />
    <glyph glyph-name="eight.numr" horiz-adv-x="409" 
d="M33 571c0 61 49 126 172 126c120 0 172 -63 171 -117c-2 -44 -23 -64 -51 -80c37 -21 66 -51 66 -105c0 -67 -56 -126 -189 -126c-139 0 -184 59 -184 119c0 48 31 84 58 97c-22 18 -43 45 -43 86zM207 428c-9 2 -18 5 -26 7c-6 -7 -9 -16 -9 -25c0 -14 10 -28 35 -28
c22 0 29 10 29 21c0 15 -14 21 -29 25zM232 561c-1 13 -10 23 -29 23c-18 0 -26 -9 -26 -18c0 -12 14 -17 27 -21c9 -3 18 -6 23 -7c3 7 5 15 5 23z" />
    <glyph glyph-name="nine.numr" horiz-adv-x="415" 
d="M17 551c0 105 83 146 173 146c143 0 206 -83 206 -214c0 -152 -100 -214 -214 -214c-51 0 -96 10 -130 28v116c31 -16 64 -25 94 -25c54 0 85 13 96 61c-25 -17 -57 -26 -90 -26c-70 0 -135 39 -135 128zM195 584c-18 0 -31 -11 -31 -28c0 -22 15 -31 36 -31
c14 0 28 4 42 12c-7 34 -24 47 -47 47z" />
    <glyph glyph-name="asterisk" unicode="*" horiz-adv-x="552" 
d="M276 361l-56 -118l-167 112l78 71l-112 23l77 194l95 -61l-19 118h208l-19 -118l95 61l77 -194l-112 -23l78 -71l-167 -112z" />
    <glyph glyph-name="backslash" unicode="\" horiz-adv-x="516" 
d="M502 -62h-168l-320 824h168z" />
    <glyph glyph-name="periodcentered" unicode="&#xb7;" horiz-adv-x="298" 
d="M278 238c0 -84 -60 -124 -129 -124c-68 0 -128 40 -128 124s60 124 128 124c69 0 129 -40 129 -124z" />
    <glyph glyph-name="bullet" unicode="&#x2022;" horiz-adv-x="459" 
d="M44 350c0 125 88 178 186 178c100 0 185 -53 185 -178c0 -126 -85 -180 -185 -180c-98 0 -186 54 -186 180z" />
    <glyph glyph-name="colon" unicode=":" horiz-adv-x="298" 
d="M270 377c0 -79 -57 -117 -122 -117c-64 0 -120 38 -120 117s56 117 120 117c65 0 122 -38 122 -117zM270 100c0 -79 -57 -117 -122 -117c-64 0 -120 38 -120 117s56 117 120 117c65 0 122 -38 122 -117z" />
    <glyph glyph-name="comma" unicode="," horiz-adv-x="289" 
d="M155 -143h-173l73 320h220z" />
    <glyph glyph-name="ellipsis" unicode="&#x2026;" horiz-adv-x="934" 
d="M915 107c0 -84 -60 -124 -129 -124c-68 0 -128 40 -128 124s60 124 128 124c69 0 129 -40 129 -124zM275 107c0 -84 -60 -124 -129 -124c-68 0 -128 40 -128 124s60 124 128 124c69 0 129 -40 129 -124zM595 107c0 -84 -60 -124 -129 -124c-68 0 -128 40 -128 124
s60 124 128 124c69 0 129 -40 129 -124z" />
    <glyph glyph-name="exclam" unicode="!" horiz-adv-x="323" 
d="M256 286h-190l-35 414h260zM290 107c0 -84 -60 -124 -129 -124c-68 0 -128 40 -128 124s60 124 128 124c69 0 129 -40 129 -124z" />
    <glyph glyph-name="exclamdown" unicode="&#xa1;" horiz-adv-x="313" 
d="M286 -220h-260l35 414h190zM285 373c0 -84 -60 -124 -129 -124c-68 0 -128 40 -128 124s60 124 128 124c69 0 129 -40 129 -124z" />
    <glyph glyph-name="numbersign" unicode="#" horiz-adv-x="750" 
d="M262 0h-204l27 115h-60v160h98l31 131h-79v160h117l27 115h204l-27 -115h66l27 115h204l-27 -115h59v-160h-97l-31 -131h78v-160h-116l-27 -115h-204l27 115h-66zM358 406l-31 -131h66l31 131h-66z" />
    <glyph glyph-name="period" unicode="." horiz-adv-x="294" 
d="M275 107c0 -84 -60 -124 -129 -124c-68 0 -128 40 -128 124s60 124 128 124c69 0 129 -40 129 -124z" />
    <glyph glyph-name="question" unicode="?" horiz-adv-x="509" 
d="M331 269h-224c0 119 116 156 116 199c0 17 -17 25 -43 25c-44 0 -111 -20 -149 -42v224c55 25 132 42 205 42c125 0 252 -34 252 -185c0 -133 -157 -201 -157 -263zM349 107c0 -84 -60 -124 -129 -124c-68 0 -128 40 -128 124s60 124 128 124c69 0 129 -40 129 -124z" />
    <glyph glyph-name="questiondown" unicode="&#xbf;" horiz-adv-x="504" 
d="M475 -195c-55 -25 -132 -42 -205 -42c-125 0 -252 34 -252 185c0 133 157 201 157 263h224c0 -119 -116 -156 -116 -199c0 -17 17 -25 43 -25c44 0 111 20 149 42v-224zM415 373c0 -84 -60 -124 -129 -124c-68 0 -128 40 -128 124s60 124 128 124c69 0 129 -40 129 -124z
" />
    <glyph glyph-name="quotedbl" unicode="&#x22;" horiz-adv-x="516" 
d="M460 412h-171v288h209zM208 412h-171v288h209z" />
    <glyph glyph-name="quotesingle" unicode="'" horiz-adv-x="264" 
d="M208 412h-171v288h209z" />
    <glyph glyph-name="semicolon" unicode=";" horiz-adv-x="311" 
d="M160 -143h-173l73 320h220zM290 370c0 -84 -60 -124 -129 -124c-68 0 -128 40 -128 124s60 124 128 124c69 0 129 -40 129 -124z" />
    <glyph glyph-name="slash" unicode="/" horiz-adv-x="517" 
d="M183 -62h-168l320 824h168z" />
    <glyph glyph-name="underscore" unicode="_" horiz-adv-x="537" 
d="M537 -216h-537v192h537v-192z" />
    <glyph glyph-name="braceleft" unicode="{" horiz-adv-x="429" 
d="M407 68v-178c-198 -47 -323 32 -323 187v121c0 47 -36 53 -76 53v198c39 0 76 4 76 53v121c0 155 125 234 323 187v-178c-64 13 -84 -18 -84 -80v-82c0 -69 -39 -116 -103 -120c64 -4 103 -51 103 -120v-82c0 -62 20 -93 84 -80z" />
    <glyph glyph-name="braceright" unicode="}" horiz-adv-x="429" 
d="M345 77c0 -155 -125 -234 -323 -187v178c64 -13 84 18 84 80v82c0 69 39 116 103 120c-64 4 -103 51 -103 120v82c0 62 -20 93 -84 80v178c198 47 323 -32 323 -187v-121c0 -49 36 -53 76 -53v-198c-40 0 -76 -6 -76 -53v-121z" />
    <glyph glyph-name="bracketleft" unicode="[" horiz-adv-x="407" 
d="M382 -110h-337v920h337v-206h-98v-508h98v-206z" />
    <glyph glyph-name="bracketright" unicode="]" horiz-adv-x="407" 
d="M362 -110h-337v206h98v508h-98v206h337v-920z" />
    <glyph glyph-name="parenleft" unicode="(" horiz-adv-x="362" 
d="M181 813h171c-50 -129 -97 -290 -97 -463s47 -334 97 -463h-171c-95 127 -160 300 -160 463s65 336 160 463z" />
    <glyph glyph-name="parenright" unicode=")" horiz-adv-x="362" 
d="M10 813h172c95 -127 159 -300 159 -463s-64 -336 -159 -463h-172c51 129 97 290 97 463s-46 334 -97 463z" />
    <glyph glyph-name="emdash" unicode="&#x2014;" horiz-adv-x="795" 
d="M756 150h-717v180h717v-180z" />
    <glyph glyph-name="endash" unicode="&#x2013;" horiz-adv-x="585" 
d="M546 150h-507v180h507v-180z" />
    <glyph glyph-name="hyphen" unicode="-" horiz-adv-x="476" 
d="M39 330h398v-180h-398v180z" />
    <glyph glyph-name="emdash.case" horiz-adv-x="801" 
d="M759 260h-717v180h717v-180z" />
    <glyph glyph-name="endash.case" horiz-adv-x="591" 
d="M549 260h-507v180h507v-180z" />
    <glyph glyph-name="hyphen.case" horiz-adv-x="482" 
d="M42 440h398v-180h-398v180z" />
    <glyph glyph-name="guillemotleft" unicode="&#xab;" horiz-adv-x="721" 
d="M705 26h-242l-140 193v42l140 193h242l-152 -214zM404 26h-242l-139 193v42l139 193h242l-150 -214z" />
    <glyph glyph-name="guillemotright" unicode="&#xbb;" horiz-adv-x="720" 
d="M559 26h-243l152 214l-152 214h243l138 -193v-42zM259 26h-243l151 214l-151 214h243l138 -193v-42z" />
    <glyph glyph-name="guilsinglleft" unicode="&#x2039;" horiz-adv-x="421" 
d="M404 26h-242l-139 193v42l139 193h242l-150 -214z" />
    <glyph glyph-name="guilsinglright" unicode="&#x203a;" horiz-adv-x="420" 
d="M259 26h-243l151 214l-151 214h243l138 -193v-42z" />
    <glyph glyph-name="quotedblbase" unicode="&#x201e;" horiz-adv-x="539" 
d="M405 -143h-173l73 320h220zM155 -143h-173l73 320h220z" />
    <glyph glyph-name="quotedblleft" unicode="&#x201c;" horiz-adv-x="554" 
d="M475 380h-220l120 320h173zM225 380h-220l120 320h173z" />
    <glyph glyph-name="quotedblright" unicode="&#x201d;" horiz-adv-x="551" 
d="M437 380h-173l73 320h220zM187 380h-173l73 320h220z" />
    <glyph glyph-name="quoteleft" unicode="&#x2018;" horiz-adv-x="304" 
d="M225 380h-220l120 320h173z" />
    <glyph glyph-name="quoteright" unicode="&#x2019;" horiz-adv-x="301" 
d="M187 380h-173l73 320h220z" />
    <glyph glyph-name="quotesinglbase" unicode="&#x201a;" horiz-adv-x="289" 
d="M155 -143h-173l73 320h220z" />
    <glyph glyph-name="guillemotleft.case" horiz-adv-x="736" 
d="M708 136h-242l-140 193v42l140 193h242l-152 -214zM407 136h-242l-139 193v42l139 193h242l-150 -214z" />
    <glyph glyph-name="guillemotright.case" horiz-adv-x="735" 
d="M571 136h-243l152 214l-152 214h243l138 -193v-42zM271 136h-243l151 214l-151 214h243l138 -193v-42z" />
    <glyph glyph-name="guilsinglleft.case" horiz-adv-x="435" 
d="M407 136h-242l-139 193v42l139 193h242l-150 -214z" />
    <glyph glyph-name="guilsinglright.case" horiz-adv-x="435" 
d="M271 136h-243l151 214l-151 214h243l138 -193v-42z" />
    <glyph glyph-name="space" unicode=" " horiz-adv-x="164" 
 />
    <glyph glyph-name="cent" unicode="&#xa2;" horiz-adv-x="508" 
d="M406 185c24 3 45 9 61 15v-193c-20 -6 -40 -11 -61 -14v-113h-80v104c-9 -1 -18 -1 -27 -1c-142 0 -276 67 -276 241c0 198 144 275 291 275h12v101h80v-111c19 -4 38 -9 56 -15v-195c-16 7 -36 13 -56 17v-111zM326 297c-31 -6 -53 -24 -53 -57c0 -34 22 -50 53 -56v113
z" />
    <glyph glyph-name="currency" unicode="&#xa4;" horiz-adv-x="553" 
d="M178 161l-59 -59l-92 92l52 52c-15 29 -25 64 -25 104c0 41 10 76 26 105l-53 53l91 92l61 -61c30 12 63 18 97 18s68 -6 98 -18l61 62l91 -93l-54 -54c16 -29 26 -64 26 -104s-9 -74 -25 -103l53 -53l-92 -92l-59 59c-30 -12 -64 -18 -99 -18c-34 0 -68 6 -98 18z
M242 350c0 -15 10 -32 34 -32s34 17 34 32s-10 32 -34 32s-34 -17 -34 -32z" />
    <glyph glyph-name="dollar" unicode="$" horiz-adv-x="650" 
d="M413 -110h-180v98c-73 10 -138 30 -195 62v237c90 -57 184 -85 254 -85c53 0 61 10 61 24c0 50 -322 15 -322 245c0 125 85 197 202 219v100h180v-100c64 -10 126 -28 175 -53v-224c-73 42 -165 70 -240 69c-31 0 -42 -7 -42 -20c0 -59 321 -13 321 -242
c0 -153 -90 -214 -214 -231v-99z" />
    <glyph glyph-name="Euro" unicode="&#x20ac;" horiz-adv-x="715" 
d="M670 24c-63 -28 -131 -41 -200 -41c-176 0 -335 78 -375 262h-72v80h62v15v15h-62v80h71c40 184 200 262 368 262c72 0 146 -14 208 -41v-220c-36 20 -99 41 -161 41c-48 0 -91 -12 -118 -42h172v-80h-203c-1 -5 -1 -10 -1 -15s0 -10 1 -15h203v-80h-170
c26 -26 66 -38 110 -38c67 0 134 15 167 41v-224z" />
    <glyph glyph-name="sterling" unicode="&#xa3;" horiz-adv-x="611" 
d="M584 0h-555v207h21c36 0 54 19 54 51v8h-58v166h61v19c0 170 116 246 269 246c60 0 122 -10 181 -34v-197c-33 18 -78 30 -118 30c-52 0 -75 -24 -75 -59v-5h154v-166h-154v-3c0 -21 -6 -38 -22 -56h242v-207z" />
    <glyph glyph-name="yen" unicode="&#xa5;" horiz-adv-x="781" 
d="M479 680h284l-183 -320h91v-110h-149v-30h149v-110h-149v-110h-264v110h-147v110h147v30h-147v110h89l-182 320h283l89 -226z" />
    <glyph glyph-name="cent.tf" 
d="M487 185c24 3 45 9 61 15v-193c-20 -6 -40 -11 -61 -14v-113h-80v104c-9 -1 -18 -1 -27 -1c-142 0 -276 67 -276 241c0 198 144 275 291 275h12v101h80v-111c19 -4 38 -9 56 -15v-195c-16 7 -36 13 -56 17v-111zM407 297c-31 -6 -53 -24 -53 -57c0 -34 22 -50 53 -56v113
z" />
    <glyph glyph-name="currency.tf" 
d="M236 161l-79 -79l-92 92l73 73c-16 29 -25 63 -25 103s10 75 26 104l-74 74l91 93l81 -82c30 12 64 18 98 18s68 -6 98 -18l81 82l91 -93l-74 -74c16 -29 26 -64 26 -104s-9 -74 -25 -103l73 -73l-92 -92l-79 79c-30 -12 -64 -18 -99 -18s-69 6 -99 18zM301 350
c0 -15 10 -32 34 -32s34 17 34 32s-10 32 -34 32s-34 -17 -34 -32z" />
    <glyph glyph-name="dollar.tf" 
d="M426 -110h-180v98c-73 10 -138 30 -195 62v237c90 -57 184 -85 254 -85c53 0 61 10 61 24c0 50 -327 15 -327 245c0 126 87 199 207 220v99h180v-101c62 -10 122 -28 170 -52v-224c-73 42 -165 70 -240 69c-31 0 -42 -7 -42 -20c0 -59 326 -13 326 -242
c0 -153 -90 -214 -214 -231v-99z" />
    <glyph glyph-name="Euro.tf" 
d="M388 245c29 -26 72 -38 116 -38c49 0 97 8 133 22v-218c-53 -19 -109 -28 -166 -28c-176 0 -343 78 -385 262h-72v80h62v15v15h-62v80h72c42 184 209 262 372 262c59 0 120 -9 174 -28v-217c-35 14 -81 25 -127 25s-90 -12 -120 -42h179v-80h-213c-1 -5 -1 -10 -1 -15
s0 -10 1 -15h213v-80h-176z" />
    <glyph glyph-name="sterling.tf" 
d="M630 0h-585v207h21c36 0 54 19 54 51v8h-58v166h61v19c0 170 116 246 269 246c80 0 142 -10 201 -34v-197c-41 20 -88 30 -138 30c-52 0 -75 -24 -75 -59v-5h154v-166h-154v-3c0 -21 -6 -38 -22 -56h272v-207z" />
    <glyph glyph-name="yen.tf" 
d="M409 680h281l-177 -320h102v-110h-147v-30h147v-110h-147v-110h-266v110h-147v110h147v30h-147v110h102l-177 320h281l74 -186z" />
    <glyph glyph-name="approxequal" unicode="&#x2248;" horiz-adv-x="623" 
d="M581 593c20 -159 -47 -223 -145 -223c-72 0 -161 45 -188 45c-16 0 -21 -12 -19 -38h-186c-20 159 47 223 145 223c72 0 161 -45 188 -45c16 0 21 12 19 38h186zM581 343c20 -159 -47 -223 -145 -223c-72 0 -161 45 -188 45c-16 0 -21 -12 -19 -38h-186
c-20 159 47 223 145 223c72 0 161 -45 188 -45c16 0 21 12 19 38h186z" />
    <glyph glyph-name="asciitilde" unicode="~" horiz-adv-x="607" 
d="M575 442c20 -159 -47 -223 -145 -223c-72 0 -161 45 -188 45c-16 0 -21 -12 -19 -38h-186c-20 159 47 223 145 223c72 0 161 -45 188 -45c16 0 21 12 19 38h186z" />
    <glyph glyph-name="divide" unicode="&#xf7;" horiz-adv-x="566" 
d="M543 261h-520v180h520v-180zM412 107c0 -84 -60 -124 -129 -124c-68 0 -128 40 -128 124s60 124 128 124c69 0 129 -40 129 -124zM412 595c0 -84 -60 -124 -129 -124c-68 0 -128 40 -128 124s60 124 128 124c69 0 129 -40 129 -124z" />
    <glyph glyph-name="emptyset" unicode="&#x2205;" horiz-adv-x="788" 
d="M755 700l-88 -103c58 -65 94 -152 94 -247c0 -204 -163 -367 -367 -367c-75 0 -144 22 -202 60l-37 -43h-121l88 103c-59 65 -95 151 -95 247c0 204 163 367 367 367c75 0 145 -22 203 -60l37 43h121zM394 598c-138 0 -248 -110 -248 -248c0 -59 20 -113 54 -156l318 371
c-36 21 -79 33 -124 33zM270 135c37 -21 79 -33 124 -33c138 0 248 110 248 248c0 59 -20 113 -54 155z" />
    <glyph glyph-name="equal" unicode="=" horiz-adv-x="626" 
d="M573 380h-520v180h520v-180zM573 140h-520v180h520v-180z" />
    <glyph glyph-name="greater" unicode="&#x3e;" horiz-adv-x="512" 
d="M485 229l-437 -130v208l245 43l-245 43v208l437 -130v-242z" />
    <glyph glyph-name="greaterequal" unicode="&#x2265;" horiz-adv-x="521" 
d="M483 309l-437 -120v208l255 33l-255 33v208l437 -120v-242zM483 0h-437v180h437v-180z" />
    <glyph glyph-name="infinity" unicode="&#x221e;" horiz-adv-x="902" 
d="M450 493c51 54 115 97 200 97c123 0 223 -85 223 -232s-100 -232 -223 -232c-84 0 -148 43 -198 97c-50 -54 -115 -97 -200 -97c-123 0 -223 85 -223 232s100 232 223 232c84 0 149 -43 198 -97zM349 359c-27 35 -47 39 -65 39c-19 0 -41 -14 -41 -40s22 -40 41 -40
c18 0 38 5 65 41zM659 358c0 26 -22 40 -40 40c-19 0 -38 -5 -66 -41c27 -35 47 -39 66 -39c18 0 40 14 40 40z" />
    <glyph glyph-name="integral" unicode="&#x222b;" horiz-adv-x="519" 
d="M138 571c0 179 122 226 237 226c52 0 103 -8 140 -22v-201c-15 5 -47 14 -77 14c-31 0 -58 -20 -58 -64v-535c0 -179 -122 -226 -239 -226c-52 0 -101 8 -138 22v201c15 -5 46 -14 77 -14c30 0 58 22 58 64v535z" />
    <glyph glyph-name="less" unicode="&#x3c;" horiz-adv-x="512" 
d="M464 307v-208l-437 130v242l437 130v-208l-244 -43z" />
    <glyph glyph-name="lessequal" unicode="&#x2264;" horiz-adv-x="521" 
d="M475 397v-208l-437 120v242l437 120v-208l-255 -33zM475 0h-437v180h437v-180z" />
    <glyph glyph-name="logicalnot" unicode="&#xac;" horiz-adv-x="579" 
d="M537 179h-200v110h-307v191h507v-301z" />
    <glyph glyph-name="minus" unicode="&#x2212;" horiz-adv-x="515" 
d="M474 256h-433v190h433v-190z" />
    <glyph glyph-name="multiply" unicode="&#xd7;" horiz-adv-x="542" 
d="M271 224l-122 -121l-124 125l121 121l-121 121l124 125l122 -121l121 121l125 -125l-122 -121l122 -121l-125 -125z" />
    <glyph glyph-name="notequal" unicode="&#x2260;" horiz-adv-x="626" 
d="M212 41h-120l52 99h-91v180h184l32 60h-216v180h309l52 99h120l-52 -99h91v-180h-184l-32 -60h216v-180h-309z" />
    <glyph glyph-name="partialdiff" unicode="&#x2202;" horiz-adv-x="573" 
d="M553 303c0 -207 -96 -320 -285 -320c-154 0 -251 97 -251 236c0 157 98 222 193 222c47 0 94 -15 127 -43c0 12 -5 27 -15 42c-28 40 -99 80 -224 67v210c316 10 455 -162 455 -414zM240 219c0 -29 13 -48 45 -48s45 19 45 48s-13 48 -45 48s-45 -19 -45 -48z" />
    <glyph glyph-name="percent" unicode="%" horiz-adv-x="982" 
d="M357 -60h-140l409 820h140zM444 519c0 -135 -97 -198 -212 -198c-116 0 -212 63 -212 198s96 198 212 198c115 0 212 -63 212 -198zM190 519c0 -19 6 -46 42 -46s42 27 42 46s-6 46 -42 46s-42 -27 -42 -46zM962 181c0 -135 -97 -198 -212 -198s-211 63 -211 198
s96 199 211 199s212 -64 212 -199zM708 181c0 -19 6 -46 42 -46s42 27 42 46c0 20 -6 47 -42 47s-42 -27 -42 -47z" />
    <glyph glyph-name="perthousand" unicode="&#x2030;" horiz-adv-x="1436" 
d="M357 -60h-140l409 820h140zM444 519c0 -135 -97 -198 -212 -198c-116 0 -212 63 -212 198s96 198 212 198c115 0 212 -63 212 -198zM190 519c0 -19 6 -46 42 -46s42 27 42 46s-6 46 -42 46s-42 -27 -42 -46zM962 181c0 -135 -97 -198 -212 -198s-211 63 -211 198
s96 199 211 199s212 -64 212 -199zM708 181c0 -19 6 -46 42 -46s42 27 42 46c0 20 -6 47 -42 47s-42 -27 -42 -47zM1416 181c0 -135 -97 -198 -212 -198s-211 63 -211 198s96 199 211 199s212 -64 212 -199zM1162 181c0 -19 6 -46 42 -46s42 27 42 46c0 20 -6 47 -42 47
s-42 -27 -42 -47z" />
    <glyph glyph-name="plus" unicode="+" horiz-adv-x="558" 
d="M374 446h159v-190h-159v-159h-190v159h-159v190h159v159h190v-159z" />
    <glyph glyph-name="plusminus" unicode="&#xb1;" horiz-adv-x="584" 
d="M387 701v-139h159v-190h-159v-139h-190v139h-159v190h159v139h190zM546 0h-508v190h508v-190z" />
    <glyph glyph-name="product" unicode="&#x220f;" horiz-adv-x="838" 
d="M367 -220h-265v690h-77v230h788v-230h-77v-690h-266v690h-103v-690z" />
    <glyph glyph-name="radical" unicode="&#x221a;" horiz-adv-x="824" 
d="M465 0h-212l-123 247h-115v233h260l82 -192l212 492h277z" />
    <glyph glyph-name="summation" unicode="&#x2211;" horiz-adv-x="599" 
d="M565 0h-536v142l184 208l-184 208v142h525v-230h-185l86 -97v-46l-86 -97h196v-230z" />
    <glyph glyph-name="lozenge" unicode="&#x25ca;" horiz-adv-x="638" 
d="M455 0h-272l-162 350l162 350h272l162 -350zM255 350l64 -135l64 135l-64 135z" />
    <glyph glyph-name="bar" unicode="|" horiz-adv-x="330" 
d="M285 -100h-240v910h240v-910z" />
    <glyph glyph-name="brokenbar" unicode="&#xa6;" horiz-adv-x="334" 
d="M287 412h-240v398h240v-398zM287 -100h-240v398h240v-398z" />
    <glyph glyph-name="at" unicode="@" horiz-adv-x="1042" 
d="M22 240c0 246 169 477 504 477c346 0 485 -241 485 -436c0 -180 -112 -273 -240 -273c-114 0 -156 35 -189 82c-21 -27 -64 -56 -124 -56c-137 0 -185 117 -185 205s46 202 169 202c58 0 93 -23 118 -52v41h176v-223c0 -24 6 -49 36 -49c46 0 46 69 46 123
c0 115 -83 257 -292 257c-194 0 -302 -144 -302 -298c0 -225 169 -295 358 -295c65 0 140 13 211 34v-179c-73 -26 -150 -36 -218 -36c-297 0 -553 155 -553 476zM560 283c-11 12 -26 16 -36 16c-41 0 -49 -37 -49 -61c0 -22 8 -59 49 -59c10 0 25 4 36 16v88z" />
    <glyph glyph-name="ampersand" unicode="&#x26;" horiz-adv-x="757" 
d="M638 134l131 -134h-242l-32 32c-66 -31 -143 -49 -228 -49c-160 0 -248 78 -248 185c0 100 73 156 141 193c-39 40 -79 91 -79 159c0 114 99 197 258 197c157 0 242 -87 242 -188c0 -86 -78 -147 -146 -188l75 -76c18 29 30 64 30 103h199c0 -82 -37 -166 -101 -234z
M377 526c0 23 -14 39 -41 39c-29 0 -47 -19 -47 -45c0 -15 11 -37 37 -67c29 21 51 46 51 73zM241 192c0 -28 21 -45 61 -45c20 0 42 4 64 11l-91 90c-21 -16 -34 -34 -34 -56z" />
    <glyph glyph-name="paragraph" unicode="&#xb6;" horiz-adv-x="868" 
d="M512 -220h-248v460c-153 0 -245 86 -245 230s92 230 245 230h547v-920h-248v690h-51v-690z" />
    <glyph glyph-name="copyright" unicode="&#xa9;" horiz-adv-x="819" 
d="M793 350c0 -245 -173 -367 -384 -367c-210 0 -383 122 -383 367s173 367 383 367c211 0 384 -122 384 -367zM576 177c-50 -26 -81 -34 -154 -34c-101 0 -219 57 -219 199c0 153 109 215 231 215c56 0 99 -8 142 -34v-138c-24 15 -63 25 -98 25c-41 0 -77 -15 -77 -56
c0 -48 39 -65 82 -65c35 0 72 11 93 27v-139zM109 350c0 -194 139 -292 300 -292c162 0 300 98 300 292s-138 292 -300 292c-161 0 -300 -98 -300 -292z" />
    <glyph glyph-name="registered" unicode="&#xae;" horiz-adv-x="819" 
d="M793 350c0 -245 -173 -367 -384 -367c-210 0 -383 122 -383 367s173 367 383 367c211 0 384 -122 384 -367zM109 350c0 -194 139 -292 300 -292c162 0 300 98 300 292s-138 292 -300 292c-161 0 -300 -98 -300 -292zM392 155h-149v390h194c87 0 171 -33 171 -142
c0 -59 -24 -95 -60 -117l94 -131h-161l-70 106h-7h-12v-106zM392 428v-60h37c22 0 31 14 31 30s-9 30 -31 30h-37z" />
    <glyph glyph-name="section" unicode="&#xa7;" horiz-adv-x="528" 
d="M498 124c0 -118 -119 -161 -254 -161c-80 0 -142 12 -198 41v181c56 -42 127 -55 165 -55c29 0 35 5 35 13c0 17 -43 23 -90 39c-57 20 -121 54 -121 140c0 58 33 94 78 117c-44 30 -78 70 -78 123c0 109 109 155 233 155c75 0 136 -16 190 -41v-158
c-40 21 -96 38 -149 38c-11 0 -20 -4 -20 -12c0 -21 59 -25 115 -49c48 -20 94 -56 94 -131c0 -58 -26 -97 -65 -128c38 -26 65 -61 65 -112zM248 311c12 -5 27 -9 44 -15c12 7 25 17 27 29c2 9 -4 19 -25 29c-14 6 -31 13 -51 21c-13 -8 -22 -20 -23 -31
c-2 -13 6 -25 28 -33z" />
    <glyph glyph-name="trademark" unicode="&#x2122;" horiz-adv-x="708" 
d="M419 435h-121v265h117l67 -105l67 105h117v-265h-121v109l-32 -54h-62l-32 54v-109zM218 435h-131v149h-61v116h254v-116h-62v-149z" />
    <glyph glyph-name="degree" unicode="&#xb0;" horiz-adv-x="457" 
d="M442 521c0 -135 -86 -202 -214 -202c-126 0 -214 67 -214 202c0 126 88 196 214 196c128 0 214 -70 214 -196zM184 518c0 -25 14 -43 44 -43c29 0 42 18 42 43s-13 43 -42 43c-30 0 -44 -18 -44 -43z" />
    <glyph glyph-name="asciicircum" unicode="^" horiz-adv-x="693" 
d="M263 308h-242l218 392h214l219 -392h-242l-84 166z" />
    <glyph glyph-name="dagger" unicode="&#x2020;" horiz-adv-x="587" 
d="M427 -220h-266v467h-138v233h138v220h266v-220h137v-233h-137v-467z" />
    <glyph glyph-name="daggerdbl" unicode="&#x2021;" horiz-adv-x="636" 
d="M451 -220h-266v161h-151v224h151v91h-151v224h151v220h266v-220h151v-224h-151v-91h151v-224h-151v-161z" />
    <glyph glyph-name="acute" unicode="&#xb4;" horiz-adv-x="407" 
d="M241 745h-201l105 176h227z" />
    <glyph glyph-name="breve" unicode="&#x2d8;" horiz-adv-x="472" 
d="M428 798c-55 -36 -124 -55 -193 -55s-138 19 -193 55v156c54 -33 123 -49 193 -49s139 16 193 49v-156z" />
    <glyph glyph-name="caron" unicode="&#x2c7;" horiz-adv-x="440" 
d="M460 925l-134 -180h-212l-134 180h191l49 -59l49 59h191z" />
    <glyph glyph-name="cedilla" unicode="&#xb8;" horiz-adv-x="233" 
d="M44 0h138l-15 -43c53 -7 96 -31 96 -88c0 -76 -74 -107 -164 -107c-52 0 -92 6 -128 19v112c26 -8 56 -13 81 -13c32 0 57 7 57 24c0 25 -59 26 -90 22z" />
    <glyph glyph-name="circumflex" unicode="&#x2c6;" horiz-adv-x="440" 
d="M114 925h212l134 -180h-191l-49 59l-49 -59h-191z" />
    <glyph glyph-name="dieresis" unicode="&#xa8;" horiz-adv-x="489" 
d="M469 836c0 -67 -45 -105 -105 -105s-105 38 -105 105s45 105 105 105s105 -38 105 -105zM231 836c0 -67 -45 -105 -105 -105s-105 38 -105 105s45 105 105 105s105 -38 105 -105z" />
    <glyph glyph-name="dotaccent" unicode="&#x2d9;" horiz-adv-x="235" 
d="M10 840c0 73 51 105 109 105c59 0 109 -32 109 -105c0 -74 -50 -105 -109 -105c-58 0 -109 31 -109 105z" />
    <glyph glyph-name="grave" unicode="`" horiz-adv-x="407" 
d="M367 745h-201l-131 176h227z" />
    <glyph glyph-name="hungarumlaut" unicode="&#x2dd;" horiz-adv-x="539" 
d="M430 740h-185l94 177h200zM195 740h-185l79 177h200z" />
    <glyph glyph-name="macron" unicode="&#xaf;" horiz-adv-x="360" 
d="M-13 895h380v-157h-380v157z" />
    <glyph glyph-name="ogonek" unicode="&#x2db;" horiz-adv-x="242" 
d="M84 0h160c-31 -24 -50 -53 -50 -71c0 -12 7 -20 22 -20c6 0 12 1 18 3v-135c-29 -9 -66 -14 -101 -14c-92 0 -133 49 -132 105c-1 48 40 100 83 132z" />
    <glyph glyph-name="ring" unicode="&#x2da;" horiz-adv-x="290" 
d="M295 857c0 -90 -68 -136 -151 -136c-80 0 -149 46 -149 136c0 86 69 134 149 134c83 0 151 -48 151 -134zM112 856c0 -18 10 -33 33 -33c24 0 33 15 33 33s-9 33 -33 33c-23 0 -33 -15 -33 -33z" />
    <glyph glyph-name="tilde" unicode="&#x2dc;" horiz-adv-x="468" 
d="M446 929c27 -106 -28 -197 -125 -197c-66 0 -107 41 -133 41c-19 0 -22 -20 -19 -35h-147c-27 106 28 197 125 197c66 0 107 -41 133 -41c19 0 22 20 19 35h147z" />
    <glyph glyph-name="uni0326" unicode="&#x326;" horiz-adv-x="313" 
d="M213 -330h-183l43 280h220z" />
    <glyph glyph-name="A" unicode="A" horiz-adv-x="776" 
d="M263 0h-269l251 700h286l251 -700h-269l-23 80h-204zM367 368l-31 -108h103l-30 108c-9 33 -17 70 -21 105c-4 -35 -12 -72 -21 -105z" />
    </font>
</defs>
</svg>
